<?xml version="1.0" encoding="utf-8"?>
<!-- Generator: Adobe Illustrator 26.0.0, SVG Export Plug-In . SVG Version: 6.00 Build 0)  -->
<svg version="1.1" id="Слой_1" xmlns="http://www.w3.org/2000/svg" xmlns:xlink="http://www.w3.org/1999/xlink" x="0px" y="0px"
	 viewBox="0 0 1920 732" enable-background="new 0 0 1920 732" xml:space="preserve">
<linearGradient id="SVGID_1_" gradientUnits="userSpaceOnUse" x1="960" y1="-96.919" x2="960" y2="734.0414" gradientTransform="matrix(1 0 0 -1 0 734)">
	<stop  offset="0" style="stop-color:#60B967"/>
	<stop  offset="0.5781" style="stop-color:#002203"/>
	<stop  offset="1" style="stop-color:#000000"/>
</linearGradient>
<path fill="url(#SVGID_1_)" d="M1920,0H0v732h1920V0z"/>
<linearGradient id="SVGID_00000158003747377721562740000004396408397602564229_" gradientUnits="userSpaceOnUse" x1="1322.2085" y1="366.0026" x2="618.4725" y2="825.8266" gradientTransform="matrix(1 0 0 -1 0 734)">
	<stop  offset="0" style="stop-color:#011F02"/>
	<stop  offset="1" style="stop-color:#011F02;stop-opacity:0"/>
</linearGradient>
<path fill="url(#SVGID_00000158003747377721562740000004396408397602564229_)" d="M13.5,210.7c0,0,1525.1-40.9,1906.5-64.5v-46.1
	l-288.5,10.6L1920,89V60.7c0,0-533.7,31.9-812.1,50l621.4-62c0,0-735.4,55.6-943.4,68C577.8,129.2,13.5,135,13.5,135v14.7l491.4-3.5
	L13.5,162.4V210.7z"/>
<linearGradient id="SVGID_00000101090343008477329500000018267380225024191882_" gradientUnits="userSpaceOnUse" x1="1236.5695" y1="234.9367" x2="532.8335" y2="694.7607" gradientTransform="matrix(1 0 0 -1 0 734)">
	<stop  offset="0" style="stop-color:#011F02"/>
	<stop  offset="1" style="stop-color:#011F02;stop-opacity:0"/>
</linearGradient>
<path fill="url(#SVGID_00000101090343008477329500000018267380225024191882_)" d="M0.2,89c0,0,482.9-4.7,687.6-14.9
	c204.8-10.1,501.9-25.4,501.9-25.4S802.2,81.5,678.1,89.7c-209,13.8-678.1,21-678.1,21V89H0.2z"/>
<linearGradient id="SVGID_00000020368672736265654230000006679473988213697933_" gradientUnits="userSpaceOnUse" x1="1318.6392" y1="360.5399" x2="614.9031" y2="820.3638" gradientTransform="matrix(1 0 0 -1 0 734)">
	<stop  offset="0" style="stop-color:#011F02"/>
	<stop  offset="1" style="stop-color:#011F02;stop-opacity:0"/>
</linearGradient>
<path fill="url(#SVGID_00000020368672736265654230000006679473988213697933_)" d="M1361.8,0c0,0-608.3,40.3-801.8,48.8
	c-193.6,8.6-334.6,12-334.6,12S660.8,16.9,824.3,0H1361.8z"/>
<path fill="#60B967" d="M760.3,357.7c0.6,0,1.1-0.5,1.1-1.1c0-0.6-0.5-1.1-1.1-1.1c-0.6,0-1.1,0.5-1.1,1.1
	C759.2,357.2,759.7,357.7,760.3,357.7z"/>
<path fill="#60B967" d="M827.3,251.4c0.6,0,1.1-0.5,1.1-1.1c0-0.6-0.5-1.1-1.1-1.1s-1.1,0.5-1.1,1.1
	C826.2,250.9,826.7,251.4,827.3,251.4z"/>
<path fill="#60B967" d="M1824,146.5c0.6,0,1.1-0.5,1.1-1.1c0-0.6-0.5-1.1-1.1-1.1c-0.6,0-1.1,0.5-1.1,1.1
	C1822.9,146,1823.4,146.5,1824,146.5z"/>
<path fill="#60B967" d="M1720.3,180.5c0.6,0,1.1-0.5,1.1-1.1c0-0.6-0.5-1.1-1.1-1.1c-0.6,0-1.1,0.5-1.1,1.1
	C1719.2,180,1719.7,180.5,1720.3,180.5z"/>
<path fill="#60B967" d="M790.8,376c0.6,0,1.1-0.5,1.1-1.1c0-0.6-0.5-1.1-1.1-1.1s-1.1,0.5-1.1,1.1C789.7,375.5,790.2,376,790.8,376z
	"/>
<path fill="#60B967" d="M922.6,249.1c0.6,0,1.1-0.5,1.1-1.1c0-0.6-0.5-1.1-1.1-1.1c-0.6,0-1.1,0.5-1.1,1.1
	C921.5,248.6,922,249.1,922.6,249.1z"/>
<path fill="#60B967" d="M972.1,273.1c0.6,0,1.1-0.5,1.1-1.1c0-0.6-0.5-1.1-1.1-1.1s-1.1,0.5-1.1,1.1
	C971,272.6,971.5,273.1,972.1,273.1z"/>
<path fill="#60B967" d="M1270.5,51.9c0.6,0,1.1-0.5,1.1-1.1s-0.5-1.1-1.1-1.1c-0.6,0-1.1,0.5-1.1,1.1S1269.9,51.9,1270.5,51.9z"/>
<path fill="#60B967" d="M1508.5,181.9c0.6,0,1.1-0.5,1.1-1.1c0-0.6-0.5-1.1-1.1-1.1c-0.6,0-1.1,0.5-1.1,1.1
	C1507.3,181.4,1507.8,181.9,1508.5,181.9z"/>
<path fill="#60B967" d="M1724.8,2.3c0.6,0,1.1-0.5,1.1-1.1c0-0.6-0.5-1.1-1.1-1.1c-0.6,0-1.1,0.5-1.1,1.1
	C1723.6,1.8,1724.1,2.3,1724.8,2.3z"/>
<path fill="#60B967" d="M1529.3,14.1c0.6,0,1.1-0.5,1.1-1.1c0-0.6-0.5-1.1-1.1-1.1c-0.6,0-1.1,0.5-1.1,1.1
	C1528.2,13.6,1528.7,14.1,1529.3,14.1z"/>
<path fill="#60B967" d="M571.9,292.7c0.6,0,1.1-0.5,1.1-1.1c0-0.6-0.5-1.1-1.1-1.1s-1.1,0.5-1.1,1.1
	C570.8,292.2,571.3,292.7,571.9,292.7z"/>
<path fill="#60B967" d="M411.3,77.6c0.6,0,1.1-0.5,1.1-1.1c0-0.6-0.5-1.1-1.1-1.1c-0.6,0-1.1,0.5-1.1,1.1
	C410.1,77.1,410.6,77.6,411.3,77.6z"/>
<path fill="#60B967" d="M477.7,61.3c0.6,0,1.1-0.5,1.1-1.1c0-0.6-0.5-1.1-1.1-1.1c-0.6,0-1.1,0.5-1.1,1.1
	C476.6,60.7,477.1,61.3,477.7,61.3z"/>
<path fill="#60B967" d="M1411.7,103c0.6,0,1.1-0.5,1.1-1.1c0-0.6-0.5-1.1-1.1-1.1c-0.6,0-1.1,0.5-1.1,1.1
	C1410.5,102.5,1411,103,1411.7,103z"/>
<path fill="#60B967" d="M440.4,312.5c0.6,0,1.1-0.5,1.1-1.1c0-0.6-0.5-1.1-1.1-1.1c-0.6,0-1.1,0.5-1.1,1.1
	C439.3,312,439.8,312.5,440.4,312.5z"/>
<path fill="#60B967" d="M862.7,103c0.6,0,1.1-0.5,1.1-1.1c0-0.6-0.5-1.1-1.1-1.1c-0.6,0-1.1,0.5-1.1,1.1
	C861.5,102.5,862.1,103,862.7,103z"/>
<path fill="#60B967" d="M760,483c0.6,0,1.1-0.5,1.1-1.1s-0.5-1.1-1.1-1.1c-0.6,0-1.1,0.5-1.1,1.1S759.4,483,760,483z"/>
<path fill="#60B967" d="M809.2,507.3c0.6,0,1.1-0.5,1.1-1.1c0-0.6-0.5-1.1-1.1-1.1s-1.1,0.5-1.1,1.1
	C808.1,506.8,808.6,507.3,809.2,507.3z"/>
<path fill="#60B967" d="M497.8,488.6c0.6,0,1.1-0.5,1.1-1.1c0-0.6-0.5-1.1-1.1-1.1c-0.6,0-1.1,0.5-1.1,1.1
	C496.7,488.1,497.2,488.6,497.8,488.6z"/>
<path fill="#60B967" d="M337.2,273.6c0.6,0,1.1-0.5,1.1-1.1c0-0.6-0.5-1.1-1.1-1.1c-0.6,0-1.1,0.5-1.1,1.1
	C336,273.1,336.5,273.6,337.2,273.6z"/>
<path fill="#60B967" d="M465.3,276.1c0.6,0,1.1-0.5,1.1-1.1c0-0.6-0.5-1.1-1.1-1.1s-1.1,0.5-1.1,1.1
	C464.2,275.6,464.7,276.1,465.3,276.1z"/>
<path fill="#60B967" d="M366.3,508.4c0.6,0,1.1-0.5,1.1-1.1c0-0.6-0.5-1.1-1.1-1.1c-0.6,0-1.1,0.5-1.1,1.1
	C365.2,507.9,365.7,508.4,366.3,508.4z"/>
<path fill="#60B967" d="M877.7,261.3c0.6,0,1.1-0.5,1.1-1.1c0-0.6-0.5-1.1-1.1-1.1s-1.1,0.5-1.1,1.1
	C876.5,260.8,877,261.3,877.7,261.3z"/>
<path fill="#60B967" d="M1311.5,96.3c0.6,0,1.1-0.5,1.1-1.1c0-0.6-0.5-1.1-1.1-1.1c-0.6,0-1.1,0.5-1.1,1.1
	C1310.4,95.7,1310.9,96.3,1311.5,96.3z"/>
<path fill="#60B967" d="M1753.1,114.3c0.6,0,1.1-0.5,1.1-1.1c0-0.6-0.5-1.1-1.1-1.1c-0.6,0-1.1,0.5-1.1,1.1
	C1751.9,113.8,1752.4,114.3,1753.1,114.3z"/>
<path fill="#60B967" d="M1312.7,223c0.6,0,1.1-0.5,1.1-1.1c0-0.6-0.5-1.1-1.1-1.1c-0.6,0-1.1,0.5-1.1,1.1
	C1311.5,222.5,1312,223,1312.7,223z"/>
<path fill="#60B967" d="M1459.2,261.4c0.6,0,1.1-0.5,1.1-1.1c0-0.6-0.5-1.1-1.1-1.1s-1.1,0.5-1.1,1.1
	C1458.1,260.9,1458.6,261.4,1459.2,261.4z"/>
<path fill="#60B967" d="M1844.2,314.9c0.6,0,1.1-0.5,1.1-1.1c0-0.6-0.5-1.1-1.1-1.1c-0.6,0-1.1,0.5-1.1,1.1
	C1843.1,314.4,1843.6,314.9,1844.2,314.9z"/>
<path fill="#60B967" d="M944.5,70.9c0.6,0,1.1-0.5,1.1-1.1c0-0.6-0.5-1.1-1.1-1.1s-1.1,0.5-1.1,1.1
	C943.3,70.4,943.8,70.9,944.5,70.9z"/>
<path fill="#60B967" d="M1182.4,200.9c0.6,0,1.1-0.5,1.1-1.1c0-0.6-0.5-1.1-1.1-1.1c-0.6,0-1.1,0.5-1.1,1.1
	C1181.3,200.4,1181.8,200.9,1182.4,200.9z"/>
<path fill="#60B967" d="M1085.6,122c0.6,0,1.1-0.5,1.1-1.1c0-0.6-0.5-1.1-1.1-1.1c-0.6,0-1.1,0.5-1.1,1.1
	C1084.5,121.5,1085,122,1085.6,122z"/>
<path fill="#60B967" d="M985.5,115.2c0.6,0,1.1-0.5,1.1-1.1c0-0.6-0.5-1.1-1.1-1.1s-1.1,0.5-1.1,1.1
	C984.3,114.7,984.8,115.2,985.5,115.2z"/>
<path fill="#60B967" d="M1024.7,204c0.6,0,1.1-0.5,1.1-1.1c0-0.6-0.5-1.1-1.1-1.1c-0.6,0-1.1,0.5-1.1,1.1
	C1023.5,203.5,1024,204,1024.7,204z"/>
<path fill="#60B967" d="M1133.1,280.4c0.6,0,1.1-0.5,1.1-1.1c0-0.6-0.5-1.1-1.1-1.1c-0.6,0-1.1,0.5-1.1,1.1
	C1132,279.9,1132.5,280.4,1133.1,280.4z"/>
<path fill="#60B967" d="M1178.2,378.7c0.6,0,1.1-0.5,1.1-1.1c0-0.6-0.5-1.1-1.1-1.1c-0.6,0-1.1,0.5-1.1,1.1
	C1177.1,378.2,1177.6,378.7,1178.2,378.7z"/>
<path fill="#60B967" d="M639.4,147.3c0.6,0,1.1-0.5,1.1-1.1c0-0.6-0.5-1.1-1.1-1.1c-0.6,0-1.1,0.5-1.1,1.1
	C638.2,146.8,638.8,147.3,639.4,147.3z"/>
<path fill="#60B967" d="M721.2,115.2c0.6,0,1.1-0.5,1.1-1.1c0-0.6-0.5-1.1-1.1-1.1c-0.6,0-1.1,0.5-1.1,1.1
	C720,114.7,720.5,115.2,721.2,115.2z"/>
<path fill="#60B967" d="M762.2,159.6c0.6,0,1.1-0.5,1.1-1.1c0-0.6-0.5-1.1-1.1-1.1c-0.6,0-1.1,0.5-1.1,1.1
	C761,159.1,761.6,159.6,762.2,159.6z"/>
<path fill="#60B967" d="M310.6,339.6c0.6,0,1.1-0.5,1.1-1.1c0-0.6-0.5-1.1-1.1-1.1c-0.6,0-1.1,0.5-1.1,1.1
	C309.4,339.1,309.9,339.6,310.6,339.6z"/>
<path fill="#60B967" d="M179,359.3c0.6,0,1.1-0.5,1.1-1.1c0-0.6-0.5-1.1-1.1-1.1c-0.6,0-1.1,0.5-1.1,1.1
	C177.9,358.8,178.4,359.3,179,359.3z"/>
<path fill="#60B967" d="M75.8,320.4c0.6,0,1.1-0.5,1.1-1.1c0-0.6-0.5-1.1-1.1-1.1c-0.6,0-1.1,0.5-1.1,1.1
	C74.7,319.9,75.2,320.4,75.8,320.4z"/>
<path fill="#60B967" d="M203.9,322.9c0.6,0,1.1-0.5,1.1-1.1c0-0.6-0.5-1.1-1.1-1.1s-1.1,0.5-1.1,1.1
	C202.8,322.4,203.3,322.9,203.9,322.9z"/>
<path fill-rule="evenodd" clip-rule="evenodd" fill="#60B967" d="M883.9,210.9c0,0-25.2-23-46.4-30.7c-21.2-7.7-33.7,4.7-33.7,4.7
	s-21.3-27.3-36.9-30.3l35.4,41.2L883.9,210.9z"/>
<linearGradient id="SVGID_00000080916780920905376720000001674666624633985446_" gradientUnits="userSpaceOnUse" x1="623.86" y1="519.072" x2="623.86" y2="618.434" gradientTransform="matrix(1 0 0 -1 0 734)">
	<stop  offset="0" style="stop-color:#010001"/>
	<stop  offset="1" style="stop-color:#154719"/>
</linearGradient>
<path fill-rule="evenodd" clip-rule="evenodd" fill="url(#SVGID_00000080916780920905376720000001674666624633985446_)" d="
	M517.9,214.9l145.9-2.8l65.9-1.3c0,0-10.3-15.3-26.4-33.6c-13-14.8-30-31.6-48.5-43.9c-13.9-9.2-28.7-16-43.4-17.5
	c-24.2-2.6-48.8,24.9-66.7,51.7C528.6,191.5,517.9,214.9,517.9,214.9z"/>
<linearGradient id="SVGID_00000056417130196831014280000001773027538680989617_" gradientUnits="userSpaceOnUse" x1="610.655" y1="519.072" x2="610.655" y2="600.642" gradientTransform="matrix(1 0 0 -1 0 734)">
	<stop  offset="0" style="stop-color:#FFFFFF;stop-opacity:0"/>
	<stop  offset="1" style="stop-color:#FFFFFF"/>
</linearGradient>
<path opacity="0.2" fill-rule="evenodd" clip-rule="evenodd" fill="url(#SVGID_00000056417130196831014280000001773027538680989617_)" enable-background="new    " d="
	M517.9,214.9l145.9-2.8l38.1-2.6l1.4-32.3c-13-14.8-30-31.6-48.5-43.9c0.3,0.7,5.8,22.1-6.4,32.6c-12.3,10.6-72.7,28-95.5,20.9
	c-10.7-3.3-8.4-18.8-8.3-19.4C528.6,191.5,517.9,214.9,517.9,214.9z"/>
<linearGradient id="SVGID_00000164511496975968390710000018225837702355565757_" gradientUnits="userSpaceOnUse" x1="726.6105" y1="526.279" x2="726.6105" y2="579.6906" gradientTransform="matrix(1 0 0 -1 0 734)">
	<stop  offset="0" style="stop-color:#010001"/>
	<stop  offset="1" style="stop-color:#154719"/>
</linearGradient>
<path fill-rule="evenodd" clip-rule="evenodd" fill="url(#SVGID_00000164511496975968390710000018225837702355565757_)" d="
	M634.7,207.7c0,0,11.9-44.1,51.2-47.5c39.2-3.4,63.8,27,63.8,27s1.7-35.2,17.3-32.8c15.6,2.4,51.5,51.1,51.5,51.1L634.7,207.7z"/>
<linearGradient id="SVGID_00000140014512658318160510000015782675719183100058_" gradientUnits="userSpaceOnUse" x1="759.9115" y1="514.899" x2="759.9115" y2="533.7502" gradientTransform="matrix(1 0 0 -1 0 734)">
	<stop  offset="0" style="stop-color:#010001"/>
	<stop  offset="1" style="stop-color:#154719"/>
</linearGradient>
<path fill-rule="evenodd" clip-rule="evenodd" fill="url(#SVGID_00000140014512658318160510000015782675719183100058_)" d="
	M748.2,219.1c0,0,0.8-15.4,7.7-18.5c6.9-3.1,15.7,15.3,15.7,15.3L748.2,219.1z"/>
<linearGradient id="SVGID_00000098218695042364666980000013651950916242305459_" gradientUnits="userSpaceOnUse" x1="731.314" y1="523.149" x2="731.314" y2="612.9775" gradientTransform="matrix(1 0 0 -1 0 734)">
	<stop  offset="0" style="stop-color:#010001"/>
	<stop  offset="1" style="stop-color:#154719"/>
</linearGradient>
<path fill-rule="evenodd" clip-rule="evenodd" fill="url(#SVGID_00000098218695042364666980000013651950916242305459_)" d="
	M578.7,208.8l211.6,1.4l93.6,0.7c0,0-34.7-27.9-55.7-29.8c-19.5-1.8-30.8,10.9-30.8,10.9l-7.6,11.2l-5.8,0.3c0,0-4.8-27.9-17.6-51.4
	c-7.1-13.2-16.8-24.9-29.5-29.5c-24.1-8.7-46.9,21.4-61,45.8c-8.6,15.1-14,28-14,28s-0.1-0.1-0.4-0.4c-2-1.9-11.9-11.1-21.6-13.2
	C617.6,177.9,578.7,208.8,578.7,208.8z"/>
<linearGradient id="SVGID_00000175314051033396445070000007575930576354922381_" gradientUnits="userSpaceOnUse" x1="684.5235" y1="523.814" x2="684.5235" y2="581.888" gradientTransform="matrix(1 0 0 -1 0 734)">
	<stop  offset="0" style="stop-color:#FFFFFF;stop-opacity:0"/>
	<stop  offset="1" style="stop-color:#FFFFFF"/>
</linearGradient>
<path opacity="0.2" fill-rule="evenodd" clip-rule="evenodd" fill="url(#SVGID_00000175314051033396445070000007575930576354922381_)" enable-background="new    " d="
	M578.7,208.8l211.6,1.4l-0.5-7l-5.8,0.3c0,0-4.8-27.9-17.6-51.4c0.2,0.6,7.7,24.2,0.4,27.5c-7.4,3.3-82.6,13.1-88.6,8.5
	c-6-4.5-2.3-19.3-2.2-19.8c-8.6,15.1-14,28-14,28s-0.1-0.1-0.4-0.4c-0.6,0.6-1.3,1-2.4,1.4C649.2,201.2,578.7,208.8,578.7,208.8z"/>
<linearGradient id="SVGID_00000068664955520605970260000014431284307431470471_" gradientUnits="userSpaceOnUse" x1="718.1535" y1="536.521" x2="718.1535" y2="575.4544" gradientTransform="matrix(1 0 0 -1 0 734)">
	<stop  offset="0" style="stop-color:#010001"/>
	<stop  offset="1" style="stop-color:#154719"/>
</linearGradient>
<path fill-rule="evenodd" clip-rule="evenodd" fill="url(#SVGID_00000068664955520605970260000014431284307431470471_)" d="
	M750.5,197.4c0,0-8.4-34-25.6-38.5c-17.2-4.6-39.1,38.6-39.1,38.6S730.7,193.6,750.5,197.4z"/>
<linearGradient id="SVGID_00000043423758053042866990000008561572642126886809_" gradientUnits="userSpaceOnUse" x1="700.912" y1="532.863" x2="700.912" y2="487.046" gradientTransform="matrix(1 0 0 -1 0 734)">
	<stop  offset="0" style="stop-color:#010001"/>
	<stop  offset="1" style="stop-color:#154719"/>
</linearGradient>
<path fill-rule="evenodd" clip-rule="evenodd" fill="url(#SVGID_00000043423758053042866990000008561572642126886809_)" d="
	M517.9,214.9l118.1-3l-57.2-3.1c0,0,70.2-7.2,135.7-8.2h-6.8l-21.9-3c27.8-4.4,64.7,0,64.7,0l-10.5,2.9h-0.2
	c4.6,0.1,9.1,0.1,13.5,0.3c72.7,2.3,130.6,10.1,130.6,10.1s-98.6,8.1-135.7,8.3l8.8-3C757.1,216.1,595.4,216.7,517.9,214.9z"/>
<path fill-rule="evenodd" clip-rule="evenodd" fill="#60B967" d="M551.8,191.5c0,0-33.4-25.3-60.7,0H551.8z"/>
<linearGradient id="SVGID_00000040550779904021706640000015224103367462379199_" gradientUnits="userSpaceOnUse" x1="521.5335" y1="542.429" x2="521.5335" y2="547.4641" gradientTransform="matrix(1 0 0 -1 0 734)">
	<stop  offset="0" style="stop-color:#010001"/>
	<stop  offset="1" style="stop-color:#154719"/>
</linearGradient>
<path fill-rule="evenodd" clip-rule="evenodd" fill="url(#SVGID_00000040550779904021706640000015224103367462379199_)" d="
	M490.8,191.6c0,0,12.6-11.3,61.5,0H490.8z"/>
<linearGradient id="SVGID_00000160184753660706466070000007649355944236270268_" gradientUnits="userSpaceOnUse" x1="1395.7426" y1="224.1596" x2="1401.355" y2="418.8738" gradientTransform="matrix(1 0 0 -1 0 734)">
	<stop  offset="0" style="stop-color:#010001"/>
	<stop  offset="1" style="stop-color:#154719"/>
</linearGradient>
<path fill="url(#SVGID_00000160184753660706466070000007649355944236270268_)" d="M1281.2,311.7c-264.2-7.2-407.5,157.9-407.5,157.9
	l-1.7,25.2l1048,12.3v-46C1758.6,404.5,1479,317.1,1281.2,311.7z"/>
<linearGradient id="SVGID_00000029014036438520905850000006078802362522094733_" gradientUnits="userSpaceOnUse" x1="1374.7969" y1="302.0829" x2="1377.6482" y2="406.3521" gradientTransform="matrix(1 0 0 -1 0 734)">
	<stop  offset="0" style="stop-color:#010001"/>
	<stop  offset="1" style="stop-color:#154719"/>
</linearGradient>
<path fill-rule="evenodd" clip-rule="evenodd" fill="url(#SVGID_00000029014036438520905850000006078802362522094733_)" d="
	M1604,414.5c0,0-99.1-53.1-156.9-73.9c0,0-178.1-29.7-298.2-8.2c0,0,78,29.3,132.5,96.9L1604,414.5z"/>
<linearGradient id="SVGID_00000147922055016322771590000015813450034702831021_" gradientUnits="userSpaceOnUse" x1="1132.9197" y1="294.5487" x2="1135.7209" y2="406.1335" gradientTransform="matrix(1 0 0 -1 0 734)">
	<stop  offset="0" style="stop-color:#010001"/>
	<stop  offset="1" style="stop-color:#154719"/>
</linearGradient>
<path fill-rule="evenodd" clip-rule="evenodd" fill="url(#SVGID_00000147922055016322771590000015813450034702831021_)" d="
	M1260.8,426.7c0,0-68.3-76.7-134.9-99c0,0-75.3,16.2-118.7,36.6c0,0,43.3,31.6,75.3,74L1260.8,426.7z"/>
<path fill-rule="evenodd" clip-rule="evenodd" fill="#020101" d="M1207.7,327.1c0,0-6.9-23.1-13.8-28.1c-6.9-5-29.6,27.1-29.6,27.1
	s-3.5-4.8-9.6-2.4c-6.1,2.3-13.3,11.2-13.3,11.2S1184.8,328.9,1207.7,327.1z"/>
<path fill-rule="evenodd" clip-rule="evenodd" fill="#020101" d="M1280,332c0,0,18.6-45.3,25.3-45.2c9.1,0.1,4.3,47.3,4.3,47.3
	L1280,332z"/>
<path fill-rule="evenodd" clip-rule="evenodd" fill="#020101" d="M1053.1,346c0,0-3.2-30.8-9.7-32.4c-6.5-1.6-7.2,37.4-7.2,37.4
	L1053.1,346z"/>
<linearGradient id="SVGID_00000050638884923655238880000000536110870343101617_" gradientUnits="userSpaceOnUse" x1="1271.089" y1="314.8528" x2="1273.54" y2="410.7532" gradientTransform="matrix(1 0 0 -1 0 734)">
	<stop  offset="0" style="stop-color:#010001"/>
	<stop  offset="1" style="stop-color:#154719"/>
</linearGradient>
<path fill-rule="evenodd" clip-rule="evenodd" fill="url(#SVGID_00000050638884923655238880000000536110870343101617_)" d="
	M1392.8,414.8c0,0-65.8-71-136.3-91.9c0,0-62.6,1.3-104.7,9.9c0,0,62.6,17.1,128.4,86.7L1392.8,414.8z"/>
<path opacity="0.2" fill-rule="evenodd" clip-rule="evenodd" enable-background="new    " d="M1245.2,406.2l-169.5,22.3l-11.1-13.8
	l161.1-27.9L1245.2,406.2z"/>
<path opacity="0.2" fill-rule="evenodd" clip-rule="evenodd" enable-background="new    " d="M1201.3,370.7l-155.5,28.6l-8.7-8.6
	l147.6-33.2L1201.3,370.7z"/>
<path opacity="0.2" fill-rule="evenodd" clip-rule="evenodd" enable-background="new    " d="M1155,341.3l-134.9,36.3l-11.2-9.4
	L1141,334L1155,341.3z"/>
<linearGradient id="SVGID_00000144309211849053113800000014157254718317049992_" gradientUnits="userSpaceOnUse" x1="668" y1="234.909" x2="668" y2="530.371" gradientTransform="matrix(1 0 0 -1 0 734)">
	<stop  offset="0" style="stop-color:#010001"/>
	<stop  offset="1" style="stop-color:#154719"/>
</linearGradient>
<path fill="url(#SVGID_00000144309211849053113800000014157254718317049992_)" d="M1336,499.1C632.5,315.1,221.4,236.9,0,203.6
	v277.2L1336,499.1z"/>
<linearGradient id="SVGID_00000114063096571078612470000001319411051311598477_" gradientUnits="userSpaceOnUse" x1="194.0585" y1="407.96" x2="194.0585" y2="529.335" gradientTransform="matrix(1 0 0 -1 0 734)">
	<stop  offset="0" style="stop-color:#010001"/>
	<stop  offset="1" style="stop-color:#154719"/>
</linearGradient>
<path fill="url(#SVGID_00000114063096571078612470000001319411051311598477_)" d="M305,257.8c44.3,23.1,83.2,68.3,83.2,68.3L0,311.3
	V204.7c7,0.9,13.3,1.7,18.6,2.5C88.9,216.9,305,257.8,305,257.8z"/>
<linearGradient id="SVGID_00000095308617260479217510000001032906353040267453_" gradientUnits="userSpaceOnUse" x1="636.6315" y1="324.955" x2="636.6315" y2="457.905" gradientTransform="matrix(1 0 0 -1 0 734)">
	<stop  offset="0" style="stop-color:#010001"/>
	<stop  offset="1" style="stop-color:#154719"/>
</linearGradient>
<path fill-rule="evenodd" clip-rule="evenodd" fill="url(#SVGID_00000095308617260479217510000001032906353040267453_)" d="
	M396.7,276.1c0,0,140.6,49.9,211.8,129.6l268.1,3.3c0,0-86.5-47.8-189.4-70.2L396.7,276.1z"/>
<path opacity="0.5" fill-rule="evenodd" clip-rule="evenodd" fill="#010101" enable-background="new    " d="M0.5,204.5
	c0,0,76.2,55.9,108.6,110.8l61.5,2.4c0,0-43.4-59.7-100.3-103L0.5,204.5z"/>
<path opacity="0.5" fill-rule="evenodd" clip-rule="evenodd" fill="#010101" enable-background="new    " d="M133.2,225
	c0,0,82.2,36.2,121,95.8l78.4,3.1c0,0-35.3-52.8-64.6-74.9L133.2,225z"/>
<path opacity="0.5" fill-rule="evenodd" clip-rule="evenodd" fill="#010101" enable-background="new    " d="M503.7,326l260.9,34.2
	l23.1,8.8l-268.3-33.8L503.7,326z"/>
<path opacity="0.5" fill-rule="evenodd" clip-rule="evenodd" fill="#010101" enable-background="new    " d="M545.6,352l264.2,24.7
	l13.8,7.1l-256.4-15.9L545.6,352z"/>
<path opacity="0.5" fill-rule="evenodd" clip-rule="evenodd" fill="#010101" enable-background="new    " d="M599.2,396h254.5
	l22.9,13.3l-270.9-6.7L599.2,396z"/>
<linearGradient id="SVGID_00000156568230217333538680000001587386990981693607_" gradientUnits="userSpaceOnUse" x1="458.7655" y1="330.188" x2="458.7655" y2="472.889" gradientTransform="matrix(1 0 0 -1 0 734)">
	<stop  offset="0" style="stop-color:#010001"/>
	<stop  offset="1" style="stop-color:#154719"/>
</linearGradient>
<path fill-rule="evenodd" clip-rule="evenodd" fill="url(#SVGID_00000156568230217333538680000001587386990981693607_)" d="
	M322.8,261.1c0,0,99.1,41.4,163,140.1l108.9,2.6c0,0-97-91.1-212.1-130.6L322.8,261.1z"/>
<linearGradient id="SVGID_00000001643562654244992670000006426459163906942375_" gradientUnits="userSpaceOnUse" x1="194" y1="422.568" x2="194" y2="407.928" gradientTransform="matrix(1 0 0 -1 0 734)">
	<stop  offset="0" style="stop-color:#FFFFFF"/>
	<stop  offset="1" style="stop-color:#FFFFFF;stop-opacity:0"/>
</linearGradient>
<path opacity="0.4" fill="url(#SVGID_00000001643562654244992670000006426459163906942375_)" enable-background="new    " d="
	M129.6,319.9h-6.9L0,313.3v-1.9l388,14.6L129.6,319.9z"/>
<linearGradient id="SVGID_00000124845731034710350300000013494083107356789439_" gradientUnits="userSpaceOnUse" x1="394.314" y1="417.4119" x2="394.314" y2="475.743" gradientTransform="matrix(1 0 0 -1 0 734)">
	<stop  offset="0" style="stop-color:#010001"/>
	<stop  offset="1" style="stop-color:#154719"/>
</linearGradient>
<path opacity="0.2" fill-rule="evenodd" clip-rule="evenodd" fill="url(#SVGID_00000124845731034710350300000013494083107356789439_)" enable-background="new    " d="
	M224.2,258.3c0,0,91,37.8,207.1,48.8c116,10.9,133.2,9.5,133.2,9.5S370.5,258.7,224.2,258.3z"/>
<linearGradient id="SVGID_00000006683492129763588570000011167289934403602105_" gradientUnits="userSpaceOnUse" x1="960" y1="2.001" x2="960" y2="321.4186" gradientTransform="matrix(1 0 0 -1 0 734)">
	<stop  offset="0" style="stop-color:#010001"/>
	<stop  offset="1" style="stop-color:#154719"/>
</linearGradient>
<path fill="url(#SVGID_00000006683492129763588570000011167289934403602105_)" d="M944.4,414.1C503.7,406.8,190.3,427.3,0,446.8V732
	h1920V474.8C1715.7,450.6,1386,421.5,944.4,414.1z"/>
<linearGradient id="SVGID_00000016770605991786003790000001531086518377860251_" gradientUnits="userSpaceOnUse" x1="396" y1="272.175" x2="396" y2="336.059" gradientTransform="matrix(1 0 0 -1 0 734)">
	<stop  offset="0" style="stop-color:#010001"/>
	<stop  offset="1" style="stop-color:#154719"/>
</linearGradient>
<path fill="url(#SVGID_00000016770605991786003790000001531086518377860251_)" d="M792,407.3L0,397.9v63.9L792,407.3z"/>
<linearGradient id="SVGID_00000048502554257061230680000014953602915144086186_" gradientUnits="userSpaceOnUse" x1="1035.2535" y1="130.643" x2="1035.2535" y2="324.7961" gradientTransform="matrix(1 0 0 -1 0 734)">
	<stop  offset="0" style="stop-color:#010001"/>
	<stop  offset="1" style="stop-color:#154719"/>
</linearGradient>
<path fill-rule="evenodd" clip-rule="evenodd" fill="url(#SVGID_00000048502554257061230680000014953602915144086186_)" d="
	M279.2,429.5c0,0,352.6,58.5,601.9,173.9l910.2-66.6c0,0-262.8-71.1-490.4-107.3C1301.2,429.5,696.9,383.8,279.2,429.5z"/>
<path fill-rule="evenodd" clip-rule="evenodd" fill="#60B967" d="M1301.2,429.5l256.4,38.8l233.7,68.5
	C1791.3,536.8,1504.2,460.2,1301.2,429.5z"/>
<linearGradient id="SVGID_00000023257688712479715440000005668477825356678289_" gradientUnits="userSpaceOnUse" x1="449.8287" y1="74.277" x2="449.8287" y2="304.501" gradientTransform="matrix(1 0 0 -1 0 734)">
	<stop  offset="0" style="stop-color:#010001"/>
	<stop  offset="1" style="stop-color:#154719"/>
</linearGradient>
<path fill-rule="evenodd" clip-rule="evenodd" fill="url(#SVGID_00000023257688712479715440000005668477825356678289_)" d="
	M849.4,622.1c0,0-432.2-162.2-628.3-192.6L50.3,440.4c0,0,168.9,58.3,448.2,219.3L849.4,622.1z"/>
<linearGradient id="SVGID_00000065053271823066213750000001611855643681386889_" gradientUnits="userSpaceOnUse" x1="1645.335" y1="197.644" x2="1645.335" y2="308.11" gradientTransform="matrix(1 0 0 -1 0 734)">
	<stop  offset="0" style="stop-color:#010001"/>
	<stop  offset="1" style="stop-color:#154719"/>
</linearGradient>
<path fill="url(#SVGID_00000065053271823066213750000001611855643681386889_)" d="M1370.7,425.9c223.2,31.9,513.9,110.5,513.9,110.5
	l35.4-1.4v-61.7C1721.7,445.6,1370.7,425.9,1370.7,425.9z"/>
<linearGradient id="SVGID_00000060716493862907581300000001655772903010282164_" gradientUnits="userSpaceOnUse" x1="235.3335" y1="55.237" x2="235.3335" y2="309.44" gradientTransform="matrix(1 0 0 -1 0 734)">
	<stop  offset="0" style="stop-color:#010001"/>
	<stop  offset="1" style="stop-color:#154719"/>
</linearGradient>
<path fill="url(#SVGID_00000060716493862907581300000001655772903010282164_)" d="M470.7,602.7l-17,26c-119.8,5-306.6,29-453.7,50.1
	V428l41.5-3.4C297.7,455.5,470.7,602.7,470.7,602.7z"/>
<g opacity="0.3">
	<path d="M1370.7,425.9l52.9,4c181.2,15.4,438.4,85.2,495.9,101.3v3.8l-35.5,1.4C1677.7,462,1370.7,425.9,1370.7,425.9z"/>
	<path d="M1577.7,439.1l52.9,4.7c125.9,17.9,223.7,40.1,289.5,57.7v16.3C1766.2,465.4,1577.7,439.1,1577.7,439.1z"/>
	<path d="M1920,475.7c-88.1-14.6-153-19.9-153-19.9c58.8,7.8,109.8,16.7,153,25.6V475.7z"/>
</g>
<path opacity="0.5" fill-rule="evenodd" clip-rule="evenodd" fill="#0D011F" enable-background="new    " d="M242.3,647.8l7.1-18.1
	l16-2.1l-7.6,18.3L242.3,647.8z"/>
<linearGradient id="SVGID_00000024683196627184749710000006736742860005437102_" gradientUnits="userSpaceOnUse" x1="752.6695" y1="130.881" x2="752.6695" y2="326.1443" gradientTransform="matrix(1 0 0 -1 0 734)">
	<stop  offset="0" style="stop-color:#010001"/>
	<stop  offset="1" style="stop-color:#154719"/>
</linearGradient>
<path fill-rule="evenodd" clip-rule="evenodd" fill="url(#SVGID_00000024683196627184749710000006736742860005437102_)" d="
	M1226.1,569.1c0,0-274-130.1-602.6-159.1c0,0-169.6-9.8-344.3,12.4v6.9c0,0,351,56.8,601.9,173.9l341.2-20.2L1226.1,569.1z"/>
<path fill-rule="evenodd" clip-rule="evenodd" fill="#60B967" d="M279.2,422.4c0,0,356.5,58.3,610.9,168.4l335.7-21.6l-3.6,14
	l-341.2,20.2c0,0-294.7-126.3-601.9-173.9V422.4z"/>
<path opacity="0.2" fill-rule="evenodd" clip-rule="evenodd" enable-background="new    " d="M790.1,551.7l289.5-42.1l111.3,44
	l-320,29L790.1,551.7z"/>
<path opacity="0.2" fill-rule="evenodd" clip-rule="evenodd" enable-background="new    " d="M580.9,488l300-35.2l89.8,23.8
	l-323.3,29.7L580.9,488z"/>
<path opacity="0.2" fill-rule="evenodd" clip-rule="evenodd" enable-background="new    " d="M438.6,453.8l329.8-24.3l46,8.6
	L482,463.7L438.6,453.8z"/>
<path opacity="0.2" fill-rule="evenodd" clip-rule="evenodd" enable-background="new    " d="M318.3,429.5l336.9-16.2l30.5,3.6
	l-328.8,20L318.3,429.5z"/>
<g opacity="0.2">
	<path d="M341.3,520.5c-14.6-8.3-59.5-29.1-59.5-29.1L0,549.6v52L341.3,520.5z"/>
	<path d="M144.3,444.5l24.5,6L0,477.2v-15.9L144.3,444.5z"/>
</g>
<path fill="#60B967" d="M733.3,407.3L0,388.6v9.7L733.3,407.3z"/>
<path opacity="0.1" fill-rule="evenodd" clip-rule="evenodd" fill="#FFFFFF" enable-background="new    " d="M221.1,429.5
	l628.3,192.6C849.4,622.1,473.9,476.4,221.1,429.5z"/>
<linearGradient id="SVGID_00000087403114126342327710000017654686613159307923_" gradientUnits="userSpaceOnUse" x1="1456.75" y1="167.984" x2="1456.75" y2="314.967" gradientTransform="matrix(1 0 0 -1 0 734)">
	<stop  offset="0" style="stop-color:#010001"/>
	<stop  offset="1" style="stop-color:#154719"/>
</linearGradient>
<path fill-rule="evenodd" clip-rule="evenodd" fill="url(#SVGID_00000087403114126342327710000017654686613159307923_)" d="
	M1122.2,419l248.3,147l420.8-29.3c0,0-348.3-93.5-490.4-107.3L1122.2,419z"/>
<path fill-rule="evenodd" clip-rule="evenodd" fill="#020101" d="M1246.4,419.5c0,0,12.6-69,24.5-74.4c12.2-5.5,22.2,75.9,22.2,75.9
	L1246.4,419.5z"/>
<path fill-rule="evenodd" clip-rule="evenodd" fill="#020101" d="M297.9,401.9c0,0,12.5-25.7,27.3-30.9c15-5.2,21.7,31.9,21.7,31.9
	L297.9,401.9z"/>
<path fill-rule="evenodd" clip-rule="evenodd" fill="#60B967" d="M929,411.4c0,0,234.7,59.9,371.9,161l16.2-1.2
	c0,0-147.7-103.2-352.2-159.4L929,411.4z"/>
<path opacity="0.2" fill-rule="evenodd" clip-rule="evenodd" enable-background="new    " d="M1281.2,513h429.1l81,23.8l-420.8,29
	L1281.2,513z"/>
<path opacity="0.2" fill-rule="evenodd" clip-rule="evenodd" enable-background="new    " d="M1235.9,486.1l290-13.6l-67.2-14.5
	L1206.8,469L1235.9,486.1z"/>
<path opacity="0.2" fill-rule="evenodd" clip-rule="evenodd" enable-background="new    " d="M1168.9,446.6l214.7-3.1l-42.9-6.9
	H1152L1168.9,446.6z"/>
<path fill-rule="evenodd" clip-rule="evenodd" fill="#020101" d="M117,401.3c0,0,3.3-31.3,12.6-30.3c9.3,1,11.2,26.7,11.2,26.7
	s10.4-10.2,22.8-9.5c12.3,0.7,16.8,13.1,16.8,13.1s23.5-64.1,48.6-65.3c25.2-1.2,33,65.3,33,65.3H117z"/>
<path fill-rule="evenodd" clip-rule="evenodd" fill="#60B967" d="M1791.4,537l-311.2,17.5l-240.5,22.2L1791.4,537z"/>
<path opacity="0.5" fill-rule="evenodd" clip-rule="evenodd" fill="#111114" enable-background="new    " d="M632.6,410.9l-37.9-2.1
	c0,0,194.4,56.4,479.9,72.3c309,17.4,410.8-17.4,410.8-17.4s-79.8-12.4-134.6-19.7l206.8-6.4C1557.5,437.6,960.9,395,632.6,410.9z"
	/>
<path opacity="0.5" fill="#010101" enable-background="new    " d="M1902.1,451.9c11.9,5.5,17.9,12.2,17.9,12.2v254.8L888.7,680.1
	L1143,728H0V203.6c6.7,1,13.5,2,20.5,3c9,1.2,20.7,3,34.1,5.1l17.6,2.5c0,0.2,0.2,0.2,0.5,0.5c3.1,0.5,6.2,1.2,9.5,1.6
	c17.6,2.8,36.2,6,55.7,9.2c-1.9-0.9-3.1-1.4-3.1-1.4l134.8,23l2.9,2.1c11,1.8,22.1,4.1,33.6,6.2h0.5l17.9,3.5h0.5
	c19,3.5,38.6,7.4,58.6,11.3l1,0.2h0c4.5,0.9,9,1.8,13.8,2.8c85.7,17.1,182.2,37.3,290,61.1h0.2c3.8,0.9,7.4,1.6,11.2,2.5
	c8.8,2.1,17.9,3.9,26.9,6l2.6,0.7l0,0c10.2,2.3,20.5,4.6,30.9,6.9l1.9,0.5c0,0,71,12,137.9,27c0,0,23.1-56.2,45.2-57.9
	c22.1-1.4,22.6,27,22.6,27s4.8-44.7,17.4-48.4c11.9-3.5,28.8,95.2,30.5,105.3c50,1.4,99.8,3.2,147.6,5.1c28.6,0.9,56.4,2.1,83.8,3.2
	c1-4.6,12.9-66.6,24.5-71.7c11.9-5.3,22.2,73.5,22.2,73.5l-21.9-0.7c34.1,1.4,67.2,3,99.3,4.8h1.2c57.6,3,112.2,6.5,163.6,10.1
	c14.3,0.9,22.2,1.4,22.2,1.4h-1.2l27.9,2.1c-4.3-0.7-6.7-0.9-6.7-0.9l52.9,4.6c44.5,3.5,91.2,7.4,136.4,11.8c0,0,13.3,0.9,35.9,3.5
	c19.9,2.1,39.4,4.1,58.2,6.2C1862.9,456.4,1890.8,446.5,1902.1,451.9z"/>
<linearGradient id="SVGID_00000016779499312723509720000005143086146955911811_" gradientUnits="userSpaceOnUse" x1="1585.1333" y1="477.513" x2="1585.1333" y2="544.132" gradientTransform="matrix(1 0 0 -1 0 734)">
	<stop  offset="0" style="stop-color:#010001"/>
	<stop  offset="1" style="stop-color:#154719"/>
</linearGradient>
<path fill-rule="evenodd" clip-rule="evenodd" fill="url(#SVGID_00000016779499312723509720000005143086146955911811_)" d="
	M1714,256.5c0,0-9.3-19.4-17.3-21.1c-8.1-1.7-14.3,9.8-14.3,9.8s1.9-41.6-21.6-53.5c-23.3-12-79.2,40.8-79.2,40.8
	s-12.3-34.6-47.8-37c-35.5-2.5-58.8,54.6-58.8,54.6s-19.4-9.1-18.6,4.1L1714,256.5z"/>
<path fill-rule="evenodd" clip-rule="evenodd" d="M1456.5,254.1l257.5,2.4l-53.1-3.9l5.5-3.1l-93.7-4.7l14.2,5.2L1456.5,254.1z"/>
<linearGradient id="SVGID_00000067234805675072621110000000840005041289818759_" gradientUnits="userSpaceOnUse" x1="1619.5249" y1="484.597" x2="1619.5249" y2="560.6313" gradientTransform="matrix(1 0 0 -1 0 734)">
	<stop  offset="0" style="stop-color:#010001"/>
	<stop  offset="1" style="stop-color:#154719"/>
</linearGradient>
<path fill-rule="evenodd" clip-rule="evenodd" fill="url(#SVGID_00000067234805675072621110000000840005041289818759_)" d="
	M1572.7,244.7c0,0,15.3-66,53-71.1c30.9-4.2,40.7,75.9,40.7,75.9L1572.7,244.7z"/>
<path d="M897.8,582v-45.1l4.1-66.2l-18-18.2l-9-43.9l2.4-2.4l7.3,42.4l7.7-23.9l6.8-5.9l1.5,0.8l-6.5,5.1l-7.7,26l22,18l16.3-6.6
	l4.1-16.5l3.1-0.3l-3.1,16.9l9.4-3.1l11.6-19.4l-1.4-24.6l2.2-1.6l0.9,27.8l-10.4,20.6l-27.9,13l-1.9,71.3l10,36.5L897.8,582z"/>
<linearGradient id="SVGID_00000079480893998332539870000001447691676369238955_" gradientUnits="userSpaceOnUse" x1="914.9683" y1="271.634" x2="914.9683" y2="467.3" gradientTransform="matrix(1 0 0 -1 0 734)">
	<stop  offset="0" style="stop-color:#010001"/>
	<stop  offset="1" style="stop-color:#154719"/>
</linearGradient>
<path fill="url(#SVGID_00000079480893998332539870000001447691676369238955_)" d="M1017.3,425.4l-3.6-3.4L993.7,446l5.8,0.5
	c-17.5,9-44.8,13.3-44.8,13.3l0.3,2.6l-21.6-9.8l2.6,5c-10.9-3.2-20.9-11.1-28.3-18.2c-7.8-7.6-12.6-14.5-12.6-14.5l-0.3,13
	l-29.1-27l5.1,14.8l1.5-3.1l4.6,11.6c-18.2,3.1-56.3-21-56.3-21l-1.2,4l-0.5,2.1c0,0-24.7-63.6,1.7-92.9c6.5-7.1,12.8-13,18.7-17.7
	c18.4-14.5,32.7-18.3,32.7-18.3l2.6,5.3c9-10.3,22.6-22,22.6-22l-2.2,5.5l52.3-8l-6.6-4.5c38,10.1,67.9,46.3,69.8,48.5l0.2,0.2
	l3.4-2.9l7.7,62.2l-4.3-1.6C1026.5,391.7,1017.7,424,1017.3,425.4z"/>
<path d="M1017.3,425.4l-3.6-3.4l-31.8,16.4l-0.5-7.2l-27.9,17.2l1.9-9.8l-16.2,6.9L915,434.9l-7.2,4.7c-7.8-7.5-12.6-14.5-12.6-14.5
	l-0.3,13l-29.1-27l5.1,14.8l1.5-3.1l4.6,11.6c-18.2,3.1-56.3-21-56.3-21l-1.2,4l2.4-12.9l14.8,4.2l0.7-4.2l4.8,4.2l-0.7-29.6
	l3.2,6.1l40-16.2l-3.6,5l40.3,23.6l-2.6-4.5l51.4-4.5l-4.6-3.4l27.6-28.1l-6.8,17l3.2-1l3.7,8.2l9.2-33.9l-7.1-38.9l12.1,10.6
	l2.9-3.7l3.4-2.9l7.7,62.2l-4.3-1.6C1026.5,391.7,1017.7,424,1017.3,425.4z"/>
<linearGradient id="SVGID_00000155857660655840032990000010957735332368488095_" gradientUnits="userSpaceOnUse" x1="910.2669" y1="325.5571" x2="919.5779" y2="483.1771" gradientTransform="matrix(1 0 0 -1 0 734)">
	<stop  offset="0" style="stop-color:#010001"/>
	<stop  offset="1" style="stop-color:#154719"/>
</linearGradient>
<path fill="url(#SVGID_00000155857660655840032990000010957735332368488095_)" d="M1007.5,319.4l-12.1-10.6l3.6,15.1l-5.6-10.3
	l-39.7,2.2l-3.7,0.2l7.8,2.6L917.4,333l1.5-4.7l-41.2,37.1l6.8,3.5l-40,16.2l-3.2-6.1l0.7,29.6l-2.9-5.6v5.6l-17.4-4.2l-4.6-23.6
	l7.3,8.4l2.2-29.9l16.9-3.9l8.2-27.6l-6.6-0.3l9.7-17.2l-15.7,11.4l0.2-12.9c18.4-14.5,32.7-18.3,32.7-18.3l2.6,5.3
	c9-10.3,22.6-22,22.6-22l-2.2,5.5l52.3-8l-6.6-4.5c17.4,4.7,33.2,14.8,45.3,24.6c14.3,11.6,23.5,22.8,24.5,23.9l0.2,0.2
	L1007.5,319.4z"/>
<path opacity="0.1" fill="#60B967" enable-background="new    " d="M891.5,380.3l29.8,17.5l-2.6-4.5l51.4-4.5l-4.6-3.5l18-20.2
	l-22.6,8.2v-10.1l-40.5,17.3h17l-17,6.9L891.5,380.3z"/>
<path opacity="0.1" fill="#60B967" enable-background="new    " d="M961,355.5l19.1-26.7l-11.1,9l2.7-9.5l-14,13.7h6.5L961,355.5z"
	/>
<path opacity="0.2" fill="#60B967" enable-background="new    " d="M966.9,291.1l-8,10.3l3.6,1.3l-11.9,10.9l3.2,2.2l4.1,2.9
	l-40.3,14.5l3.1-8.4l-28.9,0.3V320l-39.8,7.7l-6.6-0.3l9.7-17.2l-15.7,11.4l0.2-12.9c18.4-14.5,32.7-18.3,32.7-18.3l2.6,5.3
	c3.1-3.4,6.6-7.1,10-10.3c5.8-5.6,10.9-10.3,12.3-11.4l0.3-0.3l-2.2,5.5l52.3-8l-6.6-4.5c17.4,4.7,33.2,14.8,45.3,24.6L966.9,291.1z
	"/>
<linearGradient id="SVGID_00000044898573731945220060000014715361443313336464_" gradientUnits="userSpaceOnUse" x1="935.0229" y1="435.653" x2="935.0229" y2="466.979" gradientTransform="matrix(1 0 0 -1 0 734)">
	<stop  offset="0" style="stop-color:#010001"/>
	<stop  offset="1" style="stop-color:#154719"/>
</linearGradient>
<path opacity="0.3" fill="url(#SVGID_00000044898573731945220060000014715361443313336464_)" enable-background="new    " d="
	M980.6,298.3l1.4-6.3l-15-1l-34.7-0.5l3.9-7.2l1.4-1.9l-27.2,10.6l-2.6-4.8l-13.8,7.2l1.4-12.2l-10.9,3.5l12.3-11.4l0.3-0.3
	l-2.2,5.5l52.3-8l-6.6-4.5c17.4,4.7,33.2,14.8,45.3,24.6L980.6,298.3z"/>
<linearGradient id="SVGID_00000029758726357428500850000011719912009919872696_" gradientUnits="userSpaceOnUse" x1="917.4875" y1="150.347" x2="917.4875" y2="176.05" gradientTransform="matrix(1 0 0 -1 0 734)">
	<stop  offset="0" style="stop-color:#010001"/>
	<stop  offset="1" style="stop-color:#154719"/>
</linearGradient>
<path fill="url(#SVGID_00000029758726357428500850000011719912009919872696_)" d="M908.5,581.9L924,558v3.5L912,581.9l15.8-15.4v2.7
	l-9.5,13.5l-11.1,1L908.5,581.9z"/>
<linearGradient id="SVGID_00000127737783984294836430000013715091138179098755_" gradientUnits="userSpaceOnUse" x1="901.144" y1="150.347" x2="901.144" y2="176.039" gradientTransform="matrix(1 0 0 -1 0 734)">
	<stop  offset="0" style="stop-color:#010001"/>
	<stop  offset="1" style="stop-color:#154719"/>
</linearGradient>
<path fill="url(#SVGID_00000127737783984294836430000013715091138179098755_)" d="M904.8,582.7l1.2-19.9h-1.2l-2,19.9l-1.7-7.7
	l-4.8,3.1v5.6L904.8,582.7z"/>
<linearGradient id="SVGID_00000022557312762785472430000000171653955514372498_" gradientUnits="userSpaceOnUse" x1="933.149" y1="150.347" x2="933.149" y2="176.039" gradientTransform="matrix(1 0 0 -1 0 734)">
	<stop  offset="0" style="stop-color:#010001"/>
	<stop  offset="1" style="stop-color:#154719"/>
</linearGradient>
<path fill="url(#SVGID_00000022557312762785472430000000171653955514372498_)" d="M922.3,583.7l20.3-22.5l1.4,1.6l-19.6,20.9H922.3z
	"/>
<path fill="#60B967" d="M1013.8,312.8l4.1,57.4l-4.1-1.9l4.1,23.9l-0.5,33.3l7.3-24.6l-1.2-1.3l-1-17.2l-5.1-9l4.3,1.6L1013.8,312.8
	z"/>
<path fill="#60B967" d="M1013.8,421.9l-3.4-4.5l-16.5,23.8l-10.6,7.1l10.4-2.2L1013.8,421.9z"/>
<path fill="#60B967" d="M1006.3,358.7v16.5l-12.3,14l9.5-15.3l-1-20.9l2,7.4L1006.3,358.7z"/>
<linearGradient id="SVGID_00000181071634670059525330000004701803996648690563_" gradientUnits="userSpaceOnUse" x1="851.2625" y1="415.091" x2="851.2625" y2="443.204" gradientTransform="matrix(1 0 0 -1 0 734)">
	<stop  offset="0" style="stop-color:#010001"/>
	<stop  offset="1" style="stop-color:#154719"/>
</linearGradient>
<path fill="url(#SVGID_00000181071634670059525330000004701803996648690563_)" d="M828,318.9l38.5-23.1h3.6l4.4,0.3l-2.6-5.3
	c0,0-15,5.5-23.8,11.9C839.3,308.9,828,318.9,828,318.9z"/>
<path fill="#60B967" d="M884.4,285.7l8.3-4.8l2.4,1.3l57.2-5.8l31.3,13.7l26.7,25.7l-26.7-28.6c0,0-22-15.6-43.2-20.2l6.6,4.5
	l-52.3,8l2.2-5.5C897.1,273.9,885.9,283.7,884.4,285.7z"/>
<linearGradient id="SVGID_00000178923820426014673160000012731792055559849916_" gradientUnits="userSpaceOnUse" x1="1119.41" y1="161.9948" x2="1098.2899" y2="220.1082" gradientTransform="matrix(1 0 0 -1 0 734)">
	<stop  offset="0" style="stop-color:#010001"/>
	<stop  offset="1" style="stop-color:#154719"/>
</linearGradient>
<path fill="url(#SVGID_00000178923820426014673160000012731792055559849916_)" d="M1145,562.7l-61.4-9.7l-10.9-29.8l61.5,10.1
	L1145,562.7z"/>
<linearGradient id="SVGID_00000037672301324726519110000010682018072616594577_" gradientUnits="userSpaceOnUse" x1="1159.3549" y1="208.1154" x2="1148.521" y2="237.9229" gradientTransform="matrix(1 0 0 -1 0 734)">
	<stop  offset="0" style="stop-color:#010001"/>
	<stop  offset="1" style="stop-color:#154719"/>
</linearGradient>
<path fill="url(#SVGID_00000037672301324726519110000010682018072616594577_)" d="M1183.9,516.9L1125,508l48-20.9L1183.9,516.9z"/>
<linearGradient id="SVGID_00000152246987041953379020000002260580775294651801_" gradientUnits="userSpaceOnUse" x1="1161.8854" y1="322.99" x2="1118.0154" y2="269.82" gradientTransform="matrix(1 0 0 -1 0 734)">
	<stop  offset="0" style="stop-color:#010001"/>
	<stop  offset="1" style="stop-color:#154719"/>
</linearGradient>
<path fill="url(#SVGID_00000152246987041953379020000002260580775294651801_)" d="M1107.5,429l21.2,58.1l47.8-38.3l14.2-65.8
	l-40.2-13.6L1107.5,429z"/>
<linearGradient id="SVGID_00000036236683761358398300000000355732975970334880_" gradientUnits="userSpaceOnUse" x1="1115.4442" y1="398.0011" x2="1083.5242" y2="333.7271" gradientTransform="matrix(1 0 0 -1 0 734)">
	<stop  offset="0" style="stop-color:#010001"/>
	<stop  offset="1" style="stop-color:#154719"/>
</linearGradient>
<path fill="url(#SVGID_00000036236683761358398300000000355732975970334880_)" d="M1076.4,342.4l18.3,50.2l54.2-51.7l-7.8-53.6
	l-33.7,4.1L1076.4,342.4z"/>
<linearGradient id="SVGID_00000055708697288567593850000006099582368930643634_" gradientUnits="userSpaceOnUse" x1="1025.1581" y1="428.1203" x2="1002.7781" y2="393.0854" gradientTransform="matrix(1 0 0 -1 0 734)">
	<stop  offset="0" style="stop-color:#010001"/>
	<stop  offset="1" style="stop-color:#154719"/>
</linearGradient>
<path fill="url(#SVGID_00000055708697288567593850000006099582368930643634_)" d="M974.9,327.6l18.6-21.7L1055,316l-18.6,21.7
	L974.9,327.6z"/>
<linearGradient id="SVGID_00000106117781629652361290000013652678782003144591_" gradientUnits="userSpaceOnUse" x1="1061.4823" y1="436.5433" x2="1046.2653" y2="478.4299" gradientTransform="matrix(1 0 0 -1 0 734)">
	<stop  offset="0" style="stop-color:#010001"/>
	<stop  offset="1" style="stop-color:#154719"/>
</linearGradient>
<path fill="url(#SVGID_00000106117781629652361290000013652678782003144591_)" d="M1094,270.3l-61.4-9.7l-19,21.8l61.5,10.1
	L1094,270.3z"/>
<linearGradient id="SVGID_00000054261690114719816630000006186705101884148155_" gradientUnits="userSpaceOnUse" x1="1101.7363" y1="468.6797" x2="1088.1594" y2="506.0396" gradientTransform="matrix(1 0 0 -1 0 734)">
	<stop  offset="0" style="stop-color:#010001"/>
	<stop  offset="1" style="stop-color:#533019"/>
</linearGradient>
<path fill="url(#SVGID_00000054261690114719816630000006186705101884148155_)" d="M1130.4,243.8l-59.2-9.7l-9.6,21.4l60.4,2.4
	L1130.4,243.8z"/>
<linearGradient id="SVGID_00000161616809197496260020000005426602960605977758_" gradientUnits="userSpaceOnUse" x1="1029.4546" y1="408.6783" x2="1008.3464" y2="466.7867" gradientTransform="matrix(1 0 0 -1 0 734)">
	<stop  offset="0" style="stop-color:#010001"/>
	<stop  offset="1" style="stop-color:#154719"/>
</linearGradient>
<path fill="url(#SVGID_00000161616809197496260020000005426602960605977758_)" d="M982.8,276.5l61.4,9.7L1055,316l-61.5-10.1
	L982.8,276.5z"/>
<linearGradient id="SVGID_00000143619216231025343060000009654482000233588411_" gradientUnits="userSpaceOnUse" x1="1067.7047" y1="454.184" x2="1046.4652" y2="512.649" gradientTransform="matrix(1 0 0 -1 0 734)">
	<stop  offset="0" style="stop-color:#010001"/>
	<stop  offset="1" style="stop-color:#154719"/>
</linearGradient>
<path fill="url(#SVGID_00000143619216231025343060000009654482000233588411_)" d="M1020.2,230.9l63,9.6l10.9,29.8l-62.9-9.6
	L1020.2,230.9z"/>
<linearGradient id="SVGID_00000012465127823920153070000001658833350082693772_" gradientUnits="userSpaceOnUse" x1="1069.6201" y1="488.3117" x2="1054.1331" y2="530.9521" gradientTransform="matrix(1 0 0 -1 0 734)">
	<stop  offset="0" style="stop-color:#010001"/>
	<stop  offset="1" style="stop-color:#154719"/>
</linearGradient>
<path fill="url(#SVGID_00000012465127823920153070000001658833350082693772_)" d="M1040.8,207.9l62.3,9.2l-21,24.1l-61.4-9.7
	L1040.8,207.9z"/>
<linearGradient id="SVGID_00000054978274909010211570000007073540987925220770_" gradientUnits="userSpaceOnUse" x1="1030.5017" y1="442.1573" x2="1015.0155" y2="484.7953" gradientTransform="matrix(1 0 0 -1 0 734)">
	<stop  offset="0" style="stop-color:#010001"/>
	<stop  offset="1" style="stop-color:#154719"/>
</linearGradient>
<path fill="url(#SVGID_00000054978274909010211570000007073540987925220770_)" d="M1001.3,254.2l62.7,8.1l-21.5,25.2l-61.4-9.7
	L1001.3,254.2z"/>
<linearGradient id="SVGID_00000015319471522499492690000003719507281960341901_" gradientUnits="userSpaceOnUse" x1="1191.0084" y1="188.0112" x2="1075.027" y2="507.2478" gradientTransform="matrix(1 0 0 -1 0 734)">
	<stop  offset="0" style="stop-color:#010001"/>
	<stop  offset="1" style="stop-color:#154719"/>
</linearGradient>
<path fill="url(#SVGID_00000015319471522499492690000003719507281960341901_)" d="M1183.9,516.9l-10.9-29.8
	c-3.6,4.3-7.8,9.7-12.8,14.9l-6.4,7.5l10.9,29.8l-19.7,23.4l-10.9-29.8l-18.6,21.7l-79.2-217.3l18.6-21.7l-10.9-29.8l20.1-23.5
	l10.9,29.8l13.9-16.6c1.9-2,3.4-3.8,4.9-5.6l-10.9-29.8l20.1-23.5l11.8,32.4c5.2-3.6,10.2-5.4,15.2-6c5.5-0.3,11.1,1.9,16.7,6.3
	c5.5,4.4,9.8,11.4,13.2,20.8c3.7,10.2,5.6,21.4,5.4,33.9c-0.2,12.5-2.5,24-6.4,34.8c9.3-5.5,18.2-6.2,25.8-2.1
	c7.6,4.1,13.7,12.5,18.4,25.4c3.6,9.8,5.5,21.1,6.2,33.6c0.7,12.6-0.6,24.6-3.4,35.9c-2.6,10.8-7.1,21-13.2,30.4l11.3,30.9
	L1183.9,516.9z M1107.5,429l21.2,58.1l24.6-29c9.4-11.1,15.3-18.8,17.8-22.7c3.5-6,5.9-12.4,6.7-19.9c0.7-7.5-0.3-15.3-3.1-22.8
	c-2.3-6.4-5.3-10.9-8.8-13.5c-3.4-2.2-7.4-2.4-11.9-0.4c-4.6,2.9-12.5,11-24.7,25.2L1107.5,429z M1076.4,342.4l18.3,50.2l17.3-20.4
	c10.3-12.3,16.7-19.7,19-23.1c4.2-6.2,6.9-13.2,7.8-20.3c1.3-7.3,0.3-14.6-2.2-21.4c-2.5-6.8-5.7-10.8-9.3-12.4
	c-3.6-1.7-7.9-0.1-12.8,4.2c-2.9,2.8-10.3,11-23.2,25.9L1076.4,342.4z"/>
<linearGradient id="SVGID_00000046329648416680928290000008881815537138641807_" gradientUnits="userSpaceOnUse" x1="1089.9663" y1="169.6671" x2="1000.5767" y2="415.6979" gradientTransform="matrix(1 0 0 -1 0 734)">
	<stop  offset="0" style="stop-color:#010001"/>
	<stop  offset="1" style="stop-color:#154719"/>
</linearGradient>
<path fill="url(#SVGID_00000046329648416680928290000008881815537138641807_)" d="M974.9,327.6l61.5,10.1l79.2,217.3l-61.5-10.1
	L974.9,327.6z"/>
<path fill="#60B967" d="M1064.4,262.4l-63.1-8.2l-20.1,23.5l21.2-18.8L1064.4,262.4z"/>
<path fill="#60B967" d="M1043.9,314.3l-50.4-8.4L977,325.3l16.5-17.1L1043.9,314.3z"/>
<path fill="#60B967" d="M1103,217.1l-62.3-9.2l-20.1,23.5l21.2-18.8L1103,217.1z"/>
<linearGradient id="SVGID_00000040542758449257538750000001940827574938171011_" gradientUnits="userSpaceOnUse" x1="1204.6486" y1="183.9951" x2="1088.6671" y2="503.2329" gradientTransform="matrix(1 0 0 -1 0 734)">
	<stop  offset="0" style="stop-color:#010001"/>
	<stop  offset="1" style="stop-color:#1C5620"/>
</linearGradient>
<path fill="url(#SVGID_00000040542758449257538750000001940827574938171011_)" d="M1198,520.8l-10.9-29.8
	c-3.7,4.3-7.8,9.7-12.8,14.9l-6.4,7.5l10.9,29.8l-20.1,23.5l-10.9-29.8l-18.6,21.7l-79.2-217.3l18.6-21.7l-10.9-29.8l20.1-23.5
	l10.9,29.8l13.9-16.6c1.9-2,3.4-3.8,4.9-5.6l-10.9-29.8l20.1-23.5l11.8,32.4c5.2-3.6,10.2-5.4,15.2-6c5.5-0.3,11.1,1.9,16.7,6.3
	c5.5,4.4,9.8,11.4,13.2,20.8c3.7,10.2,5.7,21.4,5.4,33.9c-0.2,12.5-2.5,24-6.4,34.8c9.3-5.5,18.2-6.2,25.8-2.1
	c7.6,4.1,13.7,12.5,18.4,25.4c3.6,9.8,5.5,21.1,6.2,33.6c0.7,12.6-0.6,24.6-3.4,35.9c-2.6,10.8-7.1,21-13.2,30.4l11.3,30.9
	L1198,520.8z M1121.9,432.7l21.2,58.1l24.6-29c9.4-11.1,15.3-18.8,17.8-22.7c3.5-6,5.9-12.4,6.6-19.9c0.7-7.5-0.3-15.3-3.1-22.8
	c-2.3-6.4-5.3-10.9-8.8-13.5c-3.4-2.2-7.4-2.4-11.9-0.4s-12.8,10.2-24.6,24.3L1121.9,432.7z M1090.4,346.3l18.3,50.2l17.4-20.4
	c10.3-12.3,16.7-19.7,19-23.1c4.2-6.2,6.9-13.2,7.8-20.3c1.2-7.3,0.3-14.6-2.2-21.4c-2.5-6.8-5.7-10.8-9.3-12.4s-7.9-0.1-12.8,4.2
	c-2.9,2.8-10.3,11-23.2,25.9L1090.4,346.3z"/>
<path fill="#60B967" d="M1144.5,246.8c-5,0.5-10,2.4-15.2,6c16.3-3,49.2,3.9,50.5,55.1c0.2-12.5-1.7-23.7-5.4-33.9
	c-3.4-9.4-7.7-16.4-13.2-20.8C1155.6,248.8,1150,246.5,1144.5,246.8z"/>
<path fill="#60B967" d="M1199.1,340.6c-7.6-4.1-16.5-3.4-25.8,2.1c9.4-4.1,31.5-5.1,44.1,23.3
	C1212.8,353.1,1206.7,344.7,1199.1,340.6z"/>
<path d="M1288.3,578.4v-67.9l6.1-99.5l-27.1-27.3l-13.6-65.9l3.6-3.6l11,63.7l11.5-36l10.2-8.9l2.3,1.2l-9.7,7.7l-11.5,39.1l33,27
	l24.6-9.9l6.1-24.9l4.6-0.5l-4.6,25.4l14.1-4.6l17.4-29.2l-2-36.9l3.3-2.4l1.3,41.8l-15.6,30.9l-42,19.6l-2.8,107.2l15.1,54.8
	L1288.3,578.4z"/>
<linearGradient id="SVGID_00000068679693134658674890000010496811127785978520_" gradientUnits="userSpaceOnUse" x1="1314.0499" y1="335.528" x2="1314.0499" y2="629.644" gradientTransform="matrix(1 0 0 -1 0 734)">
	<stop  offset="0" style="stop-color:#010001"/>
	<stop  offset="1" style="stop-color:#154719"/>
</linearGradient>
<path fill="url(#SVGID_00000068679693134658674890000010496811127785978520_)" d="M1467.9,342.9l-5.4-5.1l-30.2,36l8.7,0.7
	c-26.4,13.5-67.3,20-67.3,20l0.5,3.9l-32.5-14.7l3.8,7.5c-16.4-4.8-31.5-16.7-42.5-27.3c-11.8-11.3-18.9-21.7-18.9-21.7l-0.5,19.6
	l-43.8-40.6l7.7,22.2l2.3-4.6l6.9,17.4c-27.4,4.6-84.7-31.6-84.7-31.6l-1.8,6l-0.8,3.1c0,0-37.1-95.6,2.6-139.6
	c9.7-10.6,19.2-19.6,28.2-26.6c27.6-21.7,49.1-27.5,49.1-27.5l3.8,8c13.6-15.5,34-33.1,34-33.1l-3.3,8.2l78.6-12.1l-10-6.8
	c57.1,15.2,102.1,69.5,104.9,72.9l0.2,0.2l5.1-4.3l11.5,93.5l-6.4-2.4C1481.7,292.2,1468.4,340.8,1467.9,342.9z"/>
<path d="M1467.9,342.9l-5.4-5.1l-47.9,24.6l-0.8-10.9l-42,25.8l2.8-14.7l-24.3,10.4l-36.3-15.9l-10.8,7
	c-11.8-11.4-18.9-21.7-18.9-21.7l-0.5,19.6l-43.8-40.6l7.7,22.2l2.3-4.6l6.9,17.4c-27.4,4.6-84.7-31.6-84.7-31.6l-1.8,6l3.6-19.3
	l22.3,6.3l1-6.3l7.2,6.3l-1-44.4l4.9,9.2l60.1-24.4l-5.4,7.5l60.7,35.5l-3.8-6.8l77.3-6.8l-6.9-5.1l41.5-42.3l-10.2,25.6l4.9-1.4
	l5.6,12.3l13.8-51l-10.8-58.4l18.2,15.9l4.4-5.6l5.1-4.3l11.5,93.5l-6.4-2.4C1481.7,292.2,1468.4,340.8,1467.9,342.9z"/>
<linearGradient id="SVGID_00000047782978500451791290000005895076402196348581_" gradientUnits="userSpaceOnUse" x1="1306.9814" y1="416.5813" x2="1320.9814" y2="653.5093" gradientTransform="matrix(1 0 0 -1 0 734)">
	<stop  offset="0" style="stop-color:#010001"/>
	<stop  offset="1" style="stop-color:#154719"/>
</linearGradient>
<path fill="url(#SVGID_00000047782978500451791290000005895076402196348581_)" d="M1453.1,183.6l-18.2-15.9l5.4,22.7l-8.4-15.5
	l-59.6,3.4l-5.6,0.2l11.8,3.9l-60.7,21.7l2.3-7l-61.9,55.8l10.2,5.3l-60.1,24.4l-4.9-9.2l1,44.4l-4.3-8.5v8.5l-26.1-6.3L1167,276
	l11,12.6l3.3-44.9l25.3-5.8l12.3-41.5l-10-0.5l14.6-25.8l-23.6,17.1l0.3-19.3c27.6-21.7,49.1-27.5,49.1-27.5l3.8,8
	c13.6-15.5,34-33.1,34-33.1l-3.3,8.2l78.6-12.1l-10-6.8c26.1,7,49.9,22.2,68.1,36.9c21.5,17.4,35.3,34.3,36.9,36l0.2,0.2
	L1453.1,183.6z"/>
<path opacity="0.1" fill="#60B967" enable-background="new    " d="M1278.8,275.1l44.8,26.3l-3.8-6.8l77.3-6.8l-6.9-5.3l27.1-30.4
	l-34,12.3v-15.2l-60.9,26.1h25.6l-25.6,10.4L1278.8,275.1z"/>
<path opacity="0.1" fill="#60B967" enable-background="new    " d="M1383.2,237.9l28.7-40.1l-16.6,13.5l4.1-14.2l-21,20.5h9.7
	L1383.2,237.9z"/>
<path opacity="0.2" fill="#60B967" enable-background="new    " d="M1392.2,141.1l-12,15.5l5.4,1.9l-17.9,16.4l4.9,3.4l6.1,4.3
	l-60.7,21.7l4.6-12.6l-43.5,0.5v-7.7l-59.9,11.6l-10-0.5l14.6-25.8l-23.5,17.1l0.2-19.3c27.6-21.7,49.1-27.5,49.1-27.5l3.8,8
	c4.6-5.1,10-10.6,15.1-15.5c8.7-8.5,16.4-15.5,18.4-17.1l0.5-0.5l-3.3,8.2l78.6-12.1l-10-6.8c26.1,7,49.9,22.2,68.1,36.9
	L1392.2,141.1z"/>
<linearGradient id="SVGID_00000111901047036104551240000005846369419416541098_" gradientUnits="userSpaceOnUse" x1="1344.1899" y1="582.074" x2="1344.1899" y2="629.161" gradientTransform="matrix(1 0 0 -1 0 734)">
	<stop  offset="0" style="stop-color:#010001"/>
	<stop  offset="1" style="stop-color:#154719"/>
</linearGradient>
<path opacity="0.3" fill="url(#SVGID_00000111901047036104551240000005846369419416541098_)" enable-background="new    " d="
	M1412.7,151.9l2-9.4l-22.5-1.4l-52.2-0.7l5.9-10.9l2-2.9l-40.9,15.9l-3.8-7.2l-20.7,10.9l2-18.4l-16.4,5.3l18.4-17.1l0.5-0.5
	l-3.3,8.2l78.6-12.1l-10-6.8c26.1,7,49.9,22.2,68.1,36.9L1412.7,151.9z"/>
<linearGradient id="SVGID_00000063598195809499931190000016062154792185461404_" gradientUnits="userSpaceOnUse" x1="1317.835" y1="153.215" x2="1317.835" y2="191.851" gradientTransform="matrix(1 0 0 -1 0 734)">
	<stop  offset="0" style="stop-color:#010001"/>
	<stop  offset="1" style="stop-color:#154719"/>
</linearGradient>
<path fill="url(#SVGID_00000063598195809499931190000016062154792185461404_)" d="M1304.4,578.1l23.3-36v5.3l-18.2,30.7l23.8-23.2
	v4.1l-14.3,20.3l-16.6,1.4L1304.4,578.1z"/>
<linearGradient id="SVGID_00000064346110498956819550000014588653564383443594_" gradientUnits="userSpaceOnUse" x1="1293.27" y1="153.215" x2="1293.27" y2="191.834" gradientTransform="matrix(1 0 0 -1 0 734)">
	<stop  offset="0" style="stop-color:#010001"/>
	<stop  offset="1" style="stop-color:#154719"/>
</linearGradient>
<path fill="url(#SVGID_00000064346110498956819550000014588653564383443594_)" d="M1298.8,579.3l1.8-29.9h-1.8l-3.1,29.9l-2.6-11.6
	l-7.2,4.6v8.5L1298.8,579.3z"/>
<linearGradient id="SVGID_00000028294896524007428000000005829178703663411608_" gradientUnits="userSpaceOnUse" x1="1341.38" y1="153.215" x2="1341.38" y2="191.834" gradientTransform="matrix(1 0 0 -1 0 734)">
	<stop  offset="0" style="stop-color:#010001"/>
	<stop  offset="1" style="stop-color:#154719"/>
</linearGradient>
<path fill="url(#SVGID_00000028294896524007428000000005829178703663411608_)" d="M1325.1,580.8l30.4-33.8l2.1,2.4l-29.4,31.4
	H1325.1z"/>
<path fill="#60B967" d="M1462.5,173.7l6.1,86.2l-6.1-2.9l6.1,36l-0.8,50l11-36.9l-1.8-1.9l-1.5-25.8l-7.7-13.5l6.4,2.4L1462.5,173.7
	z"/>
<path fill="#60B967" d="M1462.5,337.6l-5.1-6.8l-24.8,35.7l-15.9,10.6l15.6-3.4L1462.5,337.6z"/>
<path fill="#60B967" d="M1451.3,242.7v24.9l-18.4,21l14.3-22.9l-1.5-31.4l3.1,11.1L1451.3,242.7z"/>
<linearGradient id="SVGID_00000151532350355389386620000008285087451427617186_" gradientUnits="userSpaceOnUse" x1="1218.2899" y1="551.165" x2="1218.2899" y2="593.423" gradientTransform="matrix(1 0 0 -1 0 734)">
	<stop  offset="0" style="stop-color:#010001"/>
	<stop  offset="1" style="stop-color:#154719"/>
</linearGradient>
<path fill="url(#SVGID_00000151532350355389386620000008285087451427617186_)" d="M1183.4,182.8l57.8-34.8h5.4l6.7,0.5l-3.8-8
	c0,0-22.5,8.2-35.8,17.9C1200.2,167.9,1183.4,182.8,1183.4,182.8z"/>
<path fill="#60B967" d="M1268.1,132.8l12.5-7.2l3.6,1.9l86-8.7l47.1,20.5l40.2,38.6l-40.2-43c0,0-33-23.4-65-30.4l10,6.8l-78.6,12.1
	l3.3-8.2C1287.2,115.2,1270.4,130,1268.1,132.8z"/>
</svg>
