<?xml version="1.0" encoding="utf-8"?>
<!-- Generator: Adobe Illustrator 26.0.0, SVG Export Plug-In . SVG Version: 6.00 Build 0)  -->
<svg version="1.1" id="Слой_1" xmlns="http://www.w3.org/2000/svg" xmlns:xlink="http://www.w3.org/1999/xlink" x="0px" y="0px"
	 viewBox="0 0 1919 732" enable-background="new 0 0 1919 732" xml:space="preserve">
<linearGradient id="SVGID_1_" gradientUnits="userSpaceOnUse" x1="958.2686" y1="-96.919" x2="958.2686" y2="734.0414" gradientTransform="matrix(1 0 0 -1 0 734)">
	<stop  offset="0" style="stop-color:#60B967"/>
	<stop  offset="0.5781" style="stop-color:#002203"/>
	<stop  offset="1" style="stop-color:#000000"/>
</linearGradient>
<path fill="url(#SVGID_1_)" d="M1918.3,0H-1.7v732h1920V0z"/>
<linearGradient id="SVGID_00000158744502693821460330000018073568011271445164_" gradientUnits="userSpaceOnUse" x1="1416.4034" y1="320.431" x2="522.7485" y2="634.7241" gradientTransform="matrix(1 0 0 -1 0 734)">
	<stop  offset="0" style="stop-color:#011F02"/>
	<stop  offset="1" style="stop-color:#011F02;stop-opacity:0"/>
</linearGradient>
<path fill="url(#SVGID_00000158744502693821460330000018073568011271445164_)" d="M11.8,394.2c0,0,1525.1-76.1,1906.5-119.8v-85.7
	l-288.5,19.7l288.5-40.4v-52.5c0,0-533.7,59.2-812.1,92.9l621.4-115.1c0,0-735.4,103.2-943.4,126.3c-208,23.1-772.3,33.9-772.3,33.9
	v27.4l491.4-6.5L11.8,304.4V394.2z"/>
<linearGradient id="SVGID_00000143611172552704770820000009032704453572120452_" gradientUnits="userSpaceOnUse" x1="1408.0165" y1="296.5835" x2="514.3615" y2="610.8765" gradientTransform="matrix(1 0 0 -1 0 734)">
	<stop  offset="0" style="stop-color:#011F02"/>
	<stop  offset="1" style="stop-color:#011F02;stop-opacity:0"/>
</linearGradient>
<path fill="url(#SVGID_00000143611172552704770820000009032704453572120452_)" d="M-1.5,168c0,0,482.9-8.8,687.6-27.6
	S1188,93.3,1188,93.3s-387.5,60.8-511.6,76.1c-209,25.6-678.1,39-678.1,39V168H-1.5z"/>
<linearGradient id="SVGID_00000035512228563147115620000012892801869587010705_" gradientUnits="userSpaceOnUse" x1="1458.6096" y1="440.4392" x2="564.9547" y2="754.7322" gradientTransform="matrix(1 0 0 -1 0 734)">
	<stop  offset="0" style="stop-color:#011F02"/>
	<stop  offset="1" style="stop-color:#011F02;stop-opacity:0"/>
</linearGradient>
<path fill="url(#SVGID_00000035512228563147115620000012892801869587010705_)" d="M1360,2.6c0,0-608.3,74.9-801.8,90.6
	c-193.6,15.9-334.6,22.2-334.6,22.2S659.1,34,822.6,2.6H1360z"/>
<path fill="#60B967" d="M748.4,376c0.7,0,1.2-0.5,1.2-1.2c0-0.7-0.5-1.2-1.2-1.2c-0.7,0-1.2,0.5-1.2,1.2
	C747.2,375.4,747.7,376,748.4,376z"/>
<path fill="#60B967" d="M818.8,264.2c0.7,0,1.2-0.5,1.2-1.2c0-0.7-0.5-1.2-1.2-1.2s-1.2,0.5-1.2,1.2
	C817.6,263.7,818.2,264.2,818.8,264.2z"/>
<path fill="#60B967" d="M1866.3,154c0.7,0,1.2-0.5,1.2-1.2c0-0.7-0.5-1.2-1.2-1.2c-0.7,0-1.2,0.5-1.2,1.2
	C1865.1,153.5,1865.7,154,1866.3,154z"/>
<path fill="#60B967" d="M1757.3,189.8c0.7,0,1.2-0.5,1.2-1.2c0-0.7-0.5-1.2-1.2-1.2c-0.7,0-1.2,0.5-1.2,1.2
	C1756.1,189.2,1756.7,189.8,1757.3,189.8z"/>
<path fill="#60B967" d="M780.5,395.2c0.7,0,1.2-0.5,1.2-1.2c0-0.7-0.5-1.2-1.2-1.2c-0.7,0-1.2,0.5-1.2,1.2
	C779.3,394.7,779.8,395.2,780.5,395.2z"/>
<path fill="#60B967" d="M919,261.8c0.7,0,1.2-0.5,1.2-1.2c0-0.7-0.5-1.2-1.2-1.2c-0.7,0-1.2,0.5-1.2,1.2
	C917.8,261.3,918.3,261.8,919,261.8z"/>
<path fill="#60B967" d="M971,287c0.7,0,1.2-0.5,1.2-1.2c0-0.7-0.5-1.2-1.2-1.2s-1.2,0.5-1.2,1.2C969.8,286.5,970.4,287,971,287z"/>
<path fill="#60B967" d="M1284.6,54.6c0.7,0,1.2-0.5,1.2-1.2c0-0.7-0.5-1.2-1.2-1.2c-0.7,0-1.2,0.5-1.2,1.2
	C1283.4,54.1,1283.9,54.6,1284.6,54.6z"/>
<path fill="#60B967" d="M1534.7,191.2c0.7,0,1.2-0.5,1.2-1.2s-0.5-1.2-1.2-1.2c-0.7,0-1.2,0.5-1.2,1.2S1534,191.2,1534.7,191.2z"/>
<path fill="#60B967" d="M1762,2.4c0.7,0,1.2-0.5,1.2-1.2c0-0.7-0.5-1.2-1.2-1.2c-0.7,0-1.2,0.5-1.2,1.2
	C1760.8,1.8,1761.3,2.4,1762,2.4z"/>
<path fill="#60B967" d="M1556.6,14.8c0.7,0,1.2-0.5,1.2-1.2c0-0.7-0.5-1.2-1.2-1.2c-0.7,0-1.2,0.5-1.2,1.2
	C1555.4,14.3,1555.9,14.8,1556.6,14.8z"/>
<path fill="#60B967" d="M550.4,307.7c0.7,0,1.2-0.5,1.2-1.2s-0.5-1.2-1.2-1.2c-0.7,0-1.2,0.5-1.2,1.2S549.8,307.7,550.4,307.7z"/>
<path fill="#60B967" d="M381.6,81.6c0.7,0,1.2-0.5,1.2-1.2c0-0.7-0.5-1.2-1.2-1.2c-0.7,0-1.2,0.5-1.2,1.2
	C380.4,81.1,380.9,81.6,381.6,81.6z"/>
<path fill="#60B967" d="M451.4,64.4c0.7,0,1.2-0.5,1.2-1.2c0-0.7-0.5-1.2-1.2-1.2c-0.7,0-1.2,0.5-1.2,1.2
	C450.2,63.9,450.8,64.4,451.4,64.4z"/>
<path fill="#60B967" d="M1432.9,108.3c0.7,0,1.2-0.5,1.2-1.2c0-0.7-0.5-1.2-1.2-1.2c-0.7,0-1.2,0.5-1.2,1.2
	C1431.7,107.8,1432.3,108.3,1432.9,108.3z"/>
<path fill="#60B967" d="M412.2,328.4c0.7,0,1.2-0.5,1.2-1.2c0-0.7-0.5-1.2-1.2-1.2c-0.7,0-1.2,0.5-1.2,1.2
	C411,327.9,411.5,328.4,412.2,328.4z"/>
<path fill="#60B967" d="M856,108.3c0.7,0,1.2-0.5,1.2-1.2c0-0.7-0.5-1.2-1.2-1.2c-0.7,0-1.2,0.5-1.2,1.2
	C854.8,107.8,855.3,108.3,856,108.3z"/>
<path fill="#60B967" d="M748.1,507.7c0.7,0,1.2-0.5,1.2-1.2c0-0.7-0.5-1.2-1.2-1.2c-0.7,0-1.2,0.5-1.2,1.2
	C746.9,507.2,747.4,507.7,748.1,507.7z"/>
<path fill="#60B967" d="M799.8,533.2c0.7,0,1.2-0.5,1.2-1.2c0-0.7-0.5-1.2-1.2-1.2c-0.7,0-1.2,0.5-1.2,1.2
	C798.6,532.7,799.1,533.2,799.8,533.2z"/>
<path fill="#60B967" d="M472.5,513.6c0.7,0,1.2-0.5,1.2-1.2c0-0.7-0.5-1.2-1.2-1.2c-0.7,0-1.2,0.5-1.2,1.2
	C471.4,513.1,471.9,513.6,472.5,513.6z"/>
<path fill="#60B967" d="M303.7,287.5c0.7,0,1.2-0.5,1.2-1.2s-0.5-1.2-1.2-1.2s-1.2,0.5-1.2,1.2S303,287.5,303.7,287.5z"/>
<path fill="#60B967" d="M438.4,290.2c0.7,0,1.2-0.5,1.2-1.2c0-0.7-0.5-1.2-1.2-1.2c-0.7,0-1.2,0.5-1.2,1.2
	C437.2,289.7,437.7,290.2,438.4,290.2z"/>
<path fill="#60B967" d="M334.3,534.4c0.7,0,1.2-0.5,1.2-1.2c0-0.7-0.5-1.2-1.2-1.2c-0.7,0-1.2,0.5-1.2,1.2
	C333.1,533.9,333.7,534.4,334.3,534.4z"/>
<path fill="#60B967" d="M871.7,274.6c0.7,0,1.2-0.5,1.2-1.2c0-0.7-0.5-1.2-1.2-1.2c-0.7,0-1.2,0.5-1.2,1.2
	C870.5,274.1,871.1,274.6,871.7,274.6z"/>
<path fill="#60B967" d="M1327.7,101.2c0.7,0,1.2-0.5,1.2-1.2c0-0.7-0.5-1.2-1.2-1.2c-0.6,0-1.2,0.5-1.2,1.2
	C1326.5,100.6,1327.1,101.2,1327.7,101.2z"/>
<path fill="#60B967" d="M1791.7,120.2c0.7,0,1.2-0.5,1.2-1.2c0-0.7-0.5-1.2-1.2-1.2c-0.7,0-1.2,0.5-1.2,1.2
	C1790.5,119.6,1791,120.2,1791.7,120.2z"/>
<path fill="#60B967" d="M1328.9,234.4c0.7,0,1.2-0.5,1.2-1.2c0-0.7-0.5-1.2-1.2-1.2c-0.7,0-1.2,0.5-1.2,1.2
	C1327.7,233.9,1328.2,234.4,1328.9,234.4z"/>
<path fill="#60B967" d="M1482.9,274.7c0.7,0,1.2-0.5,1.2-1.2c0-0.7-0.5-1.2-1.2-1.2c-0.7,0-1.2,0.5-1.2,1.2
	C1481.7,274.2,1482.2,274.7,1482.9,274.7z"/>
<path fill="#60B967" d="M1887.5,331c0.7,0,1.2-0.5,1.2-1.2c0-0.7-0.5-1.2-1.2-1.2c-0.7,0-1.2,0.5-1.2,1.2
	C1886.3,330.5,1886.8,331,1887.5,331z"/>
<path fill="#60B967" d="M941.9,74.6c0.7,0,1.2-0.5,1.2-1.2c0-0.7-0.5-1.2-1.2-1.2c-0.7,0-1.2,0.5-1.2,1.2
	C940.7,74,941.3,74.6,941.9,74.6z"/>
<path fill="#60B967" d="M1192,211.2c0.7,0,1.2-0.5,1.2-1.2c0-0.7-0.5-1.2-1.2-1.2c-0.7,0-1.2,0.5-1.2,1.2
	C1190.8,210.7,1191.3,211.2,1192,211.2z"/>
<path fill="#60B967" d="M1090.3,128.3c0.7,0,1.2-0.5,1.2-1.2c0-0.7-0.5-1.2-1.2-1.2c-0.7,0-1.2,0.5-1.2,1.2
	C1089.1,127.7,1089.6,128.3,1090.3,128.3z"/>
<path fill="#60B967" d="M985,121.1c0.7,0,1.2-0.5,1.2-1.2c0-0.7-0.5-1.2-1.2-1.2c-0.7,0-1.2,0.5-1.2,1.2
	C983.8,120.6,984.4,121.1,985,121.1z"/>
<path fill="#60B967" d="M1026.2,214.4c0.7,0,1.2-0.5,1.2-1.2c0-0.7-0.5-1.2-1.2-1.2c-0.7,0-1.2,0.5-1.2,1.2
	C1025,213.9,1025.6,214.4,1026.2,214.4z"/>
<path fill="#60B967" d="M1140.2,294.7c0.7,0,1.2-0.5,1.2-1.2c0-0.7-0.5-1.2-1.2-1.2c-0.7,0-1.2,0.5-1.2,1.2
	C1139,294.2,1139.5,294.7,1140.2,294.7z"/>
<path fill="#60B967" d="M1187.6,398.1c0.7,0,1.2-0.5,1.2-1.2c0-0.7-0.5-1.2-1.2-1.2c-0.7,0-1.2,0.5-1.2,1.2
	C1186.4,397.6,1186.9,398.1,1187.6,398.1z"/>
<path fill="#60B967" d="M621.3,154.9c0.7,0,1.2-0.5,1.2-1.2s-0.5-1.2-1.2-1.2c-0.7,0-1.2,0.5-1.2,1.2S620.7,154.9,621.3,154.9z"/>
<path fill="#60B967" d="M707.3,121.1c0.7,0,1.2-0.5,1.2-1.2c0-0.7-0.5-1.2-1.2-1.2c-0.7,0-1.2,0.5-1.2,1.2
	C706.1,120.6,706.6,121.1,707.3,121.1z"/>
<path fill="#60B967" d="M750.4,167.7c0.7,0,1.2-0.5,1.2-1.2c0-0.7-0.5-1.2-1.2-1.2c-0.7,0-1.2,0.5-1.2,1.2
	C749.2,167.2,749.7,167.7,750.4,167.7z"/>
<path fill="#60B967" d="M275.8,356.9c0.7,0,1.2-0.5,1.2-1.2c0-0.7-0.5-1.2-1.2-1.2c-0.7,0-1.2,0.5-1.2,1.2
	C274.6,356.4,275.1,356.9,275.8,356.9z"/>
<path fill="#60B967" d="M137.5,377.7c0.7,0,1.2-0.5,1.2-1.2c0-0.7-0.5-1.2-1.2-1.2c-0.7,0-1.2,0.5-1.2,1.2
	C136.3,377.2,136.9,377.7,137.5,377.7z"/>
<path fill="#60B967" d="M29,336.8c0.7,0,1.2-0.5,1.2-1.2c0-0.7-0.5-1.2-1.2-1.2c-0.7,0-1.2,0.5-1.2,1.2
	C27.9,336.3,28.4,336.8,29,336.8z"/>
<path fill="#60B967" d="M163.7,339.5c0.7,0,1.2-0.5,1.2-1.2c0-0.7-0.5-1.2-1.2-1.2c-0.7,0-1.2,0.5-1.2,1.2
	C162.5,338.9,163,339.5,163.7,339.5z"/>
<path fill-rule="evenodd" clip-rule="evenodd" fill="#60B967" d="M1886.1,446.2c0,0-26.5-24.2-48.7-32.3c-22.3-8.1-35.4,5-35.4,5
	s-22.4-28.7-38.7-31.9l37.2,43.3L1886.1,446.2z"/>
<linearGradient id="SVGID_00000088103264013246231720000016173410403237774750_" gradientUnits="userSpaceOnUse" x1="1612.8149" y1="283.519" x2="1612.8149" y2="387.9465" gradientTransform="matrix(1 0 0 -1 0 734)">
	<stop  offset="0" style="stop-color:#010001"/>
	<stop  offset="1" style="stop-color:#154719"/>
</linearGradient>
<path fill-rule="evenodd" clip-rule="evenodd" fill="url(#SVGID_00000088103264013246231720000016173410403237774750_)" d="
	M1501.5,450.5l153.4-3l69.3-1.4c0,0-10.8-16-27.8-35.3c-13.7-15.5-31.6-33.2-51-46.1c-14.6-9.7-30.2-16.8-45.6-18.4
	c-25.5-2.7-51.3,26.2-70.1,54.3C1512.7,425.9,1501.5,450.5,1501.5,450.5z"/>
<linearGradient id="SVGID_00000000186110492112446340000002259976922635314331_" gradientUnits="userSpaceOnUse" x1="1598.9349" y1="283.52" x2="1598.9349" y2="369.248" gradientTransform="matrix(1 0 0 -1 0 734)">
	<stop  offset="0" style="stop-color:#FFFFFF;stop-opacity:0"/>
	<stop  offset="1" style="stop-color:#FFFFFF"/>
</linearGradient>
<path opacity="0.2" fill-rule="evenodd" clip-rule="evenodd" fill="url(#SVGID_00000000186110492112446340000002259976922635314331_)" enable-background="new    " d="
	M1501.5,450.5l153.4-3l40-2.7l1.5-34c-13.7-15.5-31.6-33.2-51-46.1c0.3,0.7,6.1,23.2-6.7,34.3c-12.9,11.2-76.4,29.4-100.4,21.9
	c-11.3-3.5-8.8-19.7-8.7-20.4C1512.7,425.9,1501.5,450.5,1501.5,450.5z"/>
<linearGradient id="SVGID_00000173143747032875795260000002291190195396341146_" gradientUnits="userSpaceOnUse" x1="1720.8049" y1="291.094" x2="1720.8049" y2="347.2284" gradientTransform="matrix(1 0 0 -1 0 734)">
	<stop  offset="0" style="stop-color:#010001"/>
	<stop  offset="1" style="stop-color:#154719"/>
</linearGradient>
<path fill-rule="evenodd" clip-rule="evenodd" fill="url(#SVGID_00000173143747032875795260000002291190195396341146_)" d="
	M1624.2,442.9c0,0,12.5-46.3,53.8-49.9c41.2-3.6,67.1,28.4,67.1,28.4s1.8-37,18.2-34.5c16.4,2.5,54.1,53.7,54.1,53.7L1624.2,442.9z"
	/>
<linearGradient id="SVGID_00000064348047744236046800000013434594622886074795_" gradientUnits="userSpaceOnUse" x1="1755.7999" y1="279.134" x2="1755.7999" y2="298.9456" gradientTransform="matrix(1 0 0 -1 0 734)">
	<stop  offset="0" style="stop-color:#010001"/>
	<stop  offset="1" style="stop-color:#154719"/>
</linearGradient>
<path fill-rule="evenodd" clip-rule="evenodd" fill="url(#SVGID_00000064348047744236046800000013434594622886074795_)" d="
	M1743.5,454.9c0,0,0.8-16.1,8.1-19.4c7.3-3.3,16.5,16,16.5,16L1743.5,454.9z"/>
<linearGradient id="SVGID_00000152975936809943714200000009482248866396689322_" gradientUnits="userSpaceOnUse" x1="1725.745" y1="287.805" x2="1725.745" y2="382.213" gradientTransform="matrix(1 0 0 -1 0 734)">
	<stop  offset="0" style="stop-color:#010001"/>
	<stop  offset="1" style="stop-color:#154719"/>
</linearGradient>
<path fill-rule="evenodd" clip-rule="evenodd" fill="url(#SVGID_00000152975936809943714200000009482248866396689322_)" d="
	M1565.4,444l222.4,1.5l98.3,0.7c0,0-36.4-29.3-58.5-31.3c-20.5-1.9-32.3,11.5-32.3,11.5l-8,11.8l-6.1,0.3c0,0-5.1-29.3-18.5-54
	c-7.5-13.9-17.7-26.2-30.9-31c-25.4-9.2-49.3,22.5-64.1,48.1c-9.1,15.8-14.7,29.4-14.7,29.4s-0.1-0.1-0.4-0.4
	c-2.1-2-12.5-11.7-22.7-13.9C1606.2,411.6,1565.4,444,1565.4,444z"/>
<linearGradient id="SVGID_00000146493485835924376770000006802081899956554937_" gradientUnits="userSpaceOnUse" x1="1676.5699" y1="288.503" x2="1676.5699" y2="349.599" gradientTransform="matrix(1 0 0 -1 0 734)">
	<stop  offset="0" style="stop-color:#FFFFFF;stop-opacity:0"/>
	<stop  offset="1" style="stop-color:#FFFFFF"/>
</linearGradient>
<path opacity="0.2" fill-rule="evenodd" clip-rule="evenodd" fill="url(#SVGID_00000146493485835924376770000006802081899956554937_)" enable-background="new    " d="
	M1565.4,444l222.4,1.5l-0.5-7.4l-6.1,0.3c0,0-5.1-29.3-18.5-54c0.2,0.6,8.1,25.4,0.4,28.9c-7.8,3.5-86.8,13.8-93.2,9
	c-6.3-4.7-2.4-20.2-2.3-20.8c-9.1,15.8-14.7,29.4-14.7,29.4s-0.1-0.1-0.4-0.4c-0.6,0.6-1.4,1.1-2.5,1.5
	C1639.5,436,1565.4,444,1565.4,444z"/>
<linearGradient id="SVGID_00000023996225295678418760000003598172746313408683_" gradientUnits="userSpaceOnUse" x1="1711.915" y1="301.858" x2="1711.915" y2="342.7766" gradientTransform="matrix(1 0 0 -1 0 734)">
	<stop  offset="0" style="stop-color:#010001"/>
	<stop  offset="1" style="stop-color:#154719"/>
</linearGradient>
<path fill-rule="evenodd" clip-rule="evenodd" fill="url(#SVGID_00000023996225295678418760000003598172746313408683_)" d="
	M1745.9,432c0,0-8.8-35.8-26.9-40.5c-18.1-4.8-41.1,40.6-41.1,40.6S1725.2,428.1,1745.9,432z"/>
<linearGradient id="SVGID_00000127735415367901950450000009661858468385981363_" gradientUnits="userSpaceOnUse" x1="1693.79" y1="298.013" x2="1693.79" y2="249.86" gradientTransform="matrix(1 0 0 -1 0 734)">
	<stop  offset="0" style="stop-color:#010001"/>
	<stop  offset="1" style="stop-color:#154719"/>
</linearGradient>
<path fill-rule="evenodd" clip-rule="evenodd" fill="url(#SVGID_00000127735415367901950450000009661858468385981363_)" d="
	M1501.5,450.5l124.1-3.2l-60.1-3.3c0,0,73.8-7.6,142.6-8.7h-7.2l-23-3.2c29.2-4.6,68,0,68,0l-11.1,3.1h-0.2
	c4.8,0.1,9.6,0.1,14.2,0.3c76.4,2.4,137.3,10.7,137.3,10.7s-103.6,8.5-142.6,8.8l9.3-3.2C1752.8,451.7,1582.9,452.4,1501.5,450.5z"
	/>
<path fill-rule="evenodd" clip-rule="evenodd" fill="#60B967" d="M1537.1,425.9c0,0-35.2-26.6-63.8,0H1537.1z"/>
<linearGradient id="SVGID_00000017496632400828440430000000364255804761385639_" gradientUnits="userSpaceOnUse" x1="1505.2749" y1="308.068" x2="1505.2749" y2="313.3596" gradientTransform="matrix(1 0 0 -1 0 734)">
	<stop  offset="0" style="stop-color:#010001"/>
	<stop  offset="1" style="stop-color:#154719"/>
</linearGradient>
<path fill-rule="evenodd" clip-rule="evenodd" fill="url(#SVGID_00000017496632400828440430000000364255804761385639_)" d="
	M1472.9,425.9c0,0,13.3-11.9,64.7,0H1472.9z"/>
<linearGradient id="SVGID_00000173161485478604462220000000849750154311956407_" gradientUnits="userSpaceOnUse" x1="1394.358" y1="279.4524" x2="1397.1093" y2="390.2604" gradientTransform="matrix(1 0 0 -1 0 734)">
	<stop  offset="0" style="stop-color:#010001"/>
	<stop  offset="1" style="stop-color:#154719"/>
</linearGradient>
<path fill-rule="evenodd" clip-rule="evenodd" fill="url(#SVGID_00000173161485478604462220000000849750154311956407_)" d="
	M1634.9,435.4c0,0-104-56.1-164.7-78.1c0,0-187.1-31-313.3-7.8c0,0,81.9,30.9,139,102.6L1634.9,435.4z"/>
<linearGradient id="SVGID_00000013184021322904523630000013732629939102936238_" gradientUnits="userSpaceOnUse" x1="1140.068" y1="271.8311" x2="1142.7593" y2="389.7293" gradientTransform="matrix(1 0 0 -1 0 734)">
	<stop  offset="0" style="stop-color:#010001"/>
	<stop  offset="1" style="stop-color:#154719"/>
</linearGradient>
<path fill-rule="evenodd" clip-rule="evenodd" fill="url(#SVGID_00000013184021322904523630000013732629939102936238_)" d="
	M1274.2,448.3c0,0-71.5-80.9-141.4-104.3c0,0-79.1,17.3-124.8,38.9c0,0,45.4,33.2,78.8,78L1274.2,448.3z"/>
<path fill-rule="evenodd" clip-rule="evenodd" fill="#020101" d="M1218.6,343.8c0,0-7.2-24.4-14.4-29.6
	c-7.2-5.2-31.2,28.7-31.2,28.7s-3.7-5-10.1-2.5c-6.4,2.5-14,11.9-14,11.9S1194.4,345.7,1218.6,343.8z"/>
<path fill-rule="evenodd" clip-rule="evenodd" fill="#020101" d="M1294.6,349c0,0,19.6-47.7,26.6-47.7c9.5,0.1,4.5,49.7,4.5,49.7
	L1294.6,349z"/>
<path fill-rule="evenodd" clip-rule="evenodd" fill="#020101" d="M1056,363.6c0,0-3.3-32.4-10.1-34.1c-6.8-1.6-7.6,39.4-7.6,39.4
	L1056,363.6z"/>
<linearGradient id="SVGID_00000090294026445634951270000002907925244117502651_" gradientUnits="userSpaceOnUse" x1="1285.3113" y1="293.1824" x2="1287.6624" y2="394.577" gradientTransform="matrix(1 0 0 -1 0 734)">
	<stop  offset="0" style="stop-color:#010001"/>
	<stop  offset="1" style="stop-color:#154719"/>
</linearGradient>
<path fill-rule="evenodd" clip-rule="evenodd" fill="url(#SVGID_00000090294026445634951270000002907925244117502651_)" d="
	M1412.8,435.8c0,0-68.9-74.9-142.9-96.8c0,0-65.7,1.5-110,10.7c0,0,65.6,17.9,134.6,91.3L1412.8,435.8z"/>
<path opacity="0.2" fill-rule="evenodd" clip-rule="evenodd" enable-background="new    " d="M1257.9,426.6l-178.1,24.1l-11.6-14.6
	l169.3-30.1L1257.9,426.6z"/>
<path opacity="0.2" fill-rule="evenodd" clip-rule="evenodd" enable-background="new    " d="M1211.9,389.3L1048.5,420l-9.2-9.1
	l155.1-35.6L1211.9,389.3z"/>
<path opacity="0.2" fill-rule="evenodd" clip-rule="evenodd" enable-background="new    " d="M1163.2,358.3l-141.8,38.8l-11.8-9.9
	l138.8-36.6L1163.2,358.3z"/>
<linearGradient id="SVGID_00000113342892806006889450000005230314285232352159_" gradientUnits="userSpaceOnUse" x1="816.2344" y1="172.799" x2="816.2344" y2="507.746" gradientTransform="matrix(1 0 0 -1 0 734)">
	<stop  offset="0" style="stop-color:#010001"/>
	<stop  offset="1" style="stop-color:#154719"/>
</linearGradient>
<path fill-rule="evenodd" clip-rule="evenodd" fill="url(#SVGID_00000113342892806006889450000005230314285232352159_)" d="
	M-1.9,539V226.3c0,0,360.8,2.8,1636.2,334.9L-1.9,539z"/>
<linearGradient id="SVGID_00000008136598378349847480000001299333157231063996_" gradientUnits="userSpaceOnUse" x1="318.0349" y1="354.02" x2="318.0349" y2="507.746" gradientTransform="matrix(1 0 0 -1 0 734)">
	<stop  offset="0" style="stop-color:#010001"/>
	<stop  offset="1" style="stop-color:#154719"/>
</linearGradient>
<path fill-rule="evenodd" clip-rule="evenodd" fill="url(#SVGID_00000008136598378349847480000001299333157231063996_)" d="
	M-1.9,226.3c0,0,78.1,78,112.2,133.7l527.6,20c0,0-40.8-47.5-87.4-71.7c0,0-227.1-43-301-53.2C186.9,246.3-1.9,226.3-1.9,226.3z"/>
<linearGradient id="SVGID_00000138563814367086232310000008715484966332220039_" gradientUnits="userSpaceOnUse" x1="899.1226" y1="266.783" x2="899.1226" y2="406.511" gradientTransform="matrix(1 0 0 -1 0 734)">
	<stop  offset="0" style="stop-color:#010001"/>
	<stop  offset="1" style="stop-color:#154719"/>
</linearGradient>
<path fill-rule="evenodd" clip-rule="evenodd" fill="url(#SVGID_00000138563814367086232310000008715484966332220039_)" d="
	M647,327.5c0,0,147.7,52.5,222.6,136.2l281.7,3.5c0,0-90.9-50.2-199.1-73.7L647,327.5z"/>
<path opacity="0.5" fill-rule="evenodd" clip-rule="evenodd" fill="#010101" enable-background="new    " d="M74.3,231.8
	c0,0,77.9,47.5,120.7,131.2l73.1,2.7c0,0-58.1-75.5-124.7-126L74.3,231.8z"/>
<path opacity="0.5" fill-rule="evenodd" clip-rule="evenodd" fill="#010101" enable-background="new    " d="M230.5,252.2
	c0,0,80.1,58.7,114.2,116.5l64.6,2.5c0,0-45.6-62.7-105.4-108.2L230.5,252.2z"/>
<path opacity="0.5" fill-rule="evenodd" clip-rule="evenodd" fill="#010101" enable-background="new    " d="M370,273.7
	c0,0,86.4,38,127.2,100.7l82.4,3.2c0,0-37.1-55.5-67.9-78.7L370,273.7z"/>
<path opacity="0.5" fill-rule="evenodd" clip-rule="evenodd" fill="#010101" enable-background="new    " d="M759.4,380l274.2,36
	l24.3,9.2l-282-35.5L759.4,380z"/>
<path opacity="0.5" fill-rule="evenodd" clip-rule="evenodd" fill="#010101" enable-background="new    " d="M803.5,407.2l277.7,26
	l14.5,7.5L826.3,424L803.5,407.2z"/>
<path opacity="0.5" fill-rule="evenodd" clip-rule="evenodd" fill="#010101" enable-background="new    " d="M859.8,453.5h267.4
	l24,14l-284.7-7L859.8,453.5z"/>
<linearGradient id="SVGID_00000139291899067116808840000012783438134986508181_" gradientUnits="userSpaceOnUse" x1="712.19" y1="272.283" x2="712.19" y2="422.259" gradientTransform="matrix(1 0 0 -1 0 734)">
	<stop  offset="0" style="stop-color:#010001"/>
	<stop  offset="1" style="stop-color:#154719"/>
</linearGradient>
<path fill-rule="evenodd" clip-rule="evenodd" fill="url(#SVGID_00000139291899067116808840000012783438134986508181_)" d="
	M569.3,311.7c0,0,104.2,43.5,171.3,147.2l114.4,2.8c0,0-101.9-95.7-222.9-137.2L569.3,311.7z"/>
<linearGradient id="SVGID_00000168806718148914536280000002296500958916708237_" gradientUnits="userSpaceOnUse" x1="374.127" y1="374.017" x2="374.127" y2="354.02" gradientTransform="matrix(1 0 0 -1 0 734)">
	<stop  offset="0" style="stop-color:#FFFFFF"/>
	<stop  offset="1" style="stop-color:#FFFFFF;stop-opacity:0"/>
</linearGradient>
<path opacity="0.4" fill-rule="evenodd" clip-rule="evenodd" fill="url(#SVGID_00000168806718148914536280000002296500958916708237_)" enable-background="new    " d="
	M110.3,360l249.2,13.5h7.3l271.2,6.5L110.3,360z"/>
<linearGradient id="SVGID_00000126293626818105013270000001134909440242700192_" gradientUnits="userSpaceOnUse" x1="644.4515" y1="363.9548" x2="644.4515" y2="425.259" gradientTransform="matrix(1 0 0 -1 0 734)">
	<stop  offset="0" style="stop-color:#010001"/>
	<stop  offset="1" style="stop-color:#154719"/>
</linearGradient>
<path opacity="0.2" fill-rule="evenodd" clip-rule="evenodd" fill="url(#SVGID_00000126293626818105013270000001134909440242700192_)" enable-background="new    " d="
	M465.7,308.7c0,0,95.7,39.7,217.6,51.2c122,11.5,140,10,140,10S619.4,309.2,465.7,308.7z"/>
<linearGradient id="SVGID_00000126286198508400251470000010760015126247286919_" gradientUnits="userSpaceOnUse" x1="957.9999" y1="2" x2="957.9999" y2="309.4397" gradientTransform="matrix(1 0 0 -1 0 734)">
	<stop  offset="0" style="stop-color:#010001"/>
	<stop  offset="1" style="stop-color:#154719"/>
</linearGradient>
<path fill="url(#SVGID_00000126286198508400251470000010760015126247286919_)" d="M944,426c481.2-8.1,803.8,18.8,974,39.3V732H-2
	V485.9C192.5,462.3,512.5,433.3,944,426z"/>
<linearGradient id="SVGID_00000036234997727780341450000007603930601616097433_" gradientUnits="userSpaceOnUse" x1="1500.7949" y1="257.535" x2="1500.7949" y2="325.411" gradientTransform="matrix(1 0 0 -1 0 734)">
	<stop  offset="0" style="stop-color:#010001"/>
	<stop  offset="1" style="stop-color:#154719"/>
</linearGradient>
<path fill="url(#SVGID_00000036234997727780341450000007603930601616097433_)" d="M1084.3,418.5l833.1-9.9v67.9L1084.3,418.5z"/>
<linearGradient id="SVGID_00000020394577135855652500000000646524516026110128_" gradientUnits="userSpaceOnUse" x1="849.291" y1="126.326" x2="849.291" y2="313.9642" gradientTransform="matrix(1 0 0 -1 0 734)">
	<stop  offset="0" style="stop-color:#010001"/>
	<stop  offset="1" style="stop-color:#154719"/>
</linearGradient>
<path fill-rule="evenodd" clip-rule="evenodd" fill="url(#SVGID_00000020394577135855652500000000646524516026110128_)" d="
	M1579.7,439.6c0,0-340.7,56.5-581.5,168l-879.4-64.4c0,0,253.9-68.7,473.8-103.7C592.4,439.6,1176.2,395.5,1579.7,439.6z"/>
<path fill-rule="evenodd" clip-rule="evenodd" d="M592.4,439.6l-247.7,37.5l-225.8,66.2C118.9,543.3,396.3,469.3,592.4,439.6z"/>
<linearGradient id="SVGID_00000056397513409045536780000002680758754496507285_" gradientUnits="userSpaceOnUse" x1="1377.674" y1="71.851" x2="1377.674" y2="294.251" gradientTransform="matrix(1 0 0 -1 0 734)">
	<stop  offset="0" style="stop-color:#010001"/>
	<stop  offset="1" style="stop-color:#154719"/>
</linearGradient>
<path fill-rule="evenodd" clip-rule="evenodd" fill="url(#SVGID_00000056397513409045536780000002680758754496507285_)" d="
	M966.7,611.6c0,0,405.3-139.7,594.8-169.1l227.2,24.8c0,0-151,39.2-420.8,194.8L966.7,611.6z"/>
<linearGradient id="SVGID_00000137119673332543463280000014454721219309399172_" gradientUnits="userSpaceOnUse" x1="270.6673" y1="190.989" x2="270.6673" y2="298.793" gradientTransform="matrix(1 0 0 -1 0 734)">
	<stop  offset="0" style="stop-color:#010001"/>
	<stop  offset="1" style="stop-color:#154719"/>
</linearGradient>
<path fill="url(#SVGID_00000137119673332543463280000014454721219309399172_)" d="M543.3,435.2C327.6,466.3,46.7,543,46.7,543
	L-2,541.1v-57.4c3.8-0.7,5.8-1,5.8-1C193.7,455,543.3,435.2,543.3,435.2z"/>
<path opacity="0.3" fill-rule="evenodd" clip-rule="evenodd" enable-background="new    " d="M46.1,543l-45.7-1.8
	c0,0,293-85,491.7-102l51.2-3.9C543.3,435.2,245.9,470.5,46.1,543z"/>
<path opacity="0.5" fill-rule="evenodd" clip-rule="evenodd" fill="#0D011F" enable-background="new    " d="M1615.4,650.7
	l-6.9-17.5l-15.4-2.1l7.4,17.7L1615.4,650.7z"/>
<linearGradient id="SVGID_00000006671317962690974810000006384278566657826239_" gradientUnits="userSpaceOnUse" x1="1122.3105" y1="126.556" x2="1122.3105" y2="315.2662" gradientTransform="matrix(1 0 0 -1 0 734)">
	<stop  offset="0" style="stop-color:#010001"/>
	<stop  offset="1" style="stop-color:#154719"/>
</linearGradient>
<path fill-rule="evenodd" clip-rule="evenodd" fill="url(#SVGID_00000006671317962690974810000006384278566657826239_)" d="
	M664.9,574.6c0,0,264.7-125.7,582.2-153.8c0,0,163.9-9.4,332.6,12v6.7c0,0-339.1,54.9-581.5,168l-329.6-19.5L664.9,574.6z"/>
<path fill-rule="evenodd" clip-rule="evenodd" d="M1579.7,432.8c0,0-344.4,56.3-590.2,162.7l-324.4-20.9l3.5,13.6l329.6,27.2
	c0,0,284.8-129.7,581.5-175.7V432.8z"/>
<path opacity="0.2" fill-rule="evenodd" clip-rule="evenodd" enable-background="new    " d="M1086.2,557.8l-279.7-40.7L699,559.6
	l309.2,28L1086.2,557.8z"/>
<path opacity="0.2" fill-rule="evenodd" clip-rule="evenodd" enable-background="new    " d="M1288.3,496.2l-289.8-34l-86.8,23
	l312.4,28.7L1288.3,496.2z"/>
<path opacity="0.2" fill-rule="evenodd" clip-rule="evenodd" enable-background="new    " d="M1425.7,463.1l-318.6-23.4l-44.4,8.3
	l321.1,24.8L1425.7,463.1z"/>
<path opacity="0.2" fill-rule="evenodd" clip-rule="evenodd" enable-background="new    " d="M1542,439.7L1216.5,424l-29.5,3.4
	l317.7,19.3L1542,439.7z"/>
<linearGradient id="SVGID_00000012437840972140246590000009670015967969279887_" gradientUnits="userSpaceOnUse" x1="442.0635" y1="162.414" x2="442.0635" y2="304.463" gradientTransform="matrix(1 0 0 -1 0 734)">
	<stop  offset="0" style="stop-color:#010001"/>
	<stop  offset="1" style="stop-color:#154719"/>
</linearGradient>
<path fill-rule="evenodd" clip-rule="evenodd" fill="url(#SVGID_00000012437840972140246590000009670015967969279887_)" d="
	M765.3,429.5l-239.9,142l-406.5-28.3c0,0,336.6-90.3,473.8-103.7L765.3,429.5z"/>
<path fill-rule="evenodd" clip-rule="evenodd" fill="#020101" d="M645.3,430c0,0-12.2-66.7-23.7-71.9c-11.7-5.3-21.4,73.3-21.4,73.3
	L645.3,430z"/>
<path fill-rule="evenodd" clip-rule="evenodd" fill="#020101" d="M1561.6,413c0,0-12.1-24.8-26.3-29.9c-14.5-5.1-21,30.8-21,30.8
	L1561.6,413z"/>
<path fill-rule="evenodd" clip-rule="evenodd" d="M952,422.2c0,0-226.7,57.9-359.3,155.6l-15.7-1.1c0,0,142.7-99.8,340.2-154
	L952,422.2z"/>
<path opacity="0.2" fill-rule="evenodd" clip-rule="evenodd" enable-background="new    " d="M611.7,520.3H197.1l-78.3,23l406.5,28
	L611.7,520.3z"/>
<path opacity="0.2" fill-rule="evenodd" clip-rule="evenodd" enable-background="new    " d="M655.5,494.4l-280.2-13.1l64.9-14
	l243.3,10.6L655.5,494.4z"/>
<path opacity="0.2" fill-rule="evenodd" clip-rule="evenodd" enable-background="new    " d="M720.1,456.2l-207.4-3l41.4-6.7h182.3
	L720.1,456.2z"/>
<path fill-rule="evenodd" clip-rule="evenodd" fill="#020101" d="M1736.4,412.4c0,0-3.2-30.3-12.2-29.3
	c-8.9,0.9-10.8,25.8-10.8,25.8s-10.1-9.9-22-9.1c-11.9,0.7-16.3,12.7-16.3,12.7s-22.7-61.9-47-63.1c-24.3-1.2-31.9,63.1-31.9,63.1
	H1736.4z"/>
<path fill-rule="evenodd" clip-rule="evenodd" d="M118.7,543.6l300.7,16.9l232.4,21.4L118.7,543.6z"/>
<path opacity="0.5" fill-rule="evenodd" clip-rule="evenodd" fill="#111114" enable-background="new    " d="M1238.3,421.7l36.6-2.1
	c0,0-187.8,54.5-463.6,69.9c-298.6,16.8-396.9-16.8-396.9-16.8s77.1-12,130.1-19.1l-199.8-6.2C344.7,447.5,921.1,406.3,1238.3,421.7
	z"/>
<path opacity="0.5" enable-background="new    " d="M23.6,471.4c-2.3,0.2-4.6,0.6-6.9,0.8c0,0-5.4-6.7-18.7-11.6v229.8l965.4-36
	l-222.9,41.6H1918V220.9c-10.3,0.6-25.9,1.7-47.7,3.8c-15.9,1.6-34.8,3.6-57.6,6.4c-25,3-54.3,7-88.5,12c-7.9,1-18.2,2.6-29.8,4.4
	l-15.4,2.2c0,0.2-0.2,0.2-0.4,0.4c-2.7,0.4-5.4,1-8.4,1.4c-15.4,2.4-31.7,5.2-48.8,8c1.7-0.8,2.7-1.2,2.7-1.2l-118.1,20l-2.5,1.8
	c-9.6,1.6-19.4,3.6-29.4,5.4h-0.4l-15.7,3h-0.4c-16.7,3-33.8,6.4-51.3,9.8l-0.8,0.2l0,0c-4,0.8-7.9,1.6-12.1,2.4
	c-75.1,14.8-159.6,32.4-254.2,53.1h-0.2c-3.3,0.8-6.5,1.4-9.8,2.2c-7.7,1.8-15.7,3.4-23.6,5.2l-2.3,0.6l0,0c-9,2-17.9,4-27.1,6
	l-1.7,0.4c0,0-62.2,10.4-120.8,23.4c0,0-20.2-48.9-39.6-50.3c-19.4-1.2-19.8,23.4-19.8,23.4s-4.2-38.8-15.2-42
	c-10.4-3-25.2,82.7-26.7,91.5c-43.8,1.2-87.4,2.8-129.4,4.4c-25,0.8-49.5,1.8-73.5,2.8c-0.8-4-11.3-57.9-21.5-62.3
	c-10.4-4.6-19.4,63.9-19.4,63.9l19.2-0.6c-29.8,1.2-58.8,2.6-87,4.2h-1c-50.5,2.6-98.3,5.6-143.4,8.8c-12.5,0.8-19.4,1.2-19.4,1.2h1
	l-24.4,1.8c3.8-0.6,5.8-0.8,5.8-0.8l-46.3,4c-39,3-79.9,6.4-119.6,10.2c0,0-11.7,0.8-31.5,3c-17.5,1.8-34.5,3.6-51,5.4
	c-1.2-0.4-25.7-9.1-35.6-4.4c-10.4,4.8-15.7,10.6-15.7,10.6c-2.7,0.2-5.2,0.6-7.7,1c-0.8,0.2-1.7,0.2-2.5,0.4
	c0,0-15.7-30.8-19.6-27.8C26.3,443,24,466.6,23.6,471.4z"/>
<linearGradient id="SVGID_00000096755001073556580650000004518664520022005156_" gradientUnits="userSpaceOnUse" x1="1369.6599" y1="264.348" x2="1369.6599" y2="275.021" gradientTransform="matrix(1 0 0 -1 0 734)">
	<stop  offset="0" style="stop-color:#010001"/>
	<stop  offset="1" style="stop-color:#154719"/>
</linearGradient>
<path fill="url(#SVGID_00000096755001073556580650000004518664520022005156_)" d="M1374.2,469.7l-9.1-5.2V459l9.1,5.3V469.7z"/>
<linearGradient id="SVGID_00000054950169379181151460000015910437560568039072_" gradientUnits="userSpaceOnUse" x1="1378.625" y1="269.476" x2="1378.625" y2="274.951" gradientTransform="matrix(1 0 0 -1 0 734)">
	<stop  offset="0" style="stop-color:#010001"/>
	<stop  offset="1" style="stop-color:#154719"/>
</linearGradient>
<path fill="url(#SVGID_00000054950169379181151460000015910437560568039072_)" d="M1383,464.5l-8.8-4.9l8.8-0.6V464.5z"/>
<linearGradient id="SVGID_00000116231993601871982910000018098331572614909871_" gradientUnits="userSpaceOnUse" x1="1385.6387" y1="287.9757" x2="1375.5087" y2="282.1717" gradientTransform="matrix(1 0 0 -1 0 734)">
	<stop  offset="0" style="stop-color:#010001"/>
	<stop  offset="1" style="stop-color:#154719"/>
</linearGradient>
<path fill="url(#SVGID_00000116231993601871982910000018098331572614909871_)" d="M1376,445.7v10.7l9.8-3.4l6-9.8l-5.6-4.6
	L1376,445.7z"/>
<linearGradient id="SVGID_00000124879064593243958750000003700143983048389508_" gradientUnits="userSpaceOnUse" x1="1382.6416" y1="302.8489" x2="1373.6816" y2="294.5359" gradientTransform="matrix(1 0 0 -1 0 734)">
	<stop  offset="0" style="stop-color:#010001"/>
	<stop  offset="1" style="stop-color:#154719"/>
</linearGradient>
<path fill="url(#SVGID_00000124879064593243958750000003700143983048389508_)" d="M1376.1,429.9v9.2l11.6-5.2l1.8-9.1l-5.6-1.3
	L1376.1,429.9z"/>
<linearGradient id="SVGID_00000025422034884210493910000014080503355420585371_" gradientUnits="userSpaceOnUse" x1="1370.145" y1="313.0171" x2="1364.485" y2="308.7961" gradientTransform="matrix(1 0 0 -1 0 734)">
	<stop  offset="0" style="stop-color:#010001"/>
	<stop  offset="1" style="stop-color:#154719"/>
</linearGradient>
<path fill="url(#SVGID_00000025422034884210493910000014080503355420585371_)" d="M1360.9,421.5l4.2-2.4l9.1,5.3l-4.2,2.4
	L1360.9,421.5z"/>
<linearGradient id="SVGID_00000135680587345491404230000016990682639676099733_" gradientUnits="userSpaceOnUse" x1="1376.325" y1="312.306" x2="1376.325" y2="319.999" gradientTransform="matrix(1 0 0 -1 0 734)">
	<stop  offset="0" style="stop-color:#010001"/>
	<stop  offset="1" style="stop-color:#154719"/>
</linearGradient>
<path fill="url(#SVGID_00000135680587345491404230000016990682639676099733_)" d="M1383,419.2l-9.1-5.2l-4.3,2.4l9.1,5.3L1383,419.2
	z"/>
<linearGradient id="SVGID_00000124156087491034580920000010046804682885883058_" gradientUnits="userSpaceOnUse" x1="1384.535" y1="315.147" x2="1384.535" y2="322.008" gradientTransform="matrix(1 0 0 -1 0 734)">
	<stop  offset="0" style="stop-color:#010001"/>
	<stop  offset="1" style="stop-color:#533019"/>
</linearGradient>
<path fill="url(#SVGID_00000124156087491034580920000010046804682885883058_)" d="M1390.3,417.1l-8.8-5.1l-2.8,2.9l9.4,4
	L1390.3,417.1z"/>
<linearGradient id="SVGID_00000145025546099517234710000001156850687749939106_" gradientUnits="userSpaceOnUse" x1="1369.6599" y1="309.672" x2="1369.6599" y2="320.345" gradientTransform="matrix(1 0 0 -1 0 734)">
	<stop  offset="0" style="stop-color:#010001"/>
	<stop  offset="1" style="stop-color:#154719"/>
</linearGradient>
<path fill="url(#SVGID_00000145025546099517234710000001156850687749939106_)" d="M1365.1,413.7l9.1,5.2v5.5l-9.1-5.3V413.7z"/>
<linearGradient id="SVGID_00000096740568735941208100000017692671499709422752_" gradientUnits="userSpaceOnUse" x1="1378.33" y1="314.801" x2="1378.33" y2="325.539" gradientTransform="matrix(1 0 0 -1 0 734)">
	<stop  offset="0" style="stop-color:#010001"/>
	<stop  offset="1" style="stop-color:#154719"/>
</linearGradient>
<path fill="url(#SVGID_00000096740568735941208100000017692671499709422752_)" d="M1373.6,408.5l9.4,5.3v5.5l-9.4-5.3V408.5z"/>
<linearGradient id="SVGID_00000026142659080036194140000008579026828941457284_" gradientUnits="userSpaceOnUse" x1="1380.595" y1="320.225" x2="1380.595" y2="328.057" gradientTransform="matrix(1 0 0 -1 0 734)">
	<stop  offset="0" style="stop-color:#010001"/>
	<stop  offset="1" style="stop-color:#154719"/>
</linearGradient>
<path fill="url(#SVGID_00000026142659080036194140000008579026828941457284_)" d="M1378.2,405.9l9.3,5.2l-4.7,2.7l-9.1-5.2
	L1378.2,405.9z"/>
<linearGradient id="SVGID_00000023993162551026170880000016569185025122498970_" gradientUnits="userSpaceOnUse" x1="1371.75" y1="315.043" x2="1371.75" y2="322.874" gradientTransform="matrix(1 0 0 -1 0 734)">
	<stop  offset="0" style="stop-color:#010001"/>
	<stop  offset="1" style="stop-color:#154719"/>
</linearGradient>
<path fill="url(#SVGID_00000023993162551026170880000016569185025122498970_)" d="M1369.3,411.1l9.4,5l-4.8,2.8l-9.1-5.2
	L1369.3,411.1z"/>
<linearGradient id="SVGID_00000152229416623216284220000017818226226778292916_" gradientUnits="userSpaceOnUse" x1="1382.51" y1="264.348" x2="1382.51" y2="322.979" gradientTransform="matrix(1 0 0 -1 0 734)">
	<stop  offset="0" style="stop-color:#010001"/>
	<stop  offset="1" style="stop-color:#154719"/>
</linearGradient>
<path fill="url(#SVGID_00000152229416623216284220000017818226226778292916_)" d="M1383,464.5V459c-0.8,0.5-1.8,1.1-2.9,1.7
	l-1.5,0.8v5.5l-4.5,2.6v-5.5l-4.2,2.4v-39.9l4.2-2.4v-5.5l4.5-2.6v5.5l3.2-1.9c0.4-0.2,0.8-0.4,1.1-0.6v-5.5l4.5-2.6v6
	c1-0.3,1.9-0.3,2.8-0.1c0.9,0.3,1.6,1,2.3,2c0.6,1,0.9,2.4,0.9,4.2c0,1.9-0.3,3.8-1.1,5.8c-0.8,2-1.8,3.7-3,5.3
	c1.8-0.3,3.2,0.1,4.2,1.2c1,1.1,1.4,2.8,1.4,5.2c0,1.8-0.3,3.7-1,5.8c-0.6,2.1-1.5,4-2.6,5.6c-1,1.6-2.3,3-3.8,4.2v5.7L1383,464.5z
	 M1376,445.7v10.7l5.6-3.3c2.1-1.2,3.5-2.1,4.1-2.6c0.9-0.8,1.7-1.7,2.2-2.8c0.5-1.2,0.8-2.5,0.8-3.9c0-1.2-0.2-2.1-0.6-2.7
	c-0.4-0.6-1-0.8-1.9-0.8c-0.9,0.2-2.6,1-5.4,2.6L1376,445.7z M1376.1,429.9v9.2l3.9-2.3c2.3-1.4,3.8-2.2,4.3-2.6
	c1-0.8,1.9-1.7,2.4-2.8c0.6-1.1,0.9-2.4,0.9-3.6c0-1.2-0.3-2.1-0.8-2.6c-0.5-0.5-1.2-0.5-2.3-0.1c-0.6,0.3-2.3,1.2-5.2,2.8
	L1376.1,429.9z"/>
<linearGradient id="SVGID_00000096019287121026156910000014443312134234760124_" gradientUnits="userSpaceOnUse" x1="1365.47" y1="267.328" x2="1365.47" y2="312.514" gradientTransform="matrix(1 0 0 -1 0 734)">
	<stop  offset="0" style="stop-color:#010001"/>
	<stop  offset="1" style="stop-color:#154719"/>
</linearGradient>
<path fill="url(#SVGID_00000096019287121026156910000014443312134234760124_)" d="M1360.9,421.5l9.1,5.3v39.9l-9.1-5.3V421.5z"/>
<path fill="#60B967" d="M1378.8,416.2l-9.5-5.1l-4.5,2.6l4.4-1.8L1378.8,416.2z"/>
<path fill="#60B967" d="M1372.6,423.4l-7.5-4.3l-3.7,2.2l3.6-1.8L1372.6,423.4z"/>
<path fill="#60B967" d="M1387.5,411.1l-9.3-5.2l-4.5,2.6l4.4-1.8L1387.5,411.1z"/>
<linearGradient id="SVGID_00000125588279204953292420000004742770733001735613_" gradientUnits="userSpaceOnUse" x1="1384.4299" y1="262.892" x2="1384.4299" y2="321.523" gradientTransform="matrix(1 0 0 -1 0 734)">
	<stop  offset="0" style="stop-color:#010001"/>
	<stop  offset="1" style="stop-color:#1C5620"/>
</linearGradient>
<path fill="url(#SVGID_00000125588279204953292420000004742770733001735613_)" d="M1385,466v-5.5c-0.8,0.5-1.8,1.1-2.9,1.7l-1.4,0.8
	v5.5l-4.5,2.6v-5.5l-4.2,2.4v-39.9l4.2-2.4v-5.5l4.5-2.6v5.5l3.2-1.9c0.4-0.2,0.8-0.4,1.1-0.6v-5.5l4.5-2.6v6c1-0.3,1.9-0.3,2.8-0.1
	c0.9,0.3,1.7,1,2.3,2c0.6,1,0.9,2.4,0.9,4.2c0,1.9-0.3,3.8-1.1,5.8c-0.8,2-1.8,3.7-3,5.3c1.8-0.3,3.2,0.1,4.2,1.2
	c1,1.1,1.4,2.8,1.4,5.2c0,1.8-0.3,3.7-1,5.8c-0.6,2.1-1.5,4-2.6,5.6c-1,1.6-2.3,3-3.8,4.2v5.7L1385,466z M1378.1,447.2v10.7l5.6-3.3
	c2.1-1.2,3.5-2.1,4.1-2.6c0.9-0.8,1.7-1.7,2.2-2.8c0.6-1.2,0.8-2.5,0.8-3.9c0-1.2-0.2-2.1-0.6-2.7c-0.4-0.6-1-0.8-1.9-0.8
	c-0.8,0.1-2.6,0.9-5.3,2.5L1378.1,447.2z M1378.1,431.3v9.2l3.9-2.3c2.3-1.4,3.8-2.2,4.3-2.6c1-0.8,1.9-1.7,2.4-2.8
	c0.6-1.1,0.9-2.4,0.9-3.6c0-1.2-0.3-2.1-0.8-2.6c-0.5-0.5-1.2-0.5-2.3-0.1c-0.6,0.3-2.3,1.2-5.2,2.8L1378.1,431.3z"/>
<path fill="#60B967" d="M1392.3,418.4c-0.8-0.2-1.7-0.2-2.8,0.1c2.8,0.5,7.6,3.5,4.8,11.9c0.8-2,1.1-4,1.1-5.8
	c0-1.7-0.3-3.1-0.9-4.2C1394,419.3,1393.2,418.6,1392.3,418.4z"/>
<path fill="#60B967" d="M1395.6,436.8c-1-1.1-2.4-1.5-4.2-1.2c1.7-0.1,5.3,1,5.6,6.4C1397,439.6,1396.5,437.9,1395.6,436.8z"/>
<path d="M1241.7,591.1v-57.7l5.2-84.6l-23.1-23.2l-11.5-56.1l3.1-3.1l9.4,54.2l9.8-30.6l8.7-7.6l1.9,1l-8.3,6.6l-9.8,33.3l28.1,23
	l20.9-8.4l5.2-21.2l3.9-0.4l-3.9,21.6l12-3.9l14.8-24.8l-1.7-31.4l2.8-2.1l1.1,35.5l-13.3,26.3l-35.7,16.6l-2.4,91.2l12.8,46.6
	L1241.7,591.1z"/>
<linearGradient id="SVGID_00000027563402428368375990000010508530685276655273_" gradientUnits="userSpaceOnUse" x1="1263.6523" y1="295.925" x2="1263.6523" y2="546.047" gradientTransform="matrix(1 0 0 -1 0 734)">
	<stop  offset="0" style="stop-color:#010001"/>
	<stop  offset="1" style="stop-color:#154719"/>
</linearGradient>
<path fill="url(#SVGID_00000027563402428368375990000010508530685276655273_)" d="M1394.5,390.8l-4.6-4.3l-25.7,30.6l7.4,0.6
	c-22.4,11.5-57.2,17-57.2,17l0.4,3.3l-27.6-12.5l3.3,6.4c-13.9-4.1-26.8-14.2-36.1-23.2c-10-9.7-16.1-18.5-16.1-18.5l-0.4,16.6
	l-37.2-34.5l6.5,18.9l2-3.9l5.9,14.8c-23.3,3.9-72-26.9-72-26.9l-1.5,5.1l-0.7,2.7c0,0-31.6-81.3,2.2-118.7
	c8.3-9,16.3-16.6,23.9-22.6c23.5-18.5,41.8-23.4,41.8-23.4l3.3,6.8c11.5-13.1,28.9-28.1,28.9-28.1l-2.8,7l66.8-10.3l-8.5-5.8
	c48.5,12.9,86.8,59.1,89.2,62l0.2,0.2l4.3-3.7l9.8,79.5l-5.4-2.1C1406.3,347.7,1394.9,389,1394.5,390.8z"/>
<path d="M1394.5,390.8l-4.6-4.3l-40.7,20.9l-0.7-9.2l-35.7,22l2.4-12.5l-20.7,8.8l-30.9-13.6l-9.1,6c-10-9.7-16.1-18.5-16.1-18.5
	l-0.4,16.6l-37.2-34.5l6.5,18.9l2-3.9l5.9,14.8c-23.3,3.9-72-26.9-72-26.9l-1.5,5.1l3-16.4l18.9,5.3l0.9-5.3l6.1,5.3l-0.9-37.8
	l4.1,7.8l51.1-20.7l-4.6,6.4l51.6,30.2l-3.3-5.8l65.7-5.8l-5.9-4.3l35.3-35.9l-8.7,21.8l4.1-1.2l4.8,10.5l11.8-43.3l-9.1-49.7
	l15.4,13.6l3.7-4.7l4.3-3.7l9.8,79.5l-5.4-2.1C1406.3,347.7,1394.9,389,1394.5,390.8z"/>
<linearGradient id="SVGID_00000132066131962662136300000011064141824535932044_" gradientUnits="userSpaceOnUse" x1="1257.6438" y1="364.8543" x2="1269.5437" y2="566.3433" gradientTransform="matrix(1 0 0 -1 0 734)">
	<stop  offset="0" style="stop-color:#010001"/>
	<stop  offset="1" style="stop-color:#154719"/>
</linearGradient>
<path fill="url(#SVGID_00000132066131962662136300000011064141824535932044_)" d="M1381.9,255.3l-15.4-13.6l4.6,19.3l-7.2-13.1
	l-50.7,2.9l-4.8,0.2l10,3.3l-51.6,18.5l2-6l-52.7,47.4l8.7,4.5l-51.1,20.7l-4.1-7.8l0.9,37.8l-3.7-7.2v7.2l-22.2-5.3l-5.9-30.2
	l9.4,10.7l2.8-38.2l21.5-4.9l10.4-35.3l-8.5-0.4l12.4-22l-20,14.6l0.2-16.4c23.5-18.5,41.8-23.4,41.8-23.4l3.3,6.8
	c11.5-13.1,28.9-28.1,28.9-28.1l-2.8,7l66.8-10.3l-8.5-5.8c22.2,6,42.4,18.9,57.9,31.4c18.3,14.8,30,29.2,31.3,30.6l0.2,0.2
	L1381.9,255.3z"/>
<path opacity="0.1" fill="#60B967" enable-background="new    " d="M1233.7,333.1l38.1,22.4l-3.3-5.8l65.7-5.8l-5.9-4.5l23.1-25.9
	l-29,10.5v-12.9l-51.8,22.2h21.8l-21.8,8.8L1233.7,333.1z"/>
<path opacity="0.1" fill="#60B967" enable-background="new    " d="M1322.5,301.5l24.4-34.1l-14.1,11.5l3.5-12.1l-17.8,17.5h8.3
	L1322.5,301.5z"/>
<path opacity="0.2" fill="#60B967" enable-background="new    " d="M1330.1,219.2l-10.2,13.1l4.6,1.6l-15.2,14l4.1,2.9l5.2,3.7
	L1267,273l3.9-10.7l-37,0.4v-6.6L1183,266l-8.5-0.4l12.4-22l-20,14.6l0.2-16.4c23.5-18.5,41.8-23.4,41.8-23.4l3.3,6.8
	c3.9-4.3,8.5-9,12.8-13.1c7.4-7.2,13.9-13.1,15.7-14.6l0.4-0.4l-2.8,7l66.8-10.3l-8.5-5.8c22.2,6,42.4,18.9,57.9,31.4L1330.1,219.2z
	"/>
<linearGradient id="SVGID_00000137118796590211040780000015286378626228071562_" gradientUnits="userSpaceOnUse" x1="1289.285" y1="505.593" x2="1289.285" y2="545.638" gradientTransform="matrix(1 0 0 -1 0 734)">
	<stop  offset="0" style="stop-color:#010001"/>
	<stop  offset="1" style="stop-color:#154719"/>
</linearGradient>
<path opacity="0.3" fill="url(#SVGID_00000137118796590211040780000015286378626228071562_)" enable-background="new    " d="
	M1347.5,228.4l1.7-8l-19.2-1.2l-44.4-0.6l5-9.2l1.7-2.5l-34.8,13.6l-3.3-6.2l-17.6,9.2l1.7-15.6l-13.9,4.5l15.7-14.6l0.4-0.4l-2.8,7
	l66.8-10.3l-8.5-5.8c22.2,6,42.4,18.9,57.9,31.4L1347.5,228.4z"/>
<linearGradient id="SVGID_00000159459179370922960180000014031099745100489632_" gradientUnits="userSpaceOnUse" x1="1266.865" y1="140.882" x2="1266.865" y2="173.739" gradientTransform="matrix(1 0 0 -1 0 734)">
	<stop  offset="0" style="stop-color:#010001"/>
	<stop  offset="1" style="stop-color:#154719"/>
</linearGradient>
<path fill="url(#SVGID_00000159459179370922960180000014031099745100489632_)" d="M1255.4,590.9l19.8-30.6v4.5l-15.4,26.1l20.2-19.7
	v3.5l-12.2,17.2l-14.2,1.2L1255.4,590.9z"/>
<linearGradient id="SVGID_00000070078509524807420010000007220256505731231133_" gradientUnits="userSpaceOnUse" x1="1245.975" y1="140.882" x2="1245.975" y2="173.725" gradientTransform="matrix(1 0 0 -1 0 734)">
	<stop  offset="0" style="stop-color:#010001"/>
	<stop  offset="1" style="stop-color:#154719"/>
</linearGradient>
<path fill="url(#SVGID_00000070078509524807420010000007220256505731231133_)" d="M1250.7,591.9l1.5-25.5h-1.5l-2.6,25.5l-2.2-9.9
	l-6.1,3.9v7.2L1250.7,591.9z"/>
<linearGradient id="SVGID_00000132804700749071875200000013563429796480657313_" gradientUnits="userSpaceOnUse" x1="1286.8899" y1="140.883" x2="1286.8899" y2="173.726" gradientTransform="matrix(1 0 0 -1 0 734)">
	<stop  offset="0" style="stop-color:#010001"/>
	<stop  offset="1" style="stop-color:#154719"/>
</linearGradient>
<path fill="url(#SVGID_00000132804700749071875200000013563429796480657313_)" d="M1273.1,593.1l25.9-28.7l1.7,2.1l-25,26.7H1273.1z
	"/>
<path fill="#60B967" d="M1389.9,246.9l5.2,73.3l-5.2-2.5l5.2,30.6l-0.7,42.5l9.3-31.4l-1.5-1.6l-1.3-22l-6.5-11.5l5.4,2.1
	L1389.9,246.9z"/>
<path fill="#60B967" d="M1389.9,386.3l-4.4-5.8l-21.1,30.4l-13.5,9l13.3-2.9L1389.9,386.3z"/>
<path fill="#60B967" d="M1380.4,305.6v21.2l-15.7,17.9l12.2-19.5l-1.3-26.7l2.6,9.4L1380.4,305.6z"/>
<linearGradient id="SVGID_00000036969922898307523380000005830200120992175509_" gradientUnits="userSpaceOnUse" x1="1182.215" y1="479.307" x2="1182.215" y2="515.244" gradientTransform="matrix(1 0 0 -1 0 734)">
	<stop  offset="0" style="stop-color:#010001"/>
	<stop  offset="1" style="stop-color:#154719"/>
</linearGradient>
<path fill="url(#SVGID_00000036969922898307523380000005830200120992175509_)" d="M1152.5,254.7l49.2-29.6h4.6l5.7,0.4l-3.3-6.8
	c0,0-19.2,7-30.5,15.2C1166.9,242,1152.5,254.7,1152.5,254.7z"/>
<path fill="#60B967" d="M1224.5,212.2l10.7-6.2l3,1.6l73.1-7.4l40.1,17.5l34.2,32.9l-34.2-36.6c0,0-28.1-19.9-55.3-25.9l8.5,5.8
	l-66.8,10.3l2.8-7C1240.9,197.2,1226.5,209.7,1224.5,212.2z"/>
<linearGradient id="SVGID_00000083784954525079790970000011399379360932798616_" gradientUnits="userSpaceOnUse" x1="1109.3931" y1="262.9109" x2="1058.953" y2="206.6889" gradientTransform="matrix(1 0 0 -1 0 734)">
	<stop  offset="0" style="stop-color:#010001"/>
	<stop  offset="1" style="stop-color:#154719"/>
</linearGradient>
<path fill="url(#SVGID_00000083784954525079790970000011399379360932798616_)" d="M1108.1,453.1c-4.6-4.6-12.7-5.3-24.3-2.2
	c-24.1,6.5-39.4,22-46,46.6c-3.2,11.9-2.5,20.3,2,25.2c0.1,0.2,0.3,0.3,0.4,0.4l40,40.2c-0.1-0.1-0.3-0.3-0.4-0.4
	c-4.5-4.9-5.2-13.3-2-25.2c6.5-24.6,21.9-40.2,45.9-46.6c11.6-3.1,19.7-2.4,24.3,2.2L1108.1,453.1z"/>
<linearGradient id="SVGID_00000035505420359478241070000016503441539758455963_" gradientUnits="userSpaceOnUse" x1="1104.6255" y1="227.9147" x2="1142.8356" y2="139.2478" gradientTransform="matrix(1 0 0 -1 0 734)">
	<stop  offset="0" style="stop-color:#010001"/>
	<stop  offset="1" style="stop-color:#154719"/>
</linearGradient>
<path fill="url(#SVGID_00000035505420359478241070000016503441539758455963_)" d="M1123.8,491c11.8-3.2,20-2.4,24.5,2.4
	c4.5,4.8,5.2,13,2.1,24.8c-3.1,11.6-8.7,21.6-16.8,30c-8.1,8.4-18,14.3-29.6,17.4c-11.6,3.1-19.7,2.2-24.2-2.7
	c-4.5-4.9-5.2-13.3-2-25.2C1084.4,513,1099.7,497.5,1123.8,491z"/>
<linearGradient id="SVGID_00000155841311071905102230000012143728885332306853_" gradientUnits="userSpaceOnUse" x1="1234.908" y1="471.664" x2="1085.8781" y2="297.214" gradientTransform="matrix(1 0 0 -1 0 734)">
	<stop  offset="0" style="stop-color:#010001"/>
	<stop  offset="1" style="stop-color:#154719"/>
</linearGradient>
<path fill="url(#SVGID_00000155841311071905102230000012143728885332306853_)" d="M1195.6,257.9c-3.1,7.3-7.3,14.3-12.5,20.8
	c-7.9,10-23.6,25.2-47.2,45.8c-19.8,17.1-34.5,32.5-44.2,46.2c-9.7,13.7-17,29.5-21.7,47.4l-4.1,15.7l40,40.1l0.2-0.7l-0.3,0.1
	l4.1-15.7c4.8-18,12-33.7,21.7-47.4c9.7-13.7,24.4-29,44.2-46.2c23.6-20.6,39.3-35.8,47.2-45.8c7.9-10,13.4-20.8,16.6-32.6
	c1.7-6.5,2.2-12,1.5-16.5c-0.7-3.5-2.2-6.4-4.4-8.6l-3.2-3.2c-7.3-4.5-19.3-4.4-36,0.1C1196.9,257.5,1196.2,257.7,1195.6,257.9z"/>
<linearGradient id="SVGID_00000158730425015978886080000003939824058637409426_" gradientUnits="userSpaceOnUse" x1="1076.793" y1="440.2211" x2="1092.887" y2="500.4168" gradientTransform="matrix(1 0 0 -1 0 734)">
	<stop  offset="0" style="stop-color:#010001"/>
	<stop  offset="1" style="stop-color:#154719"/>
</linearGradient>
<path fill="url(#SVGID_00000158730425015978886080000003939824058637409426_)" d="M1109.4,302.5l-40-40.2l-9.2-37.5l40,40.2
	L1109.4,302.5z"/>
<path fill="#60B967" d="M1060.2,224.9l9.2,37.5l-8-36.3L1060.2,224.9z"/>
<linearGradient id="SVGID_00000076595582645697702520000009743020287676712090_" gradientUnits="userSpaceOnUse" x1="1208.9285" y1="392.0576" x2="1259.7585" y2="522.1506" gradientTransform="matrix(1 0 0 -1 0 734)">
	<stop  offset="0" style="stop-color:#010001"/>
	<stop  offset="1" style="stop-color:#154719"/>
</linearGradient>
<path fill="url(#SVGID_00000076595582645697702520000009743020287676712090_)" d="M1249,175.3l40,40.2c-1.3-1.3-2.7-2.5-4.3-3.7
	l-40-40.2C1246.3,172.7,1247.8,174,1249,175.3z"/>
<linearGradient id="SVGID_00000103977989471630164410000017613206073015042956_" gradientUnits="userSpaceOnUse" x1="1135.4341" y1="420.7735" x2="1186.2642" y2="550.8665" gradientTransform="matrix(1 0 0 -1 0 734)">
	<stop  offset="0" style="stop-color:#010001"/>
	<stop  offset="1" style="stop-color:#154719"/>
</linearGradient>
<path fill="url(#SVGID_00000103977989471630164410000017613206073015042956_)" d="M1100.2,265.1l-40-40.2
	c38.2-27.4,76.2-46.1,114.3-56.3c32.1-8.6,55.6-7.6,70.3,3l40,40.2c-14.7-10.6-38.1-11.6-70.3-3
	C1176.5,219,1138.4,237.8,1100.2,265.1z"/>
<path fill="#60B967" d="M1249,175.3c-1.3-1.3-3.1-2.9-4.7-4l18.2,18.1l22.9,22.4L1249,175.3z"/>
<path fill="#60B967" d="M1174.5,168.6c-38,10.2-76.1,29-114.3,56.3l1.2,1.2c42.9-29.6,139.5-82.1,183.3-54.6
	C1230,161,1206.6,159.9,1174.5,168.6z"/>
<linearGradient id="SVGID_00000136382530653308734350000003528764590793372064_" gradientUnits="userSpaceOnUse" x1="1167.7562" y1="402.6749" x2="1336.0363" y2="530.7919" gradientTransform="matrix(1 0 0 -1 0 734)">
	<stop  offset="0" style="stop-color:#010001"/>
	<stop  offset="1" style="stop-color:#154719"/>
</linearGradient>
<path fill="url(#SVGID_00000136382530653308734350000003528764590793372064_)" d="M1284.7,211.1c14.7,10.6,18.4,29.7,11.1,57.2
	c-3.3,12.2-8,23.6-14.1,34.1c-6.2,10.5-14,21.1-23.6,31.6c-9.6,10.6-25.1,25.2-46.7,43.9c-18.4,16-31.2,28.6-38.5,37.8
	c-7.2,9.2-12.6,20.4-16.1,33.6l-3,11l-48.2,12.9l4.1-15.7c4.8-18,12-33.7,21.7-47.4c9.7-13.7,24.4-29,44.2-46.2
	c23.6-20.6,39.3-35.8,47.2-45.8c7.9-10,13.4-20.8,16.6-32.6c3.6-13.7,1.4-22.4-5.8-27.3c-7.2-4.9-19.1-5.6-36.3-1
	c-15.5,4.2-30.6,10.2-45,18.2c-14.5,7.9-28.8,16.7-43,26.3l-9.2-37.5c38.2-27.4,76.2-46.1,114.2-56.3
	C1246.6,199.5,1270,200.5,1284.7,211.1z"/>
<path fill-rule="evenodd" clip-rule="evenodd" fill="#60B967" d="M1780.6,225c0,0-22.4-20.5-41.3-27.4c-18.9-6.8-30,4.2-30,4.2
	s-18.9-24.3-32.8-27l31.5,36.6L1780.6,225z"/>
<linearGradient id="SVGID_00000098220884450688765900000000817127494669889416_" gradientUnits="userSpaceOnUse" x1="1549.11" y1="505.343" x2="1549.11" y2="593.7928" gradientTransform="matrix(1 0 0 -1 0 734)">
	<stop  offset="0" style="stop-color:#010001"/>
	<stop  offset="1" style="stop-color:#154719"/>
</linearGradient>
<path fill-rule="evenodd" clip-rule="evenodd" fill="url(#SVGID_00000098220884450688765900000000817127494669889416_)" d="
	M1454.8,228.7l129.9-2.5l58.7-1.2c0,0-9.1-13.6-23.5-29.9c-11.6-13.2-26.7-28.1-43.2-39.1c-12.4-8.2-25.5-14.3-38.7-15.6
	c-21.6-2.3-43.5,22.2-59.4,46C1464.3,207.8,1454.8,228.7,1454.8,228.7z"/>
<linearGradient id="SVGID_00000009562265057982622430000014816951596434360972_" gradientUnits="userSpaceOnUse" x1="1537.355" y1="505.342" x2="1537.355" y2="577.953" gradientTransform="matrix(1 0 0 -1 0 734)">
	<stop  offset="0" style="stop-color:#FFFFFF;stop-opacity:0"/>
	<stop  offset="1" style="stop-color:#FFFFFF"/>
</linearGradient>
<path opacity="0.2" fill-rule="evenodd" clip-rule="evenodd" fill="url(#SVGID_00000009562265057982622430000014816951596434360972_)" enable-background="new    " d="
	M1454.8,228.7l129.9-2.5l33.9-2.3l1.3-28.8c-11.6-13.2-26.7-28.1-43.2-39.1c0.2,0.6,5.2,19.7-5.7,29c-10.9,9.5-64.7,24.9-85,18.6
	c-9.6-3-7.4-16.7-7.4-17.3C1464.3,207.8,1454.8,228.7,1454.8,228.7z"/>
<linearGradient id="SVGID_00000043449052096712371260000002068824258463346861_" gradientUnits="userSpaceOnUse" x1="1640.575" y1="511.759" x2="1640.575" y2="559.3041" gradientTransform="matrix(1 0 0 -1 0 734)">
	<stop  offset="0" style="stop-color:#010001"/>
	<stop  offset="1" style="stop-color:#154719"/>
</linearGradient>
<path fill-rule="evenodd" clip-rule="evenodd" fill="url(#SVGID_00000043449052096712371260000002068824258463346861_)" d="
	M1558.8,222.2c0,0,10.6-39.3,45.6-42.3c34.9-3,56.8,24.1,56.8,24.1s1.5-31.3,15.4-29.2c13.9,2.1,45.8,45.5,45.8,45.5L1558.8,222.2z"
	/>
<linearGradient id="SVGID_00000058558799396803062970000012567878611921430716_" gradientUnits="userSpaceOnUse" x1="1670.22" y1="501.628" x2="1670.22" y2="518.409" gradientTransform="matrix(1 0 0 -1 0 734)">
	<stop  offset="0" style="stop-color:#010001"/>
	<stop  offset="1" style="stop-color:#154719"/>
</linearGradient>
<path fill-rule="evenodd" clip-rule="evenodd" fill="url(#SVGID_00000058558799396803062970000012567878611921430716_)" d="
	M1659.8,232.4c0,0,0.7-13.7,6.9-16.5c6.2-2.8,13.9,13.6,13.9,13.6L1659.8,232.4z"/>
<linearGradient id="SVGID_00000088836701982268860800000018117453551388742298_" gradientUnits="userSpaceOnUse" x1="1644.7649" y1="508.973" x2="1644.7649" y2="588.9366" gradientTransform="matrix(1 0 0 -1 0 734)">
	<stop  offset="0" style="stop-color:#010001"/>
	<stop  offset="1" style="stop-color:#154719"/>
</linearGradient>
<path fill-rule="evenodd" clip-rule="evenodd" fill="url(#SVGID_00000088836701982268860800000018117453551388742298_)" d="
	M1508.9,223.2l188.3,1.3l83.3,0.6c0,0-30.9-24.8-49.6-26.5c-17.3-1.6-27.4,9.7-27.4,9.7l-6.8,10l-5.2,0.3c0,0-4.3-24.8-15.6-45.8
	c-6.3-11.7-15-22.2-26.2-26.3c-21.5-7.8-41.8,19.1-54.3,40.8c-7.7,13.4-12.4,24.9-12.4,24.9s-0.1-0.1-0.3-0.3
	c-1.8-1.7-10.6-9.9-19.2-11.7C1543.5,195.7,1508.9,223.2,1508.9,223.2z"/>
<linearGradient id="SVGID_00000119098839013661408720000008690254068849089165_" gradientUnits="userSpaceOnUse" x1="1603.11" y1="509.564" x2="1603.11" y2="561.312" gradientTransform="matrix(1 0 0 -1 0 734)">
	<stop  offset="0" style="stop-color:#FFFFFF;stop-opacity:0"/>
	<stop  offset="1" style="stop-color:#FFFFFF"/>
</linearGradient>
<path opacity="0.2" fill-rule="evenodd" clip-rule="evenodd" fill="url(#SVGID_00000119098839013661408720000008690254068849089165_)" enable-background="new    " d="
	M1508.9,223.2l188.3,1.3l-0.4-6.2l-5.2,0.3c0,0-4.3-24.8-15.6-45.8c0.2,0.5,6.8,21.5,0.3,24.5c-6.6,3-73.5,11.6-78.9,7.6
	c-5.3-4-2-17.1-1.9-17.6c-7.7,13.4-12.4,24.9-12.4,24.9s-0.1-0.1-0.3-0.3c-0.5,0.5-1.2,0.9-2.1,1.3
	C1571.7,216.4,1508.9,223.2,1508.9,223.2z"/>
<linearGradient id="SVGID_00000029738167634391284490000010082158703790184608_" gradientUnits="userSpaceOnUse" x1="1633.0449" y1="520.876" x2="1633.0449" y2="555.5344" gradientTransform="matrix(1 0 0 -1 0 734)">
	<stop  offset="0" style="stop-color:#010001"/>
	<stop  offset="1" style="stop-color:#154719"/>
</linearGradient>
<path fill-rule="evenodd" clip-rule="evenodd" fill="url(#SVGID_00000029738167634391284490000010082158703790184608_)" d="
	M1661.8,213c0,0-7.4-30.3-22.8-34.3c-15.3-4.1-34.8,34.4-34.8,34.4S1644.2,209.7,1661.8,213z"/>
<linearGradient id="SVGID_00000001651249356406650650000014533442142584637601_" gradientUnits="userSpaceOnUse" x1="1617.7001" y1="517.619" x2="1617.7001" y2="476.834" gradientTransform="matrix(1 0 0 -1 0 734)">
	<stop  offset="0" style="stop-color:#010001"/>
	<stop  offset="1" style="stop-color:#154719"/>
</linearGradient>
<path fill-rule="evenodd" clip-rule="evenodd" fill="url(#SVGID_00000001651249356406650650000014533442142584637601_)" d="
	M1454.8,228.7l105.1-2.7l-50.9-2.8c0,0,62.5-6.4,120.8-7.3h-6.1l-19.4-2.7c24.8-3.9,57.6,0,57.6,0l-9.4,2.6h-0.2
	c4.1,0.1,8.1,0.1,12,0.3c64.7,2,116.3,9,116.3,9s-87.8,7.2-120.8,7.4l7.9-2.7C1667.7,229.7,1523.7,230.3,1454.8,228.7z"/>
<path fill-rule="evenodd" clip-rule="evenodd" fill="#60B967" d="M894.2,193.2c0,0-12.5-11.5-23.1-15.3c-10.5-3.8-16.8,2.4-16.8,2.4
	s-10.6-13.6-18.4-15.1l17.6,20.5L894.2,193.2z"/>
<linearGradient id="SVGID_00000176032542828654127470000011644431666506943369_" gradientUnits="userSpaceOnUse" x1="764.75" y1="538.781" x2="764.75" y2="588.2537" gradientTransform="matrix(1 0 0 -1 0 734)">
	<stop  offset="0" style="stop-color:#010001"/>
	<stop  offset="1" style="stop-color:#154719"/>
</linearGradient>
<path fill-rule="evenodd" clip-rule="evenodd" fill="url(#SVGID_00000176032542828654127470000011644431666506943369_)" d="
	M712,195.2l72.7-1.4l32.8-0.7c0,0-5.1-7.6-13.2-16.7c-6.5-7.4-14.9-15.7-24.2-21.9c-6.9-4.6-14.3-8-21.6-8.7
	c-12.1-1.3-24.3,12.4-33.2,25.7C717.3,183.6,712,195.2,712,195.2z"/>
<linearGradient id="SVGID_00000146485732531950074820000010959539522826568626_" gradientUnits="userSpaceOnUse" x1="758.175" y1="538.781" x2="758.175" y2="579.395" gradientTransform="matrix(1 0 0 -1 0 734)">
	<stop  offset="0" style="stop-color:#FFFFFF;stop-opacity:0"/>
	<stop  offset="1" style="stop-color:#FFFFFF"/>
</linearGradient>
<path opacity="0.2" fill-rule="evenodd" clip-rule="evenodd" fill="url(#SVGID_00000146485732531950074820000010959539522826568626_)" enable-background="new    " d="
	M712,195.2l72.7-1.4l19-1.3l0.7-16.1c-6.5-7.4-14.9-15.7-24.2-21.9c0.1,0.3,2.9,11-3.2,16.2c-6.1,5.3-36.2,13.9-47.5,10.4
	c-5.3-1.7-4.2-9.3-4.1-9.7C717.3,183.6,712,195.2,712,195.2z"/>
<linearGradient id="SVGID_00000052080324754582812630000010073928189562538423_" gradientUnits="userSpaceOnUse" x1="815.9075" y1="542.37" x2="815.9075" y2="568.9631" gradientTransform="matrix(1 0 0 -1 0 734)">
	<stop  offset="0" style="stop-color:#010001"/>
	<stop  offset="1" style="stop-color:#154719"/>
</linearGradient>
<path fill-rule="evenodd" clip-rule="evenodd" fill="url(#SVGID_00000052080324754582812630000010073928189562538423_)" d="
	M770.1,191.6c0,0,5.9-22,25.5-23.7c19.5-1.7,31.8,13.5,31.8,13.5s0.9-17.5,8.6-16.3c7.8,1.2,25.6,25.5,25.6,25.5L770.1,191.6z"/>
<linearGradient id="SVGID_00000109734460643962543160000002612362320980500893_" gradientUnits="userSpaceOnUse" x1="832.4895" y1="536.703" x2="832.4895" y2="546.0894" gradientTransform="matrix(1 0 0 -1 0 734)">
	<stop  offset="0" style="stop-color:#010001"/>
	<stop  offset="1" style="stop-color:#154719"/>
</linearGradient>
<path fill-rule="evenodd" clip-rule="evenodd" fill="url(#SVGID_00000109734460643962543160000002612362320980500893_)" d="
	M826.7,197.3c0,0,0.4-7.6,3.8-9.2s7.8,7.6,7.8,7.6L826.7,197.3z"/>
<linearGradient id="SVGID_00000159463785620448465410000009866467707736683683_" gradientUnits="userSpaceOnUse" x1="818.251" y1="540.812" x2="818.251" y2="585.538" gradientTransform="matrix(1 0 0 -1 0 734)">
	<stop  offset="0" style="stop-color:#010001"/>
	<stop  offset="1" style="stop-color:#154719"/>
</linearGradient>
<path fill-rule="evenodd" clip-rule="evenodd" fill="url(#SVGID_00000159463785620448465410000009866467707736683683_)" d="
	M742.3,192.1l105.3,0.7l46.6,0.3c0,0-17.3-13.9-27.7-14.8c-9.7-0.9-15.3,5.4-15.3,5.4l-3.8,5.6l-2.9,0.1c0,0-2.4-13.9-8.8-25.6
	c-3.5-6.6-8.4-12.4-14.7-14.7c-12-4.3-23.4,10.7-30.4,22.8c-4.3,7.5-7,13.9-7,13.9s0,0-0.2-0.2c-1-0.9-5.9-5.5-10.7-6.6
	C761.6,176.8,742.3,192.1,742.3,192.1z"/>
<linearGradient id="SVGID_00000112617456393490104430000012390769186219589819_" gradientUnits="userSpaceOnUse" x1="794.9561" y1="541.142" x2="794.9561" y2="570.057" gradientTransform="matrix(1 0 0 -1 0 734)">
	<stop  offset="0" style="stop-color:#FFFFFF;stop-opacity:0"/>
	<stop  offset="1" style="stop-color:#FFFFFF"/>
</linearGradient>
<path opacity="0.2" fill-rule="evenodd" clip-rule="evenodd" fill="url(#SVGID_00000112617456393490104430000012390769186219589819_)" enable-background="new    " d="
	M742.3,192.1l105.3,0.7l-0.2-3.5l-2.9,0.1c0,0-2.4-13.9-8.8-25.6c0.1,0.3,3.8,12,0.2,13.7c-3.7,1.7-41.1,6.5-44.1,4.2
	c-3-2.2-1.1-9.6-1.1-9.9c-4.3,7.5-7,13.9-7,13.9s0,0-0.2-0.2c-0.3,0.3-0.7,0.5-1.2,0.7C777.4,188.4,742.3,192.1,742.3,192.1z"/>
<linearGradient id="SVGID_00000168103568661932359070000014930842622640585149_" gradientUnits="userSpaceOnUse" x1="811.699" y1="547.469" x2="811.699" y2="566.8544" gradientTransform="matrix(1 0 0 -1 0 734)">
	<stop  offset="0" style="stop-color:#010001"/>
	<stop  offset="1" style="stop-color:#154719"/>
</linearGradient>
<path fill-rule="evenodd" clip-rule="evenodd" fill="url(#SVGID_00000168103568661932359070000014930842622640585149_)" d="
	M827.8,186.5c0,0-4.2-17-12.7-19.2c-8.6-2.3-19.5,19.2-19.5,19.2S818,184.6,827.8,186.5z"/>
<linearGradient id="SVGID_00000098931735090890937540000018094966194850071199_" gradientUnits="userSpaceOnUse" x1="803.1135" y1="545.648" x2="803.1135" y2="522.835" gradientTransform="matrix(1 0 0 -1 0 734)">
	<stop  offset="0" style="stop-color:#010001"/>
	<stop  offset="1" style="stop-color:#154719"/>
</linearGradient>
<path fill-rule="evenodd" clip-rule="evenodd" fill="url(#SVGID_00000098931735090890937540000018094966194850071199_)" d="
	M712,195.2l58.8-1.5l-28.5-1.6c0,0,35-3.6,67.5-4.1h-3.4l-10.9-1.5c13.9-2.2,32.2,0,32.2,0l-5.2,1.5h-0.1c2.3,0,4.5,0,6.7,0.1
	c36.2,1.1,65,5.1,65,5.1s-49.1,4-67.5,4.2l4.4-1.5C831.1,195.8,750.6,196.1,712,195.2z"/>
<linearGradient id="SVGID_00000031901905046699396860000011929614997510959804_" gradientUnits="userSpaceOnUse" x1="998.6825" y1="434.973" x2="985.4055" y2="448.274" gradientTransform="matrix(1 0 0 -1 0 734)">
	<stop  offset="0" style="stop-color:#010001"/>
	<stop  offset="1" style="stop-color:#154719"/>
</linearGradient>
<path fill="url(#SVGID_00000031901905046699396860000011929614997510959804_)" d="M1004.5,293.2l-18.2,5.2l-6.8-6.8l18.2-5.1
	L1004.5,293.2z"/>
<linearGradient id="SVGID_00000078003836054644327150000004502408549792413064_" gradientUnits="userSpaceOnUse" x1="1003.7482" y1="452.791" x2="996.9392" y2="459.6129" gradientTransform="matrix(1 0 0 -1 0 734)">
	<stop  offset="0" style="stop-color:#010001"/>
	<stop  offset="1" style="stop-color:#154719"/>
</linearGradient>
<path fill="url(#SVGID_00000078003836054644327150000004502408549792413064_)" d="M1009.4,275.6l-17.4,5.1l10.5-11.9L1009.4,275.6z"
	/>
<linearGradient id="SVGID_00000088114248086753099620000011397435516968282274_" gradientUnits="userSpaceOnUse" x1="989.6733" y1="484.7386" x2="984.4153" y2="464.4856" gradientTransform="matrix(1 0 0 -1 0 734)">
	<stop  offset="0" style="stop-color:#010001"/>
	<stop  offset="1" style="stop-color:#154719"/>
</linearGradient>
<path fill="url(#SVGID_00000088114248086753099620000011397435516968282274_)" d="M977,261.2l13.3,13.3l8.2-16.7l-4.5-19.9
	l-12.8,1.4L977,261.2z"/>
<linearGradient id="SVGID_00000092447640278430509940000003509706250481310136_" gradientUnits="userSpaceOnUse" x1="967.2479" y1="499.4358" x2="966.6989" y2="477.6548" gradientTransform="matrix(1 0 0 -1 0 734)">
	<stop  offset="0" style="stop-color:#010001"/>
	<stop  offset="1" style="stop-color:#154719"/>
</linearGradient>
<path fill="url(#SVGID_00000092447640278430509940000003509706250481310136_)" d="M957.3,241.3l11.5,11.5l8.3-21.2l-9-13.7l-8.7,5.5
	L957.3,241.3z"/>
<linearGradient id="SVGID_00000107584107779000475760000012260722655327372970_" gradientUnits="userSpaceOnUse" x1="938.5244" y1="496.1592" x2="936.8535" y2="483.6483" gradientTransform="matrix(1 0 0 -1 0 734)">
	<stop  offset="0" style="stop-color:#010001"/>
	<stop  offset="1" style="stop-color:#154719"/>
</linearGradient>
<path fill="url(#SVGID_00000107584107779000475760000012260722655327372970_)" d="M927.5,250.3l2.3-8.4l18.2-5.1l-2.3,8.4
	L927.5,250.3z"/>
<linearGradient id="SVGID_00000153677880181184703370000001248509852808697476_" gradientUnits="userSpaceOnUse" x1="947.4315" y1="503.13" x2="937.8615" y2="512.717" gradientTransform="matrix(1 0 0 -1 0 734)">
	<stop  offset="0" style="stop-color:#010001"/>
	<stop  offset="1" style="stop-color:#154719"/>
</linearGradient>
<path fill="url(#SVGID_00000153677880181184703370000001248509852808697476_)" d="M952.9,219.2l-18.1,5.2l-2.4,8.4l18.2-5.1
	L952.9,219.2z"/>
<linearGradient id="SVGID_00000002375169623328248290000011387757135482883214_" gradientUnits="userSpaceOnUse" x1="954.3793" y1="517.134" x2="945.8453" y2="525.684" gradientTransform="matrix(1 0 0 -1 0 734)">
	<stop  offset="0" style="stop-color:#010001"/>
	<stop  offset="1" style="stop-color:#533019"/>
</linearGradient>
<path fill="url(#SVGID_00000002375169623328248290000011387757135482883214_)" d="M959.5,207.3l-17.5,4.9l0.1,7.1l16.9-7.1
	L959.5,207.3z"/>
<linearGradient id="SVGID_00000093899340859808854400000011877987683418662018_" gradientUnits="userSpaceOnUse" x1="942.198" y1="491.354" x2="928.923" y2="504.654" gradientTransform="matrix(1 0 0 -1 0 734)">
	<stop  offset="0" style="stop-color:#010001"/>
	<stop  offset="1" style="stop-color:#154719"/>
</linearGradient>
<path fill="url(#SVGID_00000093899340859808854400000011877987683418662018_)" d="M923.1,235.2l18.1-5.2l6.8,6.8l-18.2,5.1
	L923.1,235.2z"/>
<linearGradient id="SVGID_00000094614866368259830850000018400090853915726738_" gradientUnits="userSpaceOnUse" x1="946.8762" y1="508.7824" x2="933.5198" y2="522.1636" gradientTransform="matrix(1 0 0 -1 0 734)">
	<stop  offset="0" style="stop-color:#010001"/>
	<stop  offset="1" style="stop-color:#154719"/>
</linearGradient>
<path fill="url(#SVGID_00000094614866368259830850000018400090853915726738_)" d="M927.5,217.8l18.6-5.4l6.8,6.8l-18.6,5.4
	L927.5,217.8z"/>
<linearGradient id="SVGID_00000146478418114803598690000000369490568971191215_" gradientUnits="userSpaceOnUse" x1="943.0136" y1="518.4229" x2="933.2725" y2="528.1819" gradientTransform="matrix(1 0 0 -1 0 734)">
	<stop  offset="0" style="stop-color:#010001"/>
	<stop  offset="1" style="stop-color:#154719"/>
</linearGradient>
<path fill="url(#SVGID_00000146478418114803598690000000369490568971191215_)" d="M930.2,208.9l18.3-5.4l-2.7,9.3l-18.1,5.2
	L930.2,208.9z"/>
<linearGradient id="SVGID_00000109000720069561112670000014586702769086386338_" gradientUnits="userSpaceOnUse" x1="938.1804" y1="500.7044" x2="928.4388" y2="510.464" gradientTransform="matrix(1 0 0 -1 0 734)">
	<stop  offset="0" style="stop-color:#010001"/>
	<stop  offset="1" style="stop-color:#154719"/>
</linearGradient>
<path fill="url(#SVGID_00000109000720069561112670000014586702769086386338_)" d="M925.3,226.7l18.3-5.8l-2.7,9.7l-18.1,5.2
	L925.3,226.7z"/>
<linearGradient id="SVGID_00000006685011495326022210000012258498158856603264_" gradientUnits="userSpaceOnUse" x1="1015.0214" y1="451.2833" x2="942.0886" y2="524.3492" gradientTransform="matrix(1 0 0 -1 0 734)">
	<stop  offset="0" style="stop-color:#010001"/>
	<stop  offset="1" style="stop-color:#154719"/>
</linearGradient>
<path fill="url(#SVGID_00000006685011495326022210000012258498158856603264_)" d="M1009.4,275.6l-6.8-6.8c-0.5,1.7-0.9,3.7-1.6,5.7
	l-0.8,2.9l6.8,6.8l-2.4,9l-6.8-6.8l-2.3,8.4l-49.7-49.7l2.3-8.4l-6.8-6.8l2.5-9.1l6.8,6.8l1.7-6.4c0.3-0.8,0.4-1.5,0.6-2.2l-6.8-6.8
	l2.5-9.1l7.4,7.4c1-1.7,2.1-2.8,3.4-3.6c1.5-0.8,3.3-0.9,5.4-0.4c2.1,0.5,4.2,1.9,6.3,4c2.3,2.3,4.3,5.2,5.9,8.6
	c1.5,3.5,2.4,6.9,2.7,10.4c1.8-2.7,4.2-4,6.8-3.9c2.6,0.2,5.4,1.7,8.3,4.6c2.2,2.2,4.2,5.1,6,8.5c1.8,3.4,3,6.8,3.7,10.3
	c0.7,3.3,0.7,6.7,0.3,10.1l7.1,7.1L1009.4,275.6z M977,261.2l13.3,13.3l3-11.1c1.2-4.3,1.8-7.1,2-8.5c0.2-2.1,0-4.2-0.7-6.3
	c-0.8-2.2-2.1-4.2-3.8-5.9c-1.5-1.5-2.9-2.3-4.2-2.6c-1.2-0.2-2.4,0.3-3.3,1.4c-0.9,1.4-2,4.6-3.6,10.1L977,261.2z M957.3,241.3
	l11.5,11.5l2.2-7.8c1.3-4.7,2.1-7.6,2.2-8.8c0.4-2.3,0.2-4.5-0.5-6.6c-0.6-2.2-1.8-4.1-3.4-5.6s-2.9-2.2-4.2-2.2c-1.2,0-2.2,1-3,2.8
	c-0.4,1.1-1.4,4.4-3,10.1L957.3,241.3z"/>
<linearGradient id="SVGID_00000142872677723120109000000007606653771945063067_" gradientUnits="userSpaceOnUse" x1="989.5759" y1="433.2986" x2="933.3682" y2="489.6094" gradientTransform="matrix(1 0 0 -1 0 734)">
	<stop  offset="0" style="stop-color:#010001"/>
	<stop  offset="1" style="stop-color:#154719"/>
</linearGradient>
<path fill="url(#SVGID_00000142872677723120109000000007606653771945063067_)" d="M927.5,250.3l18.2-5.1l49.7,49.7l-18.2,5.1
	L927.5,250.3z"/>
<path fill="#60B967" d="M943.7,220.9l-18.4,5.8l-2.5,9.1l3.4-7.9L943.7,220.9z"/>
<path fill="#60B967" d="M944.8,237.8l-14.9,4.1l-2.1,7.5l2.3-6.8L944.8,237.8z"/>
<path fill="#60B967" d="M948.5,203.4l-18.3,5.4l-2.5,9.1l3.4-7.9L948.5,203.4z"/>
<linearGradient id="SVGID_00000033367123659282707850000016433393563661346708_" gradientUnits="userSpaceOnUse" x1="1019.2919" y1="451.9257" x2="946.3605" y2="524.9912" gradientTransform="matrix(1 0 0 -1 0 734)">
	<stop  offset="0" style="stop-color:#010001"/>
	<stop  offset="1" style="stop-color:#1C5620"/>
</linearGradient>
<path fill="url(#SVGID_00000033367123659282707850000016433393563661346708_)" d="M1013.7,274.9l-6.8-6.8c-0.4,1.7-0.9,3.7-1.6,5.7
	l-0.8,2.9l6.8,6.8l-2.5,9.1l-6.8-6.8l-2.3,8.4l-49.7-49.7l2.3-8.4l-6.8-6.8l2.5-9.1l6.8,6.8l1.7-6.4c0.3-0.8,0.4-1.5,0.6-2.2
	l-6.8-6.8l2.5-9.1l7.4,7.4c1-1.7,2.1-2.8,3.4-3.6c1.5-0.8,3.3-0.9,5.4-0.4c2.1,0.5,4.2,1.9,6.3,4c2.3,2.3,4.3,5.2,5.9,8.6
	c1.5,3.5,2.4,6.9,2.7,10.4c1.9-2.7,4.2-4,6.8-3.9c2.6,0.2,5.4,1.7,8.3,4.6c2.2,2.2,4.2,5.1,6,8.5c1.8,3.4,3,6.8,3.7,10.3
	c0.7,3.3,0.7,6.7,0.3,10.1l7.1,7.1L1013.7,274.9z M981.5,260.4l13.3,13.3l3-11.1c1.2-4.3,1.8-7.1,2-8.5c0.2-2.1,0-4.2-0.7-6.3
	s-2.1-4.2-3.8-5.9c-1.5-1.5-2.9-2.3-4.2-2.6c-1.2-0.2-2.4,0.3-3.3,1.4c-1,1.1-2.2,4.4-3.6,9.8L981.5,260.4z M961.7,240.6l11.5,11.5
	l2.2-7.8c1.3-4.7,2.1-7.6,2.2-8.8c0.4-2.3,0.2-4.5-0.5-6.6c-0.6-2.2-1.8-4.1-3.4-5.6c-1.6-1.6-2.9-2.2-4.2-2.2c-1.2,0-2.2,1-3,2.8
	c-0.4,1.1-1.4,4.4-3,10.1L961.7,240.6z"/>
<path fill="#60B967" d="M963.8,206.3c-1.3,0.8-2.5,1.9-3.4,3.6c4.1-2.9,14-5.2,21,8.7c-1.5-3.5-3.5-6.3-5.9-8.6
	c-2.2-2.2-4.2-3.5-6.3-4C967.1,205.4,965.3,205.5,963.8,206.3z"/>
<path fill="#60B967" d="M990.9,225.1c-2.6-0.2-5,1.2-6.8,3.9c2.1-2.3,8-5.4,15.1,0.7C996.3,226.8,993.5,225.3,990.9,225.1z"/>
<linearGradient id="SVGID_00000163061547753905423450000005351841374805471630_" gradientUnits="userSpaceOnUse" x1="856.468" y1="263.694" x2="856.468" y2="269.575" gradientTransform="matrix(1 0 0 -1 0 734)">
	<stop  offset="0" style="stop-color:#010001"/>
	<stop  offset="1" style="stop-color:#154719"/>
</linearGradient>
<path fill="url(#SVGID_00000163061547753905423450000005351841374805471630_)" d="M859,470.3l-5.1-2.9v-3l5.1,2.9V470.3z"/>
<linearGradient id="SVGID_00000005259678901684609050000011123086487242245792_" gradientUnits="userSpaceOnUse" x1="861.4475" y1="266.521" x2="861.4475" y2="269.538" gradientTransform="matrix(1 0 0 -1 0 734)">
	<stop  offset="0" style="stop-color:#010001"/>
	<stop  offset="1" style="stop-color:#154719"/>
</linearGradient>
<path fill="url(#SVGID_00000005259678901684609050000011123086487242245792_)" d="M863.9,467.5l-4.9-2.7l4.9-0.3V467.5z"/>
<linearGradient id="SVGID_00000122001311009575957320000017958448396670403496_" gradientUnits="userSpaceOnUse" x1="865.3448" y1="276.7115" x2="859.7399" y2="273.4736" gradientTransform="matrix(1 0 0 -1 0 734)">
	<stop  offset="0" style="stop-color:#010001"/>
	<stop  offset="1" style="stop-color:#154719"/>
</linearGradient>
<path fill="url(#SVGID_00000122001311009575957320000017958448396670403496_)" d="M860,457.1v5.9l5.4-1.9l3.4-5.4l-3.1-2.5
	L860,457.1z"/>
<linearGradient id="SVGID_00000005227352497173433040000005384654563197279155_" gradientUnits="userSpaceOnUse" x1="863.6765" y1="284.9138" x2="858.7355" y2="280.2928" gradientTransform="matrix(1 0 0 -1 0 734)">
	<stop  offset="0" style="stop-color:#010001"/>
	<stop  offset="1" style="stop-color:#154719"/>
</linearGradient>
<path fill="url(#SVGID_00000005227352497173433040000005384654563197279155_)" d="M860,448.4v5.1l6.4-2.9l1-5l-3.1-0.7L860,448.4z"
	/>
<linearGradient id="SVGID_00000158007910791239071290000014175433420582238634_" gradientUnits="userSpaceOnUse" x1="856.7276" y1="290.5228" x2="853.6006" y2="288.1718" gradientTransform="matrix(1 0 0 -1 0 734)">
	<stop  offset="0" style="stop-color:#010001"/>
	<stop  offset="1" style="stop-color:#154719"/>
</linearGradient>
<path fill="url(#SVGID_00000158007910791239071290000014175433420582238634_)" d="M851.6,443.8l2.3-1.3l5.1,2.9l-2.3,1.3
	L851.6,443.8z"/>
<linearGradient id="SVGID_00000021831100124492633170000007889026530232054671_" gradientUnits="userSpaceOnUse" x1="860.169" y1="290.121" x2="860.169" y2="294.359" gradientTransform="matrix(1 0 0 -1 0 734)">
	<stop  offset="0" style="stop-color:#010001"/>
	<stop  offset="1" style="stop-color:#154719"/>
</linearGradient>
<path fill="url(#SVGID_00000021831100124492633170000007889026530232054671_)" d="M863.9,442.5l-5.1-2.9l-2.4,1.3l5.1,2.9
	L863.9,442.5z"/>
<linearGradient id="SVGID_00000173136844312987885480000011453093049645356206_" gradientUnits="userSpaceOnUse" x1="864.732" y1="291.686" x2="864.732" y2="295.466" gradientTransform="matrix(1 0 0 -1 0 734)">
	<stop  offset="0" style="stop-color:#010001"/>
	<stop  offset="1" style="stop-color:#533019"/>
</linearGradient>
<path fill="url(#SVGID_00000173136844312987885480000011453093049645356206_)" d="M867.9,441.3l-4.9-2.8l-1.5,1.6l5.2,2.2
	L867.9,441.3z"/>
<linearGradient id="SVGID_00000066499216769150858650000013383323648602762644_" gradientUnits="userSpaceOnUse" x1="856.468" y1="288.67" x2="856.468" y2="294.551" gradientTransform="matrix(1 0 0 -1 0 734)">
	<stop  offset="0" style="stop-color:#010001"/>
	<stop  offset="1" style="stop-color:#154719"/>
</linearGradient>
<path fill="url(#SVGID_00000066499216769150858650000013383323648602762644_)" d="M853.9,439.4l5.1,2.9v3l-5.1-2.9V439.4z"/>
<linearGradient id="SVGID_00000130634868897669988540000012749845763294838937_" gradientUnits="userSpaceOnUse" x1="861.2815" y1="291.495" x2="861.2815" y2="297.412" gradientTransform="matrix(1 0 0 -1 0 734)">
	<stop  offset="0" style="stop-color:#010001"/>
	<stop  offset="1" style="stop-color:#154719"/>
</linearGradient>
<path fill="url(#SVGID_00000130634868897669988540000012749845763294838937_)" d="M858.7,436.6l5.2,2.9v3l-5.2-2.9V436.6z"/>
<linearGradient id="SVGID_00000126318466511029266560000016056520113641977501_" gradientUnits="userSpaceOnUse" x1="862.5405" y1="294.484" x2="862.5405" y2="298.799" gradientTransform="matrix(1 0 0 -1 0 734)">
	<stop  offset="0" style="stop-color:#010001"/>
	<stop  offset="1" style="stop-color:#154719"/>
</linearGradient>
<path fill="url(#SVGID_00000126318466511029266560000016056520113641977501_)" d="M861.2,435.2l5.2,2.8l-2.6,1.5l-5.1-2.9
	L861.2,435.2z"/>
<linearGradient id="SVGID_00000004537653839029085310000009300400009439163287_" gradientUnits="userSpaceOnUse" x1="857.6305" y1="291.629" x2="857.6305" y2="295.944" gradientTransform="matrix(1 0 0 -1 0 734)">
	<stop  offset="0" style="stop-color:#010001"/>
	<stop  offset="1" style="stop-color:#154719"/>
</linearGradient>
<path fill="url(#SVGID_00000004537653839029085310000009300400009439163287_)" d="M856.3,438.1l5.2,2.8l-2.7,1.6l-5.1-2.9
	L856.3,438.1z"/>
<linearGradient id="SVGID_00000116934249404788886680000001135334255956841355_" gradientUnits="userSpaceOnUse" x1="863.6045" y1="263.694" x2="863.6045" y2="296.001" gradientTransform="matrix(1 0 0 -1 0 734)">
	<stop  offset="0" style="stop-color:#010001"/>
	<stop  offset="1" style="stop-color:#154719"/>
</linearGradient>
<path fill="url(#SVGID_00000116934249404788886680000001135334255956841355_)" d="M863.9,467.5v-3c-0.5,0.3-1,0.6-1.6,0.9l-0.8,0.5
	v3l-2.5,1.5v-3l-2.3,1.3v-22l2.3-1.3v-3l2.5-1.5v3l1.8-1c0.2-0.1,0.4-0.2,0.6-0.3v-3l2.5-1.5v3.3c0.6-0.2,1.1-0.2,1.5,0
	c0.5,0.2,0.9,0.5,1.3,1.1c0.3,0.6,0.5,1.3,0.5,2.3c0,1-0.2,2.1-0.6,3.2c-0.4,1.1-1,2.1-1.7,2.9c1-0.2,1.8,0,2.3,0.6
	c0.5,0.6,0.8,1.6,0.8,2.9c0,1-0.2,2.1-0.5,3.2c-0.3,1.1-0.8,2.2-1.5,3.1c-0.6,0.9-1.3,1.6-2.1,2.3v3.1L863.9,467.5z M860,457.1v5.9
	l3.1-1.8c1.2-0.7,1.9-1.2,2.3-1.5c0.5-0.4,0.9-0.9,1.2-1.6c0.3-0.6,0.5-1.4,0.5-2.1c0-0.6-0.1-1.1-0.3-1.5c-0.2-0.3-0.6-0.5-1-0.4
	c-0.5,0.1-1.5,0.6-3,1.5L860,457.1z M860,448.4v5.1l2.2-1.3c1.3-0.8,2.1-1.2,2.4-1.5c0.6-0.4,1-1,1.3-1.6c0.3-0.6,0.5-1.3,0.5-2
	c0-0.7-0.2-1.1-0.4-1.4c-0.3-0.3-0.7-0.3-1.3,0c-0.3,0.2-1.3,0.6-2.9,1.6L860,448.4z"/>
<linearGradient id="SVGID_00000140724592855336362050000001136195072201468039_" gradientUnits="userSpaceOnUse" x1="854.14" y1="265.337" x2="854.14" y2="290.235" gradientTransform="matrix(1 0 0 -1 0 734)">
	<stop  offset="0" style="stop-color:#010001"/>
	<stop  offset="1" style="stop-color:#154719"/>
</linearGradient>
<path fill="url(#SVGID_00000140724592855336362050000001136195072201468039_)" d="M851.6,443.8l5.1,2.9v22l-5.1-2.9V443.8z"/>
<path fill="#60B967" d="M861.5,440.8l-5.3-2.8l-2.5,1.5l2.5-1L861.5,440.8z"/>
<path fill="#60B967" d="M858.1,444.8l-4.2-2.4l-2.1,1.2l2-1L858.1,444.8z"/>
<path fill="#60B967" d="M866.4,438l-5.2-2.8l-2.5,1.5l2.5-1L866.4,438z"/>
<linearGradient id="SVGID_00000079465874027989734970000001247082227056854934_" gradientUnits="userSpaceOnUse" x1="864.6735" y1="262.893" x2="864.6735" y2="295.2" gradientTransform="matrix(1 0 0 -1 0 734)">
	<stop  offset="0" style="stop-color:#010001"/>
	<stop  offset="1" style="stop-color:#1C5620"/>
</linearGradient>
<path fill="url(#SVGID_00000079465874027989734970000001247082227056854934_)" d="M865,468.3v-3c-0.5,0.3-1,0.6-1.6,0.9l-0.8,0.5v3
	l-2.5,1.5v-3l-2.3,1.3v-22l2.3-1.3v-3l2.5-1.5v3l1.8-1c0.2-0.1,0.4-0.2,0.6-0.3v-3l2.5-1.5v3.3c0.6-0.2,1.1-0.2,1.5,0
	c0.5,0.2,0.9,0.5,1.3,1.1c0.3,0.6,0.5,1.3,0.5,2.3c0,1-0.2,2.1-0.6,3.2c-0.4,1.1-1,2.1-1.7,2.9c1-0.2,1.8,0,2.3,0.6
	c0.5,0.6,0.8,1.6,0.8,2.9c0,1-0.2,2.1-0.5,3.2c-0.3,1.1-0.8,2.2-1.5,3.1c-0.6,0.9-1.3,1.6-2.1,2.3v3.1L865,468.3z M861.1,457.9v5.9
	l3.1-1.8c1.2-0.7,1.9-1.2,2.3-1.5c0.5-0.4,0.9-0.9,1.2-1.6c0.3-0.7,0.5-1.4,0.5-2.1c0-0.6-0.1-1.1-0.3-1.5c-0.2-0.3-0.6-0.5-1-0.4
	c-0.5,0-1.5,0.5-2.9,1.4L861.1,457.9z M861.1,449.2v5.1l2.2-1.3c1.3-0.8,2.1-1.2,2.4-1.5c0.6-0.4,1-1,1.3-1.6c0.3-0.6,0.5-1.3,0.5-2
	c0-0.7-0.2-1.1-0.4-1.4c-0.3-0.3-0.7-0.3-1.3,0c-0.3,0.2-1.3,0.6-2.9,1.6L861.1,449.2z"/>
<path fill="#60B967" d="M869.1,442c-0.5-0.1-1-0.1-1.5,0c1.5,0.3,4.2,1.9,2.7,6.6c0.4-1.1,0.6-2.2,0.6-3.2c0-1-0.2-1.7-0.5-2.3
	C870,442.6,869.6,442.2,869.1,442z"/>
<path fill="#60B967" d="M870.9,452.2c-0.5-0.6-1.3-0.8-2.3-0.6c1-0.1,2.9,0.6,3.1,3.5C871.7,453.8,871.4,452.8,870.9,452.2z"/>
<linearGradient id="SVGID_00000084488538854280614590000016537767980472777910_" gradientUnits="userSpaceOnUse" x1="810.786" y1="286.282" x2="810.786" y2="292.163" gradientTransform="matrix(1 0 0 -1 0 734)">
	<stop  offset="0" style="stop-color:#010001"/>
	<stop  offset="1" style="stop-color:#154719"/>
</linearGradient>
<path fill="url(#SVGID_00000084488538854280614590000016537767980472777910_)" d="M813.3,447.7l-5.1-2.9v-3l5.1,2.9V447.7z"/>
<linearGradient id="SVGID_00000104676218415825082020000003845456952361756043_" gradientUnits="userSpaceOnUse" x1="815.7665" y1="289.108" x2="815.7665" y2="292.125" gradientTransform="matrix(1 0 0 -1 0 734)">
	<stop  offset="0" style="stop-color:#010001"/>
	<stop  offset="1" style="stop-color:#154719"/>
</linearGradient>
<path fill="url(#SVGID_00000104676218415825082020000003845456952361756043_)" d="M818.2,444.9l-4.9-2.7l4.9-0.3V444.9z"/>
<linearGradient id="SVGID_00000132050185690821363140000008079340655773847992_" gradientUnits="userSpaceOnUse" x1="819.6628" y1="299.2985" x2="814.0579" y2="296.0605" gradientTransform="matrix(1 0 0 -1 0 734)">
	<stop  offset="0" style="stop-color:#010001"/>
	<stop  offset="1" style="stop-color:#154719"/>
</linearGradient>
<path fill="url(#SVGID_00000132050185690821363140000008079340655773847992_)" d="M814.3,434.5v5.9l5.4-1.9l3.4-5.4l-3.1-2.5
	L814.3,434.5z"/>
<linearGradient id="SVGID_00000038391526106394430880000002950041687900056992_" gradientUnits="userSpaceOnUse" x1="817.9951" y1="307.5009" x2="813.054" y2="302.8789" gradientTransform="matrix(1 0 0 -1 0 734)">
	<stop  offset="0" style="stop-color:#010001"/>
	<stop  offset="1" style="stop-color:#154719"/>
</linearGradient>
<path fill="url(#SVGID_00000038391526106394430880000002950041687900056992_)" d="M814.4,425.8v5.1l6.4-2.9l1-5l-3.1-0.7
	L814.4,425.8z"/>
<linearGradient id="SVGID_00000109022690504770016390000016783374406368846741_" gradientUnits="userSpaceOnUse" x1="811.0466" y1="313.1103" x2="807.9186" y2="310.7603" gradientTransform="matrix(1 0 0 -1 0 734)">
	<stop  offset="0" style="stop-color:#010001"/>
	<stop  offset="1" style="stop-color:#154719"/>
</linearGradient>
<path fill="url(#SVGID_00000109022690504770016390000016783374406368846741_)" d="M805.9,421.2l2.3-1.3l5.1,2.9l-2.3,1.3
	L805.9,421.2z"/>
<linearGradient id="SVGID_00000046307355636604774920000008327672823070303640_" gradientUnits="userSpaceOnUse" x1="814.4875" y1="312.707" x2="814.4875" y2="316.946" gradientTransform="matrix(1 0 0 -1 0 734)">
	<stop  offset="0" style="stop-color:#010001"/>
	<stop  offset="1" style="stop-color:#154719"/>
</linearGradient>
<path fill="url(#SVGID_00000046307355636604774920000008327672823070303640_)" d="M818.2,419.9l-5.1-2.9l-2.4,1.3l5.1,2.9
	L818.2,419.9z"/>
<linearGradient id="SVGID_00000020386480887792904490000016542324987466377354_" gradientUnits="userSpaceOnUse" x1="819.05" y1="314.273" x2="819.05" y2="318.053" gradientTransform="matrix(1 0 0 -1 0 734)">
	<stop  offset="0" style="stop-color:#010001"/>
	<stop  offset="1" style="stop-color:#533019"/>
</linearGradient>
<path fill="url(#SVGID_00000020386480887792904490000016542324987466377354_)" d="M822.3,418.7l-4.9-2.8l-1.5,1.6l5.2,2.2
	L822.3,418.7z"/>
<linearGradient id="SVGID_00000145762820117054805170000017698783894160067239_" gradientUnits="userSpaceOnUse" x1="810.786" y1="311.257" x2="810.786" y2="317.138" gradientTransform="matrix(1 0 0 -1 0 734)">
	<stop  offset="0" style="stop-color:#010001"/>
	<stop  offset="1" style="stop-color:#154719"/>
</linearGradient>
<path fill="url(#SVGID_00000145762820117054805170000017698783894160067239_)" d="M808.2,416.9l5.1,2.9v3l-5.1-2.9V416.9z"/>
<linearGradient id="SVGID_00000018943366925861684370000007071302178239183294_" gradientUnits="userSpaceOnUse" x1="815.6005" y1="314.082" x2="815.6005" y2="319.999" gradientTransform="matrix(1 0 0 -1 0 734)">
	<stop  offset="0" style="stop-color:#010001"/>
	<stop  offset="1" style="stop-color:#154719"/>
</linearGradient>
<path fill="url(#SVGID_00000018943366925861684370000007071302178239183294_)" d="M813,414l5.2,2.9v3L813,417V414z"/>
<linearGradient id="SVGID_00000034061896932697370230000015322723633303328695_" gradientUnits="userSpaceOnUse" x1="816.8595" y1="317.072" x2="816.8595" y2="321.387" gradientTransform="matrix(1 0 0 -1 0 734)">
	<stop  offset="0" style="stop-color:#010001"/>
	<stop  offset="1" style="stop-color:#154719"/>
</linearGradient>
<path fill="url(#SVGID_00000034061896932697370230000015322723633303328695_)" d="M815.5,412.6l5.2,2.8l-2.6,1.5l-5.1-2.9
	L815.5,412.6z"/>
<linearGradient id="SVGID_00000048502930780920772010000017518295182762632093_" gradientUnits="userSpaceOnUse" x1="811.949" y1="314.216" x2="811.949" y2="318.531" gradientTransform="matrix(1 0 0 -1 0 734)">
	<stop  offset="0" style="stop-color:#010001"/>
	<stop  offset="1" style="stop-color:#154719"/>
</linearGradient>
<path fill="url(#SVGID_00000048502930780920772010000017518295182762632093_)" d="M810.6,415.5l5.2,2.8l-2.7,1.6l-5.1-2.9
	L810.6,415.5z"/>
<linearGradient id="SVGID_00000082344384464984367860000008810604877671389315_" gradientUnits="userSpaceOnUse" x1="817.9225" y1="286.282" x2="817.9225" y2="318.589" gradientTransform="matrix(1 0 0 -1 0 734)">
	<stop  offset="0" style="stop-color:#010001"/>
	<stop  offset="1" style="stop-color:#154719"/>
</linearGradient>
<path fill="url(#SVGID_00000082344384464984367860000008810604877671389315_)" d="M818.2,444.9v-3c-0.5,0.3-1,0.6-1.6,0.9l-0.8,0.5
	v3l-2.5,1.5v-3L811,446v-22l2.3-1.3v-3l2.5-1.5v3l1.8-1c0.2-0.1,0.4-0.2,0.6-0.3v-3l2.5-1.5v3.3c0.6-0.2,1.1-0.2,1.5,0
	c0.5,0.2,0.9,0.5,1.3,1.1c0.3,0.6,0.5,1.3,0.5,2.3c0,1-0.2,2.1-0.6,3.2c-0.4,1.1-1,2.1-1.7,2.9c1-0.2,1.8,0,2.3,0.6
	c0.5,0.6,0.8,1.6,0.8,2.9c0,1-0.2,2.1-0.5,3.2c-0.3,1.1-0.8,2.2-1.5,3.1c-0.6,0.9-1.3,1.6-2.1,2.3v3.1L818.2,444.9z M814.3,434.5
	v5.9l3.1-1.8c1.2-0.7,1.9-1.2,2.3-1.5c0.5-0.4,0.9-0.9,1.2-1.6c0.3-0.6,0.5-1.4,0.5-2.1c0-0.6-0.1-1.1-0.3-1.5
	c-0.2-0.3-0.6-0.5-1-0.4c-0.5,0.1-1.5,0.6-3,1.5L814.3,434.5z M814.4,425.8v5.1l2.2-1.3c1.3-0.8,2.1-1.2,2.4-1.5
	c0.6-0.4,1-1,1.3-1.6c0.3-0.6,0.5-1.3,0.5-2c0-0.7-0.2-1.1-0.4-1.4c-0.3-0.3-0.7-0.3-1.3,0c-0.3,0.2-1.3,0.6-2.9,1.6L814.4,425.8z"
	/>
<linearGradient id="SVGID_00000106113704911460136500000007681889763110018492_" gradientUnits="userSpaceOnUse" x1="808.458" y1="287.923" x2="808.458" y2="312.822" gradientTransform="matrix(1 0 0 -1 0 734)">
	<stop  offset="0" style="stop-color:#010001"/>
	<stop  offset="1" style="stop-color:#154719"/>
</linearGradient>
<path fill="url(#SVGID_00000106113704911460136500000007681889763110018492_)" d="M805.9,421.2l5.1,2.9v22l-5.1-2.9V421.2z"/>
<path fill="#60B967" d="M815.9,418.3l-5.3-2.8l-2.5,1.5l2.5-1L815.9,418.3z"/>
<path fill="#60B967" d="M812.4,422.2l-4.2-2.4l-2.1,1.2l2-1L812.4,422.2z"/>
<path fill="#60B967" d="M820.7,415.5l-5.2-2.8l-2.5,1.5l2.5-1L820.7,415.5z"/>
<linearGradient id="SVGID_00000124858145142426290020000012859376904450705598_" gradientUnits="userSpaceOnUse" x1="818.9915" y1="285.48" x2="818.9915" y2="317.787" gradientTransform="matrix(1 0 0 -1 0 734)">
	<stop  offset="0" style="stop-color:#010001"/>
	<stop  offset="1" style="stop-color:#1C5620"/>
</linearGradient>
<path fill="url(#SVGID_00000124858145142426290020000012859376904450705598_)" d="M819.3,445.7v-3c-0.5,0.3-1,0.6-1.6,0.9l-0.8,0.5
	v3l-2.5,1.5v-3l-2.3,1.3v-22l2.3-1.3v-3l2.5-1.5v3l1.8-1c0.2-0.1,0.4-0.2,0.6-0.3v-3l2.5-1.5v3.3c0.6-0.2,1.1-0.2,1.5,0
	c0.5,0.2,0.9,0.5,1.3,1.1c0.3,0.6,0.5,1.3,0.5,2.3c0,1-0.2,2.1-0.6,3.2c-0.4,1.1-1,2.1-1.7,2.9c1-0.2,1.8,0,2.3,0.6
	c0.5,0.6,0.8,1.6,0.8,2.9c0,1-0.2,2.1-0.5,3.2c-0.3,1.1-0.8,2.2-1.5,3.1c-0.6,0.9-1.3,1.6-2.1,2.3v3.1L819.3,445.7z M815.5,435.3
	v5.9l3.1-1.8c1.2-0.7,1.9-1.2,2.3-1.5c0.5-0.4,0.9-0.9,1.2-1.6c0.3-0.6,0.5-1.4,0.5-2.1c0-0.6-0.1-1.1-0.3-1.5
	c-0.2-0.3-0.6-0.5-1-0.4s-1.5,0.5-2.9,1.4L815.5,435.3z M815.5,426.6v5.1l2.2-1.3c1.3-0.8,2.1-1.2,2.4-1.5c0.6-0.4,1-1,1.3-1.6
	c0.3-0.6,0.5-1.3,0.5-2c0-0.7-0.2-1.1-0.4-1.4c-0.3-0.3-0.7-0.3-1.3,0c-0.3,0.2-1.3,0.6-2.9,1.6L815.5,426.6z"/>
<path fill="#60B967" d="M823.4,419.5c-0.5-0.1-1-0.1-1.5,0c1.5,0.3,4.2,1.9,2.7,6.6c0.4-1.1,0.6-2.2,0.6-3.2c0-1-0.2-1.7-0.5-2.3
	C824.3,420,823.9,419.6,823.4,419.5z"/>
<path fill="#60B967" d="M825.2,429.6c-0.5-0.6-1.3-0.8-2.3-0.6c1-0.1,2.9,0.6,3.1,3.5C826,431.2,825.7,430.2,825.2,429.6z"/>
<linearGradient id="SVGID_00000008836028842875102780000016050902226505095331_" gradientUnits="userSpaceOnUse" x1="1478.1499" y1="300.955" x2="1478.1499" y2="306.835" gradientTransform="matrix(1 0 0 -1 0 734)">
	<stop  offset="0" style="stop-color:#010001"/>
	<stop  offset="1" style="stop-color:#154719"/>
</linearGradient>
<path fill="url(#SVGID_00000008836028842875102780000016050902226505095331_)" d="M1480.7,433l-5.1-2.9v-3l5.1,2.9V433z"/>
<linearGradient id="SVGID_00000050650400845847949040000008169047167226201489_" gradientUnits="userSpaceOnUse" x1="1483.1299" y1="303.78" x2="1483.1299" y2="306.797" gradientTransform="matrix(1 0 0 -1 0 734)">
	<stop  offset="0" style="stop-color:#010001"/>
	<stop  offset="1" style="stop-color:#154719"/>
</linearGradient>
<path fill="url(#SVGID_00000050650400845847949040000008169047167226201489_)" d="M1485.6,430.2l-4.9-2.7l4.9-0.3V430.2z"/>
<linearGradient id="SVGID_00000072994112355826688960000017700131669334403722_" gradientUnits="userSpaceOnUse" x1="1487.0308" y1="313.9727" x2="1481.4208" y2="310.7357" gradientTransform="matrix(1 0 0 -1 0 734)">
	<stop  offset="0" style="stop-color:#010001"/>
	<stop  offset="1" style="stop-color:#154719"/>
</linearGradient>
<path fill="url(#SVGID_00000072994112355826688960000017700131669334403722_)" d="M1481.7,419.9v5.9l5.4-1.9l3.4-5.4l-3.1-2.5
	L1481.7,419.9z"/>
<linearGradient id="SVGID_00000132792191688769623580000002990207906417762194_" gradientUnits="userSpaceOnUse" x1="1485.3577" y1="322.1712" x2="1480.4176" y2="317.5502" gradientTransform="matrix(1 0 0 -1 0 734)">
	<stop  offset="0" style="stop-color:#010001"/>
	<stop  offset="1" style="stop-color:#154719"/>
</linearGradient>
<path fill="url(#SVGID_00000132792191688769623580000002990207906417762194_)" d="M1481.7,411.1v5.1l6.4-2.9l1-5l-3.1-0.7
	L1481.7,411.1z"/>
<linearGradient id="SVGID_00000011734064840566020760000001201108125711582636_" gradientUnits="userSpaceOnUse" x1="1478.4103" y1="327.7826" x2="1475.2803" y2="325.4326" gradientTransform="matrix(1 0 0 -1 0 734)">
	<stop  offset="0" style="stop-color:#010001"/>
	<stop  offset="1" style="stop-color:#154719"/>
</linearGradient>
<path fill="url(#SVGID_00000011734064840566020760000001201108125711582636_)" d="M1473.3,406.5l2.3-1.3l5.1,2.9l-2.3,1.3
	L1473.3,406.5z"/>
<linearGradient id="SVGID_00000144296724604028537870000017935406709183960741_" gradientUnits="userSpaceOnUse" x1="1481.85" y1="327.38" x2="1481.85" y2="331.619" gradientTransform="matrix(1 0 0 -1 0 734)">
	<stop  offset="0" style="stop-color:#010001"/>
	<stop  offset="1" style="stop-color:#154719"/>
</linearGradient>
<path fill="url(#SVGID_00000144296724604028537870000017935406709183960741_)" d="M1485.6,405.2l-5.1-2.9l-2.4,1.3l5.1,2.9
	L1485.6,405.2z"/>
<linearGradient id="SVGID_00000048481207240859937780000001877971476401372607_" gradientUnits="userSpaceOnUse" x1="1486.4149" y1="328.945" x2="1486.4149" y2="332.726" gradientTransform="matrix(1 0 0 -1 0 734)">
	<stop  offset="0" style="stop-color:#010001"/>
	<stop  offset="1" style="stop-color:#533019"/>
</linearGradient>
<path fill="url(#SVGID_00000048481207240859937780000001877971476401372607_)" d="M1489.6,404.1l-4.9-2.8l-1.5,1.6l5.2,2.2
	L1489.6,404.1z"/>
<linearGradient id="SVGID_00000098220334283347095750000005203974285867629993_" gradientUnits="userSpaceOnUse" x1="1478.1499" y1="325.93" x2="1478.1499" y2="331.811" gradientTransform="matrix(1 0 0 -1 0 734)">
	<stop  offset="0" style="stop-color:#010001"/>
	<stop  offset="1" style="stop-color:#154719"/>
</linearGradient>
<path fill="url(#SVGID_00000098220334283347095750000005203974285867629993_)" d="M1475.6,402.2l5.1,2.9v3l-5.1-2.9V402.2z"/>
<linearGradient id="SVGID_00000130619265566705679960000006340358707630206142_" gradientUnits="userSpaceOnUse" x1="1482.965" y1="328.755" x2="1482.965" y2="334.671" gradientTransform="matrix(1 0 0 -1 0 734)">
	<stop  offset="0" style="stop-color:#010001"/>
	<stop  offset="1" style="stop-color:#154719"/>
</linearGradient>
<path fill="url(#SVGID_00000130619265566705679960000006340358707630206142_)" d="M1480.4,399.3l5.2,2.9v3l-5.2-2.9V399.3z"/>
<linearGradient id="SVGID_00000005248101097199609170000007270042938672005803_" gradientUnits="userSpaceOnUse" x1="1484.225" y1="331.744" x2="1484.225" y2="336.06" gradientTransform="matrix(1 0 0 -1 0 734)">
	<stop  offset="0" style="stop-color:#010001"/>
	<stop  offset="1" style="stop-color:#154719"/>
</linearGradient>
<path fill="url(#SVGID_00000005248101097199609170000007270042938672005803_)" d="M1482.9,397.9l5.2,2.8l-2.6,1.5l-5.1-2.9
	L1482.9,397.9z"/>
<linearGradient id="SVGID_00000024002449894577020130000004682979576008252343_" gradientUnits="userSpaceOnUse" x1="1479.3149" y1="328.888" x2="1479.3149" y2="333.204" gradientTransform="matrix(1 0 0 -1 0 734)">
	<stop  offset="0" style="stop-color:#010001"/>
	<stop  offset="1" style="stop-color:#154719"/>
</linearGradient>
<path fill="url(#SVGID_00000024002449894577020130000004682979576008252343_)" d="M1477.9,400.8l5.2,2.8l-2.7,1.6l-5.1-2.9
	L1477.9,400.8z"/>
<linearGradient id="SVGID_00000181784129667857814440000006599441228699682204_" gradientUnits="userSpaceOnUse" x1="1485.2849" y1="300.954" x2="1485.2849" y2="333.261" gradientTransform="matrix(1 0 0 -1 0 734)">
	<stop  offset="0" style="stop-color:#010001"/>
	<stop  offset="1" style="stop-color:#154719"/>
</linearGradient>
<path fill="url(#SVGID_00000181784129667857814440000006599441228699682204_)" d="M1485.6,430.2v-3c-0.4,0.3-1,0.6-1.6,0.9l-0.8,0.5
	v3l-2.5,1.5v-3l-2.3,1.3v-22l2.3-1.3v-3l2.5-1.5v3l1.8-1c0.2-0.1,0.4-0.2,0.6-0.3v-3l2.5-1.5v3.3c0.6-0.2,1.1-0.2,1.5,0
	c0.5,0.2,0.9,0.5,1.3,1.1c0.3,0.6,0.5,1.3,0.5,2.3c0,1-0.2,2.1-0.6,3.2c-0.4,1.1-1,2.1-1.7,2.9c1-0.2,1.8,0,2.3,0.6
	c0.5,0.6,0.8,1.6,0.8,2.9c0,1-0.2,2.1-0.5,3.2c-0.3,1.1-0.8,2.2-1.5,3.1c-0.6,0.9-1.3,1.6-2.1,2.3v3.1L1485.6,430.2z M1481.7,419.9
	v5.9l3.1-1.8c1.2-0.7,1.9-1.2,2.3-1.5c0.5-0.4,0.9-0.9,1.2-1.6c0.3-0.7,0.5-1.4,0.5-2.1c0-0.6-0.1-1.1-0.3-1.5
	c-0.2-0.3-0.6-0.5-1-0.4c-0.5,0.1-1.4,0.6-3,1.5L1481.7,419.9z M1481.7,411.1v5.1l2.2-1.3c1.3-0.8,2.1-1.2,2.4-1.5
	c0.6-0.4,1-1,1.3-1.6c0.3-0.6,0.5-1.3,0.5-2c0-0.7-0.2-1.1-0.4-1.4c-0.3-0.3-0.7-0.3-1.3,0c-0.3,0.2-1.3,0.6-2.9,1.6L1481.7,411.1z"
	/>
<linearGradient id="SVGID_00000178169920456266558380000015089889292958849963_" gradientUnits="userSpaceOnUse" x1="1475.8199" y1="302.596" x2="1475.8199" y2="327.495" gradientTransform="matrix(1 0 0 -1 0 734)">
	<stop  offset="0" style="stop-color:#010001"/>
	<stop  offset="1" style="stop-color:#154719"/>
</linearGradient>
<path fill="url(#SVGID_00000178169920456266558380000015089889292958849963_)" d="M1473.3,406.5l5.1,2.9v22l-5.1-2.9V406.5z"/>
<path fill="#60B967" d="M1483.2,403.6l-5.3-2.8l-2.5,1.5l2.5-1L1483.2,403.6z"/>
<path fill="#60B967" d="M1479.8,407.6l-4.2-2.4l-2.1,1.2l2-1L1479.8,407.6z"/>
<path fill="#60B967" d="M1488.1,400.8l-5.2-2.8l-2.5,1.5l2.5-1L1488.1,400.8z"/>
<linearGradient id="SVGID_00000083052621309489336560000013263265575908146564_" gradientUnits="userSpaceOnUse" x1="1486.355" y1="300.153" x2="1486.355" y2="332.459" gradientTransform="matrix(1 0 0 -1 0 734)">
	<stop  offset="0" style="stop-color:#010001"/>
	<stop  offset="1" style="stop-color:#1C5620"/>
</linearGradient>
<path fill="url(#SVGID_00000083052621309489336560000013263265575908146564_)" d="M1486.7,431v-3c-0.5,0.3-1,0.6-1.6,0.9l-0.8,0.5v3
	l-2.5,1.5v-3l-2.3,1.3v-22l2.3-1.3v-3l2.5-1.5v3l1.8-1c0.2-0.1,0.4-0.2,0.6-0.3v-3l2.5-1.5v3.3c0.6-0.2,1.1-0.2,1.5,0
	c0.5,0.2,0.9,0.5,1.3,1.1c0.3,0.6,0.5,1.3,0.5,2.3c0,1-0.2,2.1-0.6,3.2c-0.4,1.1-1,2.1-1.7,2.9c1-0.2,1.8,0,2.3,0.6
	c0.5,0.6,0.8,1.6,0.8,2.9c0,1-0.2,2.1-0.5,3.2c-0.3,1.1-0.8,2.2-1.4,3.1c-0.6,0.9-1.3,1.6-2.1,2.3v3.1L1486.7,431z M1482.8,420.7
	v5.9l3.1-1.8c1.2-0.7,1.9-1.2,2.3-1.5c0.5-0.4,0.9-0.9,1.2-1.6c0.3-0.6,0.5-1.4,0.5-2.1c0-0.6-0.1-1.1-0.3-1.5
	c-0.2-0.3-0.6-0.5-1-0.4c-0.4,0-1.4,0.5-2.9,1.4L1482.8,420.7z M1482.8,411.9v5.1l2.2-1.3c1.3-0.8,2.1-1.2,2.4-1.5
	c0.6-0.4,1-1,1.3-1.6c0.3-0.6,0.5-1.3,0.5-2c0-0.7-0.2-1.1-0.4-1.4c-0.3-0.3-0.7-0.3-1.3,0c-0.3,0.2-1.3,0.6-2.9,1.6L1482.8,411.9z"
	/>
<path fill="#60B967" d="M1490.8,404.8c-0.5-0.1-1-0.1-1.5,0c1.5,0.3,4.2,1.9,2.7,6.6c0.4-1.1,0.6-2.2,0.6-3.2c0-1-0.2-1.7-0.5-2.3
	C1491.7,405.3,1491.2,404.9,1490.8,404.8z"/>
<path fill="#60B967" d="M1492.6,414.9c-0.5-0.6-1.3-0.8-2.3-0.6c1-0.1,2.9,0.6,3.1,3.5C1493.3,416.5,1493.1,415.6,1492.6,414.9z"/>
<path d="M988.8,567v-29.8l2.7-43.7l-11.9-12l-6-29l1.6-1.6l4.8,28l5.1-15.8l4.5-3.9l1,0.5l-4.3,3.4l-5.1,17.2l14.5,11.9l10.8-4.4
	l2.7-10.9l2-0.2l-2,11.1l6.2-2l7.7-12.8l-0.9-16.2l1.5-1.1l0.6,18.4l-6.9,13.6l-18.4,8.6l-1.2,47.1l6.6,24.1L988.8,567z"/>
<linearGradient id="SVGID_00000143611001110763914930000005731945776837518747_" gradientUnits="userSpaceOnUse" x1="1000.1171" y1="246.037" x2="1000.1171" y2="375.277" gradientTransform="matrix(1 0 0 -1 0 734)">
	<stop  offset="0" style="stop-color:#010001"/>
	<stop  offset="1" style="stop-color:#154719"/>
</linearGradient>
<path fill="url(#SVGID_00000143611001110763914930000005731945776837518747_)" d="M1067.7,463.6l-2.4-2.2l-13.3,15.8l3.8,0.3
	c-11.6,5.9-29.6,8.8-29.6,8.8l0.2,1.7l-14.3-6.5l1.7,3.3c-7.2-2.1-13.8-7.3-18.7-12c-5.2-5-8.3-9.5-8.3-9.5l-0.2,8.6L967.5,454
	l3.4,9.8l1-2l3,7.6c-12,2-37.2-13.9-37.2-13.9l-0.8,2.7l-0.3,1.4c0,0-16.3-42,1.1-61.3c4.3-4.7,8.4-8.6,12.4-11.7
	c12.1-9.5,21.6-12.1,21.6-12.1l1.7,3.5c6-6.8,15-14.5,15-14.5l-1.5,3.6l34.5-5.3l-4.4-3c25.1,6.7,44.9,30.6,46.1,32l0.1,0.1l2.2-1.9
	l5.1,41.1l-2.8-1.1C1073.8,441.3,1068,462.6,1067.7,463.6z"/>
<path d="M1067.7,463.6l-2.4-2.2l-21,10.8l-0.3-4.8l-18.4,11.4l1.2-6.5l-10.7,4.6l-16-7l-4.7,3.1c-5.2-5-8.3-9.5-8.3-9.5l-0.2,8.6
	l-19.2-17.8l3.4,9.8l1-2l3,7.6c-12,2-37.2-13.9-37.2-13.9l-0.8,2.7l1.6-8.5l9.8,2.8l0.5-2.8l3.1,2.8l-0.4-19.5l2.1,4l26.4-10.7
	l-2.4,3.3l26.7,15.6l-1.7-3l34-3l-3-2.2l18.2-18.6l-4.5,11.2l2.1-0.6l2.5,5.4l6.1-22.4l-4.7-25.7l8,7l1.9-2.4l2.2-1.9l5.1,41.1
	l-2.8-1.1C1073.8,441.3,1068,462.6,1067.7,463.6z"/>
<linearGradient id="SVGID_00000142863443486012792440000018083867143803980180_" gradientUnits="userSpaceOnUse" x1="997.0134" y1="281.6541" x2="1003.1624" y2="385.7641" gradientTransform="matrix(1 0 0 -1 0 734)">
	<stop  offset="0" style="stop-color:#010001"/>
	<stop  offset="1" style="stop-color:#154719"/>
</linearGradient>
<path fill="url(#SVGID_00000142863443486012792440000018083867143803980180_)" d="M1061.2,393.5l-8-7l2.4,10l-3.7-6.8l-26.2,1.5
	l-2.5,0.1l5.2,1.7l-26.7,9.6l1-3.1L975.5,424l4.5,2.3L953.6,437l-2.1-4l0.5,19.5l-1.9-3.7v3.7l-11.5-2.8l-3-15.6l4.8,5.5l1.5-19.7
	l11.1-2.5l5.4-18.2l-4.4-0.2l6.4-11.4l-10.3,7.5l0.1-8.5c12.1-9.5,21.6-12.1,21.6-12.1l1.7,3.5c6-6.8,15-14.5,15-14.5l-1.5,3.6
	l34.5-5.3l-4.4-3c11.5,3.1,21.9,9.8,29.9,16.2c9.4,7.6,15.5,15.1,16.2,15.8l0.1,0.1L1061.2,393.5z"/>
<path opacity="0.1" fill="#60B967" enable-background="new    " d="M984.6,433.7l19.7,11.6l-1.7-3l33.9-3l-3-2.3l11.9-13.4l-15,5.4
	v-6.7l-26.8,11.5h11.2l-11.2,4.6L984.6,433.7z"/>
<path opacity="0.1" fill="#60B967" enable-background="new    " d="M1030.5,417.4l12.6-17.6l-7.3,5.9l1.8-6.3l-9.2,9h4.3
	L1030.5,417.4z"/>
<path opacity="0.2" fill="#60B967" enable-background="new    " d="M1034.4,374.9l-5.3,6.8l2.4,0.8l-7.9,7.2l2.1,1.5l2.7,1.9
	l-26.6,9.5l2-5.5l-19.1,0.2V394l-26.3,5.1l-4.4-0.2l6.4-11.4l-10.3,7.5l0.1-8.5c12.1-9.6,21.6-12.1,21.6-12.1l1.7,3.5
	c2-2.2,4.4-4.7,6.6-6.8c3.8-3.7,7.2-6.8,8.1-7.5l0.2-0.2L987,367l34.5-5.3l-4.4-3c11.5,3.1,21.9,9.8,29.9,16.2L1034.4,374.9z"/>
<linearGradient id="SVGID_00000024722441803929144780000011449768899983715514_" gradientUnits="userSpaceOnUse" x1="1013.3644" y1="354.374" x2="1013.3644" y2="375.065" gradientTransform="matrix(1 0 0 -1 0 734)">
	<stop  offset="0" style="stop-color:#010001"/>
	<stop  offset="1" style="stop-color:#154719"/>
</linearGradient>
<path opacity="0.3" fill="url(#SVGID_00000024722441803929144780000011449768899983715514_)" enable-background="new    " d="
	M1043.4,379.6l0.9-4.1l-9.9-0.6l-22.9-0.3l2.6-4.8l0.9-1.3l-18,7l-1.7-3.2l-9.1,4.8l0.9-8.1l-7.2,2.3l8.1-7.5l0.2-0.2l-1.5,3.6
	l34.5-5.3l-4.4-3c11.5,3.1,21.9,9.8,29.9,16.2L1043.4,379.6z"/>
<linearGradient id="SVGID_00000022557912908749854760000003654287245785339807_" gradientUnits="userSpaceOnUse" x1="1001.779" y1="165.927" x2="1001.779" y2="182.904" gradientTransform="matrix(1 0 0 -1 0 734)">
	<stop  offset="0" style="stop-color:#010001"/>
	<stop  offset="1" style="stop-color:#154719"/>
</linearGradient>
<path fill="url(#SVGID_00000022557912908749854760000003654287245785339807_)" d="M995.9,566.9l10.2-15.8v2.3l-8,13.5l10.5-10.2v1.8
	l-6.3,8.9l-7.3,0.6L995.9,566.9z"/>
<linearGradient id="SVGID_00000026140320549978927810000014337970446980270237_" gradientUnits="userSpaceOnUse" x1="990.986" y1="165.926" x2="990.986" y2="182.8961" gradientTransform="matrix(1 0 0 -1 0 734)">
	<stop  offset="0" style="stop-color:#010001"/>
	<stop  offset="1" style="stop-color:#154719"/>
</linearGradient>
<path fill="url(#SVGID_00000026140320549978927810000014337970446980270237_)" d="M993.4,567.4l0.8-13.2h-0.8l-1.3,13.2l-1.1-5.1
	l-3.1,2v3.7L993.4,567.4z"/>
<linearGradient id="SVGID_00000137825356625619275810000003521780172432133780_" gradientUnits="userSpaceOnUse" x1="1012.125" y1="165.927" x2="1012.125" y2="182.897" gradientTransform="matrix(1 0 0 -1 0 734)">
	<stop  offset="0" style="stop-color:#010001"/>
	<stop  offset="1" style="stop-color:#154719"/>
</linearGradient>
<path fill="url(#SVGID_00000137825356625619275810000003521780172432133780_)" d="M1005,568.1l13.4-14.9l0.9,1.1l-12.9,13.8H1005z"
	/>
<path fill="#60B967" d="M1065.4,389.2l2.7,37.9l-2.7-1.3l2.7,15.8l-0.3,22l4.8-16.2l-0.8-0.8l-0.7-11.4l-3.4-5.9l2.8,1.1
	L1065.4,389.2z"/>
<path fill="#60B967" d="M1065.4,461.2l-2.2-3l-10.9,15.7l-7,4.7l6.9-1.5L1065.4,461.2z"/>
<path fill="#60B967" d="M1060.4,419.5v10.9l-8.1,9.2l6.3-10.1l-0.7-13.8l1.4,4.9L1060.4,419.5z"/>
<linearGradient id="SVGID_00000167367076360134337720000009459269116203965834_" gradientUnits="userSpaceOnUse" x1="958.039" y1="340.792" x2="958.039" y2="359.361" gradientTransform="matrix(1 0 0 -1 0 734)">
	<stop  offset="0" style="stop-color:#010001"/>
	<stop  offset="1" style="stop-color:#154719"/>
</linearGradient>
<path fill="url(#SVGID_00000167367076360134337720000009459269116203965834_)" d="M942.7,393.2l25.4-15.3h2.4l2.9,0.2l-1.7-3.5
	c0,0-9.9,3.6-15.7,7.9C950.1,386.6,942.7,393.2,942.7,393.2z"/>
<path fill="#60B967" d="M979.9,371.2l5.5-3.2l1.6,0.8l37.8-3.8l20.7,9l17.7,17l-17.7-18.9c0,0-14.5-10.3-28.6-13.4l4.4,3l-34.5,5.3
	l1.5-3.6C988.3,363.5,980.9,370,979.9,371.2z"/>
<linearGradient id="SVGID_00000163765775263491947750000007852310318886659712_" gradientUnits="userSpaceOnUse" x1="960" y1="1080" x2="960" y2="993.4909" gradientTransform="matrix(1 0 0 1 -2.001 -465.12)">
	<stop  offset="0" style="stop-color:#010001"/>
	<stop  offset="1" style="stop-color:#010001;stop-opacity:0"/>
</linearGradient>
<rect x="-2" y="528.4" fill="url(#SVGID_00000163765775263491947750000007852310318886659712_)" width="1920" height="86.5"/>
</svg>
